<?xml version="1.0" standalone="no"?><!DOCTYPE svg PUBLIC "-//W3C//DTD SVG 1.1//EN" "http://www.w3.org/Graphics/SVG/1.1/DTD/svg11.dtd" ><svg xmlns="http://www.w3.org/2000/svg"><metadata></metadata><defs><font id="1.004;ADBO;SourceHanSans-Regular;ADOBE" horiz-adv-x="1000"><font-face font-family="Source Han Sans Regular" font-weight="400" font-stretch="normal" units-per-em="1000" panose-1="2 11 5 0 0 0 0 0 0 0" ascent="1160" descent="-320" x-height="0" bbox="1 -250 986 880" underline-thickness="50" underline-position="-125" unicode-range="U+0030-ff1f" /><missing-glyph horiz-adv-x="1000" d="M100 -120 l0 1000 l800 0 l0 -1000 l-800 0 ZM182 830 l318 -409 l318 409 l-636 0 ZM532 380 l318 -409 l0 818 l-318 -409 ZM182 -70 l636 0 l-318 409 l-318 -409 ZM150 -29 l318 409 l-318 409 l0 -818 Z" /><glyph glyph-name="" unicode="0" d="M111 82 q-62 100 -62 287 q0 187 62 285 q59 93 167 93 q107 0 166 -94 q62 -98 62 -284 q0 -187 -62 -287 q-59 -95 -166 -95 q-107 0 -167 95 ZM138 369 q0 -157 39 -235 q35 -74 100.5 -74 q65.5 0 101.5 74 q38 79 38 235 q0 155 -38 232 q-36 72 -101 72 q-66 0 -101 -72 q-39 -77 -39 -232 Z" /><glyph glyph-name="" unicode="1" d="M88 0 l0 76 l163 0 l0 547 l-130 0 l0 58 q91 17 152 52 l70 0 l0 -657 l147 0 l0 -76 l-402 0 Z" /><glyph glyph-name="" unicode="3" d="M29 87 l46 60 q80 -84 182 -84 q66 0 107.5 37 q41.5 37 41.5 99 q0 147 -228 147 l0 70 q203 0 203 140 q0 53 -33.5 84.5 q-33.5 31.5 -90.5 33.5 q-82 -3 -152 -73 l-49 58 q95 88 205 88 q95 0 153 -48 q60 -50 60 -136 q0 -65 -36 -111 q-34 -43 -95 -66 l0 -4 q68 -16 111 -63 q45 -51 45 -123 q0 -96 -69 -154 q-65 -55 -166 -55 q-143 0 -235 100 Z" /><glyph glyph-name="" unicode="4" d="M115 275 l224 0 l0 225 q0 28 4 104 q2 20 2 29 l-4 0 q-24 -48 -59 -108 l-167 -250 ZM20 202 l0 60 l305 471 l101 0 l0 -458 l97 0 l0 -73 l-97 0 l0 -202 l-87 0 l0 202 l-319 0 Z" /><glyph glyph-name="" unicode="5" d="M28 84 l45 60 q81 -81 180 -81 q66 0 110 46 q46 49 46 127 q0 78 -41 122.5 q-41 44.5 -111 44.5 q-35 0 -64 -11 q-24 -9 -58 -32 l-49 30 l23 343 l357 0 l0 -78 l-277 0 l-18 -212 q52 29 109 29 q97 0 156 -56 q65 -62 65 -177.5 q0 -115.5 -73 -185.5 q-69 -66 -167 -66 q-136 0 -233 97 Z" /><glyph glyph-name="" unicode="a" d="M191 298 l222 0 l-35 112 q-30 93 -74 248 l-4 0 q-27 -102 -73 -248 l-36 -112 ZM3 0 l249 733 l103 0 l249 -733 l-98 0 l-70 224 l-268 0 l-71 -224 l-94 0 Z" /><glyph glyph-name="" unicode="b" d="M100 0 l0 733 l218 0 q252 0 252 -179 q0 -56 -28 -99 q-29 -44 -80 -60 l0 -5 q69 -13 108 -56 q42 -47 42 -119 q0 -105 -77 -161 q-74 -54 -201 -54 l-234 0 ZM193 421 l109 0 q177 0 177 121 q0 63 -44 91 q-41 27 -129 27 l-113 0 l0 -239 ZM193 74 l128 0 q200 0 200 144 q0 132 -200 132 l-128 0 l0 -276 Z" /><glyph glyph-name="" unicode="c" d="M149 87 q-91 104 -91 278.5 q0 174.5 93 279.5 q90 102 232 102 q62 0 118 -28 q48 -24 83 -63 l-50 -60 q-65 70 -150 70 q-105 0 -168 -80.5 q-63 -80.5 -63 -216.5 q0 -139 61.5 -220 q61.5 -81 166.5 -81 q94 0 170 82 l51 -58 q-91 -105 -225 -105 q-140 0 -228 100 Z" /><glyph glyph-name="" unicode="d" d="M100 0 l0 733 l184 0 q168 0 257 -94.5 q89 -94.5 89 -269.5 q0 -175 -88 -271 q-89 -98 -254 -98 l-188 0 ZM193 76 l83 0 q128 0 194 77 q64 75 64 216 q0 141 -64 214 q-66 75 -194 75 l-83 0 l0 -582 Z" /><glyph glyph-name="" unicode="e" d="M100 0 l0 733 l423 0 l0 -78 l-330 0 l0 -230 l278 0 l0 -79 l-278 0 l0 -267 l341 0 l0 -79 l-434 0 Z" /><glyph glyph-name="" unicode="f" d="M100 0 l0 733 l423 0 l0 -78 l-330 0 l0 -248 l280 0 l0 -78 l-280 0 l0 -329 l-93 0 Z" /><glyph glyph-name="" unicode="h" d="M100 0 l0 733 l93 0 l0 -307 l342 0 l0 307 l92 0 l0 -733 l-92 0 l0 346 l-342 0 l0 -346 l-93 0 Z" /><glyph glyph-name="" unicode="i" d="M100 0 l0 733 l93 0 l0 -733 l-93 0 Z" /><glyph glyph-name="" unicode="k" d="M100 0 l0 733 l93 0 l0 -368 l3 0 l306 368 l104 0 l-229 -279 l265 -454 l-104 0 l-219 382 l-126 -150 l0 -232 l-93 0 Z" /><glyph glyph-name="" unicode="l" d="M100 0 l0 733 l93 0 l0 -654 l320 0 l0 -79 l-413 0 Z" /><glyph glyph-name="" unicode="n" d="M100 0 l0 733 l96 0 l267 -462 l78 -151 l5 0 q-1 13 -3 40 q-9 130 -9 192 l0 381 l88 0 l0 -733 l-95 0 l-267 463 l-79 151 l-4 0 q1 -21 4 -64 q7 -110 7 -165 l0 -385 l-88 0 Z" /><glyph glyph-name="" unicode="o" d="M146 90 q-88 105 -88 279 q0 174 88 277 q85 101 225 101 q140 0 226 -101 q87 -103 87 -277 q0 -174 -87 -279 q-86 -103 -226 -103 q-140 0 -225 103 ZM153 369 q0 -137 59.5 -219 q59.5 -82 158.5 -82 q99 0 158.5 82 q59.5 82 59.5 219 q0 137 -59.5 217 q-59.5 80 -158.5 80 q-100 0 -159 -80 q-59 -80 -59 -217 Z" /><glyph glyph-name="" unicode="s" d="M47 96 l55 63 q41 -42 93 -66 q54 -25 110 -25 q71 0 112.5 32.5 q41.5 32.5 41.5 87.5 q0 51 -35 82 q-22 19 -87 48 l-106 46 q-149 64 -149 188 q0 85 65.5 140 q65.5 55 165.5 55 q63 0 121 -25 q55 -24 95 -66 l-49 -59 q-74 69 -167 69 q-62 0 -99.5 -29.5 q-37.5 -29.5 -37.5 -78.5 q0 -47 39 -79 q23 -18 82 -43 l105 -45 q73 -32 107 -71 q44 -49 44 -125 q0 -89 -67 -147 q-70 -61 -182 -61 q-153 0 -257 109 Z" /><glyph glyph-name="" unicode="t" d="M31 655 l0 78 l537 0 l0 -78 l-222 0 l0 -655 l-93 0 l0 655 l-222 0 Z" /><glyph glyph-name="" unicode="u" d="M173 57 q-76 79 -76 246 l0 430 l93 0 l0 -433 q0 -232 170 -232 q175 0 175 232 l0 433 l89 0 l0 -430 q0 -316 -264 -316 q-121 0 -187 70 Z" /><glyph glyph-name="" unicode="v" d="M1 733 l97 0 l119 -397 q11 -35 29 -100 q25 -91 42 -142 l4 0 q15 48 40 136 q20 68 31 106 l118 397 l94 0 l-233 -733 l-107 0 l-234 733 Z" /><glyph glyph-name="" unicode="a" d="M103 27 q-45 42 -45 114 q0 88 80 136 q79 47 254 67 q0 137 -112 137 q-77 0 -163 -58 l-36 63 q111 71 214 71 q96 0 144 -61 q44 -57 44 -162 l0 -334 l-75 0 l-8 65 l-3 0 q-94 -78 -180 -78 q-70 0 -114 40 ZM147 147 q0 -44 28 -67 q25 -20 68 -20 q38 0 75 18 q32 17 74 54 l0 152 q-133 -16 -191 -50 q-54 -32 -54 -87 Z" /><glyph glyph-name="" unicode="b" d="M92 0 l0 796 l91 0 l0 -218 l-3 -98 q88 77 170 77 q104 0 161 -76 q56 -73 56 -200 q0 -135 -71 -217 q-67 -77 -165 -77 q-80 0 -155 69 l-3 0 l-8 -56 l-73 0 ZM183 120 q65 -57 133 -57 q69 0 112 57 q44 60 44 159 q0 201 -143 201 q-66 0 -146 -75 l0 -285 Z" /><glyph glyph-name="" unicode="c" d="M125 62 q-74 77 -74 208.5 q0 131.5 79 211.5 q74 75 183 75 q86 0 159 -64 l-47 -61 q-54 49 -109 49 q-74 0 -122 -58.5 q-48 -58.5 -48 -152 q0 -93.5 46.5 -150.5 q46.5 -57 121.5 -57 q69 0 128 54 l39 -61 q-75 -69 -175 -69 q-111 0 -181 75 Z" /><glyph glyph-name="" unicode="d" d="M114 61 q-61 76 -61 210 q0 128 71 209 q67 77 164 77 q45 0 83 -17 q30 -14 70 -47 l-5 94 l0 209 l91 0 l0 -796 l-74 0 l-9 64 l-2 0 q-79 -77 -165 -77 q-103 0 -163 74 ZM147 272 q0 -99 39 -154 q39 -55 111 -55 q72 0 139 75 l0 285 q-64 57 -132 57 q-67 0 -111 -57 q-46 -59 -46 -151 Z" /><glyph glyph-name="" unicode="e" d="M127 62 q-76 79 -76 209 q0 127 75 209 q71 77 170 77 q102 0 160 -69 q56 -68 56 -186 q0 -26 -4 -52 l-366 0 q4 -87 53.5 -138.5 q49.5 -51.5 126.5 -51.5 q72 0 136 43 l33 -60 q-87 -56 -180 -56 q-112 0 -184 75 ZM141 315 l291 0 q0 82 -35.5 125.5 q-35.5 43.5 -99.5 43.5 q-60 0 -103 -44 q-45 -47 -53 -125 Z" /><glyph glyph-name="" unicode="f" d="M33 469 l0 69 l74 5 l0 87 q0 85 39 131 q40 48 119 48 q48 0 91 -18 l-20 -69 q-31 14 -61 14 q-77 0 -77 -107 l0 -86 l115 0 l0 -74 l-115 0 l0 -469 l-91 0 l0 469 l-74 0 Z" /><glyph glyph-name="" unicode="g" d="M113 -212 q-63 39 -63 108 q0 71 81 123 l0 4 q-50 29 -50 89 q0 57 61 101 l0 4 q-30 24 -49 60 q-22 41 -22 86 q0 87 61 142 q58 52 143 52 q38 0 76 -14 l189 0 l0 -70 l-111 0 q44 -42 44 -112 q0 -85 -58 -138 q-55 -51 -140 -51 q-43 0 -81 19 q-35 -30 -35 -65 q0 -59 95 -59 l106 0 q189 0 189 -129 q0 -78 -74 -132 q-78 -56 -200 -56 q-102 0 -162 38 ZM159 363 q0 -58 34 -94 q33 -35 81.5 -35 q48.5 0 81.5 35 q34 36 34 94 q0 58 -33 93 q-33 34 -82 34 q-50 0 -82 -33 q-34 -36 -34 -94 ZM130 -92 q0 -44 42 -70 q42 -26 116 -26 q75 0 126 35 q47 32 47 77 q0 36 -28 52 q-27 15 -83 15 l-94 0 q-34 0 -70 9 q-56 -40 -56 -92 Z" /><glyph glyph-name="" unicode="h" d="M92 0 l0 796 l91 0 l0 -218 l-3 -112 q91 91 180 91 q166 0 166 -213 l0 -344 l-91 0 l0 332 q0 76 -24.5 110.5 q-24.5 34.5 -78.5 34.5 q-40 0 -75 -21 q-29 -17 -74 -62 l0 -394 l-91 0 Z" /><glyph glyph-name="" unicode="i" d="M92 0 l0 543 l91 0 l0 -543 l-91 0 ZM93 672 q-18 17 -18 42 q0 27 17.5 43 q17.5 16 45.5 16 q28 0 45.5 -16 q17.5 -16 17.5 -43 q0 -25 -18 -42 q-18 -17 -45 -17 q-27 0 -45 17 Z" /><glyph glyph-name="" unicode="k" d="M92 0 l0 796 l90 0 l0 -540 l2 0 l233 287 l101 0 l-182 -218 l206 -325 l-99 0 l-159 262 l-102 -119 l0 -143 l-90 0 Z" /><glyph glyph-name="" unicode="l" d="M188 -13 q-96 0 -96 121 l0 688 l91 0 l0 -694 q0 -39 26 -39 q9 0 19 2 l13 -70 q-21 -8 -53 -8 Z" /><glyph glyph-name="" unicode="m" d="M92 0 l0 543 l75 0 l8 -79 l3 0 q84 93 169 93 q114 0 150 -104 q95 104 179 104 q165 0 165 -213 l0 -344 l-91 0 l0 332 q0 76 -24.5 110.5 q-24.5 34.5 -76.5 34.5 q-61 0 -137 -83 l0 -394 l-91 0 l0 332 q0 76 -24.5 110.5 q-24.5 34.5 -76.5 34.5 q-63 0 -137 -83 l0 -394 l-91 0 Z" /><glyph glyph-name="" unicode="n" d="M92 0 l0 543 l75 0 l8 -78 l3 0 q45 44 83 65 q48 27 99 27 q166 0 166 -213 l0 -344 l-91 0 l0 332 q0 76 -24.5 110.5 q-24.5 34.5 -78.5 34.5 q-40 0 -75 -21 q-29 -17 -74 -62 l0 -394 l-91 0 Z" /><glyph glyph-name="" unicode="o" d="M127 62 q-76 79 -76 209.5 q0 130.5 76 210.5 q71 75 176 75 q105 0 176 -75 q76 -80 76 -210.5 q0 -130.5 -76 -209.5 q-71 -75 -176 -75 q-105 0 -176 75 ZM146 271 q0 -94 43 -151 q43 -57 114 -57 q71 0 114.5 57 q43.5 57 43.5 151 q0 94 -43.5 152 q-43.5 58 -114.5 58 q-70 0 -113.5 -58 q-43.5 -58 -43.5 -152 Z" /><glyph glyph-name="" unicode="p" d="M92 -229 l0 772 l75 0 l8 -62 l3 0 q93 76 173 76 q103 0 161 -76 q55 -73 55 -201 q0 -134 -71 -216 q-67 -77 -165 -77 q-73 0 -150 63 l2 -95 l0 -184 l-91 0 ZM183 120 q67 -57 133 -57 q69 0 112 57 q44 60 44 159 q0 201 -143 201 q-65 0 -146 -75 l0 -285 Z" /><glyph glyph-name="" unicode="r" d="M92 0 l0 543 l75 0 l8 -99 l3 0 q29 53 68 82 q41 31 86 31 q35 0 58 -12 l-17 -80 q-23 9 -53 9 q-38 0 -72 -28 q-40 -32 -65 -97 l0 -349 l-91 0 Z" /><glyph glyph-name="" unicode="s" d="M31 62 l45 60 q79 -64 161 -64 q52 0 81 25 q26 23 26 60 q0 37 -39 64 q-24 16 -85 39 q-75 28 -109 55 q-53 41 -53 102 q0 67 49 109 q52 45 138 45 q90 0 169 -61 l-44 -59 q-65 48 -125 48 q-48 0 -75 -23 q-24 -21 -24 -54.5 q0 -33.5 33 -55.5 q21 -14 77 -35 q7 -3 11 -4 l1 -1 q80 -30 112 -55 q52 -41 52 -109 q0 -69 -51 -113 q-54 -48 -147 -48 q-56 0 -111 21 q-51 20 -92 54 Z" /><glyph glyph-name="" unicode="t" d="M27 469 l0 69 l85 5 l11 152 l76 0 l0 -152 l147 0 l0 -74 l-147 0 l0 -303 q0 -53 18 -78 q20 -27 66 -27 q26 0 62 14 l18 -68 q-62 -20 -100 -20 q-155 0 -155 181 l0 301 l-81 0 Z" /><glyph glyph-name="" unicode="u" d="M250 -13 q-165 0 -165 212 l0 344 l91 0 l0 -333 q0 -76 24 -110 q24 -34 78 -34 q41 0 75 22 q32 20 72 70 l0 385 l91 0 l0 -543 l-76 0 l-7 85 l-3 0 q-41 -48 -81 -71 q-46 -27 -99 -27 Z" /><glyph glyph-name="" unicode="v" d="M13 543 l95 0 l102 -309 q6 -20 19 -60 q21 -68 32 -100 l4 0 q5 15 14 45 q25 77 36 115 l103 309 l90 0 l-193 -543 l-106 0 l-196 543 Z" /><glyph glyph-name="" unicode="w" d="M27 543 l93 0 l81 -314 q3 -16 10 -48 q15 -69 22 -104 l5 0 q3 11 8 33 q18 79 29 119 l84 314 l89 0 l85 -314 q4 -17 13 -52 q16 -66 25 -100 l4 0 q6 27 18 81 q10 47 16 71 l80 314 l86 0 l-146 -543 l-110 0 l-79 293 q-9 34 -25 103 q-8 35 -12 53 l-5 0 q-1 -2 -2 -7 q-22 -101 -35 -151 l-76 -291 l-107 0 l-151 543 Z" /><glyph glyph-name="" unicode="x" d="M15 0 l179 283 l-165 260 l98 0 l73 -120 q11 -20 36 -60 q12 -20 18 -30 l4 0 q17 30 49 90 l67 120 l95 0 l-165 -269 l179 -274 l-100 0 l-80 127 q-25 46 -58 97 l-5 0 q-13 -21 -38 -65 q-12 -21 -18 -32 l-73 -127 l-96 0 Z" /><glyph glyph-name="" unicode="y" d="M13 543 l95 0 l111 -302 q2 -7 7 -20 q30 -90 45 -132 l5 0 q6 21 19 64 q18 60 27 88 l97 302 l89 0 l-205 -588 q-32 -89 -75 -135 q-52 -54 -127 -54 q-37 0 -64 11 l18 73 q25 -9 41 -9 q85 0 123 117 l12 41 l-218 544 Z" /><glyph glyph-name="" unicode="z" d="M35 0 l0 49 l286 420 l-255 0 l0 74 l370 0 l0 -49 l-286 -420 l296 0 l0 -74 l-411 0 Z" /><glyph glyph-name="" unicode="&#x2014;" d="M46 249 l0 64 l802 0 l0 -64 l-802 0 Z" /><glyph glyph-name="" unicode="&#x3002;" d="M87 -16 q-45 45 -45 108 q0 63 45 107.5 q45 44.5 107 44.5 q64 0 108.5 -44.5 q44.5 -44.5 44.5 -107.5 q0 -63 -44.5 -108 q-44.5 -45 -108.5 -45 q-62 0 -107 45 ZM93 92 q0 -42 30 -72 q30 -30 71 -30 q43 0 72 29.5 q29 29.5 29 72.5 q0 42 -29.5 71.5 q-29.5 29.5 -71.5 29.5 q-41 0 -71 -30 q-30 -30 -30 -71 Z" /><glyph glyph-name="" unicode="&#x2f00;&#x4e00;" d="M48 349 l0 81 l908 0 l0 -81 l-908 0 Z" /><glyph glyph-name="" unicode="&#x4e01;" d="M64 669 l0 76 l872 0 l0 -76 l-365 0 l0 -625 q0 -44 -13.5 -65.5 q-13.5 -21.5 -45.5 -31.5 q-30 -10 -89 -13 q-43 -2 -143 -2 q-12 49 -36 84 q81 -3 158 -3 q36 0 52 1 q18 1 25.5 7.5 q7.5 6.5 7.5 23.5 l0 624 l-423 0 Z" /><glyph glyph-name="" unicode="&#x4e0a;" d="M55 -29 l0 74 l373 0 l0 776 l78 0 l0 -306 l372 0 l0 -74 l-372 0 l0 -396 l440 0 l0 -74 l-891 0 Z" /><glyph glyph-name="" unicode="&#x4e0b;" d="M59 689 l0 74 l883 0 l0 -74 l-422 0 l0 -178 l13 15 q92 -44 193 -102 q104 -61 162 -105 l-52 -67 q-104 85 -316 199 l0 -526 l-79 0 l0 764 l-382 0 Z" /><glyph glyph-name="" unicode="&#x4e0d;&#xf967;" d="M48 256 q145 73 270 191 q121 114 197 245 l-442 0 l0 74 l854 0 l0 -74 l-317 0 q-24 -41 -71 -110 l0 -656 l-79 0 l0 556 q-164 -187 -362 -291 q-14 24 -50 65 ZM559 477 l55 48 q95 -61 187 -131 q102 -78 154 -132 l-59 -57 q-52 56 -151 135 q-96 77 -186 137 Z" /><glyph glyph-name="" unicode="&#x4e0e;" d="M57 190 l0 72 l632 0 q5 37 15 124 q1 14 2 21 l-416 0 q-3 -13 -9 -36 q-3 -11 -4 -16 l-77 8 q58 203 105 475 l76 -7 q-17 -87 -27 -136 l487 0 l0 -71 l-501 0 q-10 -48 -32 -141 q-1 -5 -2 -8 l480 0 q-1 -17 -2 -35 q0 -3 -1 -8 q-12 -121 -19 -170 l181 0 l0 -72 l-191 0 q-28 -184 -74 -230 q-18 -18 -39 -26 q-18 -7 -50 -9 q-17 -1 -44 -1 q-63 0 -134 5 q-4 42 -27 73 q88 -8 179 -8 q37 0 52 13 q37 32 62 183 l-622 0 Z" /><glyph glyph-name="" unicode="&#x4e13;" d="M60 464 l0 72 l275 0 q22 66 38 118 l-233 0 l0 71 l254 0 q1 4 4 12 q19 67 26 98 l79 0 q-16 -58 -33 -110 l383 0 l0 -71 l-403 0 q-11 -32 -30 -96 q-5 -15 -7 -22 l512 0 l0 -72 l-535 0 q-3 -10 -10 -29 q-18 -56 -27 -81 l431 0 l13 4 l56 -34 q-114 -118 -265 -260 q110 -46 163 -78 l-45 -64 q-72 44 -202 99 q-129 53 -245 87 l42 54 q90 -25 213 -70 q126 119 197 192 l-464 0 q23 57 65 180 l-252 0 Z" /><glyph glyph-name="" unicode="&#x4e14;" d="M287 39 l435 0 l0 176 l-435 0 l0 -176 ZM287 534 l435 0 l0 172 l-435 0 l0 -172 ZM287 287 l435 0 l0 177 l-435 0 l0 -177 ZM57 -34 l0 73 l157 0 l0 739 l584 0 l0 -739 l146 0 l0 -73 l-887 0 Z" /><glyph glyph-name="" unicode="&#x4e19;" d="M71 696 l0 73 l858 0 l0 -73 l-394 0 l0 -145 l0 -3 l359 0 l0 -526 q0 -36 -9 -54 q-10 -19 -36 -28 q-37 -13 -182 -13 q-7 38 -27 74 q47 -2 97 -2 q40 0 60 1 q14 1 19 5.5 q5 4.5 5 16.5 l0 455 l-289 0 q-5 -40 -15 -80 q188 -138 269 -228 l-53 -56 q-76 88 -239 216 q-63 -144 -237 -236 q-19 29 -55 57 q131 63 193 158 q47 71 58 169 l-271 0 l0 -553 l-74 0 l0 624 l348 0 l0 4 l0 144 l-385 0 Z" /><glyph glyph-name="" unicode="&#x4e24;" d="M407 558 l181 0 l0 137 l-181 0 l0 -137 ZM63 695 l0 72 l875 0 l0 -72 l-277 0 l0 -137 l236 0 l0 -540 q0 -36 -9 -54 q-10 -19 -36 -28 q-37 -13 -184 -13 q-8 42 -27 75 q52 -3 108 -3 q33 0 50 1 q14 1 19.5 6 q5.5 5 5.5 18 l0 468 l-164 0 q-4 -55 -10 -99 q117 -134 162 -215 l-45 -57 q-43 79 -135 191 q-37 -144 -136 -243 q-24 33 -53 52 q133 124 144 371 l-181 0 q-4 -57 -10 -102 q75 -90 103 -142 l-44 -59 q-26 52 -78 118 q-37 -141 -135 -238 q-20 30 -51 52 q131 124 142 371 l-155 0 l0 -565 l-73 0 l0 635 l229 0 l0 137 l-271 0 Z" /><glyph glyph-name="" unicode="&#x4e25;" d="M431 455 l135 0 l0 260 l-135 0 l0 -260 ZM33 -26 q83 107 83 318 l0 163 l242 0 l0 260 l-250 0 l0 65 l794 0 l0 -65 l-263 0 l0 -260 l294 0 l0 -66 l-744 0 l0 -98 q0 -242 -99 -368 q-9 11 -28 28 q-19 17 -29 23 ZM149 661 l63 23 q30 -42 54.5 -93 q24.5 -51 34.5 -90 l-67 -24 q-9 39 -33 90.5 q-24 51.5 -52 93.5 ZM683 497 q61 93 97 190 l76 -25 q-67 -122 -113 -186 l-60 21 Z" /><glyph glyph-name="" unicode="&#x4e2a;" d="M22 430 q132 74 254 190 q117 111 177 214 l77 0 q80 -115 205 -222 q124 -107 248 -169 q-26 -26 -51 -67 q-123 72 -244 177 q-124 108 -192 204 q-63 -97 -178 -202 q-119 -108 -248 -184 q-23 36 -48 59 ZM458 -76 l0 585 l77 0 l0 -585 l-77 0 Z" /><glyph glyph-name="" unicode="&#x4e2d;" d="M536 321 l287 0 l0 265 l-287 0 l0 -265 ZM173 321 l286 0 l0 265 l-286 0 l0 -265 ZM100 186 l0 473 l359 0 l0 178 l77 0 l0 -178 l363 0 l0 -468 l-76 0 l0 57 l-287 0 l0 -324 l-77 0 l0 324 l-286 0 l0 -62 l-73 0 Z" /><glyph glyph-name="" unicode="&#x4e3a;" d="M165 780 l64 28 q70 -77 108 -146 l-68 -33 q-31 67 -104 151 ZM58 -9 q296 193 342 532 l-314 0 l0 74 l322 0 q4 56 4 120 l0 117 l74 0 l0 -118 q0 -56 -3 -119 l415 0 q0 -19 -1 -39 q-12 -307 -25 -423 q-15 -127 -43 -161 q-30 -35 -83 -39 q-20 -2 -52 -2 q-50 0 -106 4 q-4 40 -26 77 q66 -7 155 -7 q29 0 43 15 q22 22 36 135 q12 111 23 366 l-343 0 q-47 -378 -360 -586 q-20 30 -58 54 ZM499 371 l61 30 q97 -106 139 -190 l-65 -36 q-41 86 -135 196 Z" /><glyph glyph-name="" unicode="&#x4e3b;" d="M60 -44 l0 73 l400 0 l0 245 l-308 0 l0 72 l308 0 l0 219 l-354 0 l0 73 l439 0 q-64 75 -170 153 l60 42 q122 -88 183 -161 l-47 -34 l323 0 l0 -73 l-355 0 l0 -219 l314 0 l0 -72 l-314 0 l0 -245 l405 0 l0 -73 l-884 0 Z" /><glyph glyph-name="" unicode="&#x4e45;" d="M38 360 q98 79 178 206 q75 122 123 270 l78 -18 q-23 -71 -56 -143 l255 0 l14 4 l53 -24 q-33 -135 -91 -255 q52 -138 148 -246 q99 -112 223 -164 q-26 -20 -53 -65 q-116 55 -211 160 q-90 99 -152 234 q-163 -271 -441 -398 q-9 15 -26.5 35.5 q-17.5 20.5 -30.5 29.5 q191 81 326 230 q147 161 211 385 l-261 0 q-97 -184 -221 -295 q-28 28 -66 54 Z" /><glyph glyph-name="" unicode="&#x4e49;" d="M388 660 l53 37 q111 -100 156 -177 l-56 -41 q-21 37 -66 89 q-43 51 -87 92 ZM64 -12 q244 73 393 207 q-175 197 -269 529 l74 18 q79 -304 251 -491 q164 180 242 510 l76 -17 q-86 -352 -264 -547 q156 -144 387 -206 q-29 -25 -51 -66 q-233 67 -392 217 q-148 -137 -396 -221 q-17 31 -51 67 Z" /><glyph glyph-name="" unicode="&#x4e4b;" d="M35 -32 q52 64 105 161 q50 93 80 176 l72 -29 q-18 -41 -31 -69 q23 -50 60 -87 q125 82 254 209 q125 122 206 239 l-680 0 l0 71 l360 0 l0 196 l74 0 l0 -196 l295 0 l16 5 l56 -35 q-88 -141 -232 -288.5 q-144 -147.5 -290 -246.5 q105 -61 323 -61 q211 0 256 1 q-20 -34 -28 -73 l-232 0 q-180 0 -283 37 q-123 43 -191 154 q-62 -122 -119 -207 l-71 43 Z" /><glyph glyph-name="" unicode="&#x4e50;" d="M43 34 q53 48 105 113 q55 68 90 132 l72 -24 q-89 -151 -207 -269 q-22 22 -60 48 ZM107 421 q16 6 31 64 q10 36 21 106 q14 94 15 169 q455 12 655 65 l43 -65 q-112 -28 -291 -45 q-160 -16 -334 -20 q-14 -142 -45 -256 l281 0 l0 199 l75 0 l0 -199 l364 0 l0 -74 l-364 0 l0 -345 q0 -35 -10 -53.5 q-10 -18.5 -33 -26.5 q-35 -14 -135 -14 q-15 0 -34 0 q-8 39 -26 74 q52 -2 99 -2 q29 0 40 1 q13 1 18.5 5.5 q5.5 4.5 5.5 16.5 l0 344 l-234 0 q-103 0 -117 -13 q-7 29 -25 69 ZM691 248 l64 30 q140 -152 202 -253 l-69 -36 q-29 50 -86 125 q-56 74 -111 134 Z" /><glyph glyph-name="" unicode="&#x2f04;&#x4e59;" d="M146 1 q-53 35 -53 101 q0 45 26 88 q36 61 145 166 q125 121 369 323 l-534 0 l0 75 l639 0 l18 5 l52 -37 q-5 -7 -15 -11 q-276 -225 -422 -357 q-125 -113 -168 -172 q-31 -42 -31 -74 q0 -69 127 -69 l464 0 q54 0 72.5 39.5 q18.5 39.5 23.5 166.5 q31 -18 76 -28 q-7 -104 -25 -157 q-18 -55 -55 -76 q-34 -20 -99 -20 l-449 0 q-107 0 -161 37 Z" /><glyph glyph-name="" unicode="&#x4e5f;" d="M34 429 l183 56 l0 284 l72 0 l0 -262 l207 64 l0 264 l73 0 l0 -242 l232 72 l6 5 l15 11 l52 -23 l-4 -14 q-5 -290 -32 -366 q-25 -67 -80 -75 q-33 -5 -91 -5 q-13 0 -26 0 q-5 45 -19 69 q35 -3 100 -3 q19 0 29 9 q14 10 23 38 q20 57 23 282 l-228 -71 l0 -386 l-73 0 l0 363 l-207 -64 l0 -336 q0 -53 22.5 -70 q22.5 -17 94.5 -17 l352 0 q68 0 91 34 q20 32 30 142 q27 -19 69 -30 q-12 -125 -46 -167 q-38 -47 -143 -47 l-350 0 q-112 0 -151 32 q-41 32 -41 125 l0 312 l-163 -51 l-20 67 Z" /><glyph glyph-name="" unicode="&#x4e71;" d="M165 53 l285 0 l0 204 l-285 0 l0 -204 ZM43 491 l0 68 l227 0 l0 151 q-88 -14 -190 -24 q-6 33 -21 60 q294 33 427 82 l57 -56 q-79 -28 -200 -49 l0 -164 l220 0 l0 -68 l-220 0 l0 -167 l180 0 l0 -375 l-73 0 l0 37 l-285 0 l0 -43 l-70 0 l0 381 l175 0 l0 167 l-227 0 ZM632.5 -35.5 q-22.5 26.5 -22.5 101.5 l0 759 l73 0 l0 -760 q0 -37 8 -48 q8 -11 35 -11 l117 0 q27 0 36 38 q8 33 12 149 q29 -24 67 -33 q-6 -129 -26 -173 q-23 -49 -83 -49 l-131 0 q-63 0 -85.5 26.5 Z" /><glyph glyph-name="" unicode="&#x4e86;&#xf9ba;" d="M101 686 l0 73 l711 0 l16 5 l58 -42 q-66 -78 -160.5 -157.5 q-94.5 -79.5 -185.5 -131.5 l0 -413 q0 -38 -12 -57 q-12 -19 -40 -28 q-26 -7 -79 -10 q-34 -1 -127 -1 q-4 29 -30 74 q71 -3 138 -3 q31 0 44 1 q17 1 23 6.5 q6 5.5 6 18.5 l0 477 l49 0 q122 74 233 188 l-644 0 Z" /><glyph glyph-name="" unicode="&#x4e88;" d="M57 394 l0 71 l518 0 q-127 64 -288 133 l38 55 q97 -39 181 -76 q105 60 190 137 l-545 0 l0 69 l617 0 l17 4 l54 -41 q-109 -109 -260 -203 q61 -27 108 -52 l-17 -26 l206 0 l15 6 l59 -28 q-100 -164 -179 -243 l-60 38 q61 66 117 156 l-284 0 l0 -377 q0 -35 -10.5 -52.5 q-10.5 -17.5 -36.5 -25.5 q-38 -12 -180 -12 q-6 26 -28 72 q46 -2 96 -2 q40 0 60 1 q14 1 19 5 q5 4 5 15 l0 376 l-412 0 Z" /><glyph glyph-name="" unicode="&#x4e8b;" d="M534 132 l240 0 l0 75 l-240 0 l0 -75 ZM534 266 l240 0 l0 70 l-240 0 l0 -70 ZM245 513 l215 0 l0 72 l-215 0 l0 -72 ZM534 513 l224 0 l0 72 l-224 0 l0 -72 ZM51 207 l0 59 l409 0 l0 70 l-314 0 l0 55 l314 0 l0 70 l-286 0 l0 176 l286 0 l0 58 l-390 0 l0 61 l390 0 l0 80 l74 0 l0 -80 l398 0 l0 -61 l-398 0 l0 -58 l298 0 l0 -176 l-298 0 l0 -70 l314 0 l0 -125 l103 0 l0 -59 l-103 0 l0 -177 l-74 0 l0 45 l-240 0 l0 -69 q0 -33 -11 -50 q-9 -15 -33 -24 q-34 -12 -166 -12 q-6 29 -26 63 q38 -1 85 -1 q15 0 38 0 q11 0 14 0 q14 1 19.5 6 q5.5 5 5.5 18 l0 69 l-323 0 l0 57 l323 0 l0 75 l-409 0 Z" /><glyph glyph-name="" unicode="&#x4e8e;" d="M58 367 l0 73 l413 0 l0 252 l-344 0 l0 73 l746 0 l0 -73 l-325 0 l0 -252 l395 0 l0 -73 l-395 0 l0 -335 q0 -41 -12 -61 q-12 -20 -40 -29 q-40 -14 -203 -14 q-9 36 -32 77 q68 -2 128 -2 q38 0 53 1 q16 1 22.5 7 q6.5 6 6.5 21 l0 335 l-413 0 Z" /><glyph glyph-name="" unicode="&#x4e9b;" d="M573.5 356 q-24.5 23 -24.5 89 l0 391 l74 0 l0 -198 q146 52 222 101 l59 -57 q-103 -56 -281 -110 l0 -127 q0 -26 9.5 -33.5 q9.5 -7.5 43.5 -7.5 l156 0 q30 0 38.5 23 q8.5 23 12.5 107 q25 -19 69 -31 q-8 -101 -30.5 -135.5 q-22.5 -34.5 -83.5 -34.5 l-170 0 q-70 0 -94.5 23 ZM171 167 l0 71 l670 0 l0 -71 l-670 0 ZM45 376 l66 7 l0 344 l69 0 l0 -336 l88 11 l0 434 l73 0 l0 -171 l155 0 l0 -68 l-155 0 l0 -186 l162 18 l1 -67 q-266 -36 -450 -58 l-9 72 ZM60 -52 l0 73 l881 0 l0 -73 l-881 0 Z" /><glyph glyph-name="" unicode="&#x4ea4;" d="M65 635 l0 72 l396 0 l0 131 l74 0 l0 -131 l401 0 l0 -72 l-871 0 ZM618 563 l59 45 q76 -51 148 -109 q80 -65 120 -112 l-65 -51 q-38 47 -115 113 q-73 62 -147 114 ZM57 385 q76 40 145 98 q73 60 118 121 l75 -29 q-49 -68 -128 -138 q-72 -63 -149 -111 q-38 43 -61 59 ZM43 -10 q255 54 402 168 q-98 104 -156 248 l71 22 q49 -125 142 -220 q94 94 142 225 l77 -22 q-57 -148 -163 -253 q155 -123 403 -164 q-26 -25 -49 -70 q-252 48 -412 182 q-153 -121 -410 -186 q-13 34 -47 70 Z" /><glyph glyph-name="" unicode="&#x2f08;&#x4eba;" d="M37 -10 q248 127 347 411 q54 155 64 382 q1 16 1 23 l82 0 q-1 -7 -1.5 -22.5 q-0.5 -15.5 -0.5 -23.5 q13 -198 82 -368 q115 -287 357 -398 q-37 -28 -55 -61 q-175 83 -287 260 q-85 135 -129 318 q-90 -410 -400 -578 q-22 31 -60 57 Z" /><glyph glyph-name="" unicode="&#x4ec5;" d="M29 424 q80 73 151 180.5 q71 107.5 116 225.5 l73 -23 q-47 -115 -107 -214 l0 -668 l-73 0 l0 558 q-56 -78 -114 -133 q-23 47 -46 74 ZM307 -15 q164 66 286 206 q-118 171 -181 444 l70 15 q55 -240 160 -399 q128 169 183 406 l-454 0 l0 70 l477 0 l13 4 l49 -19 q-55 -311 -221 -523 q113 -139 280 -202 q-31 -26 -50 -63 q-164 68 -280 206 q-121 -133 -285 -206 q-21 39 -47 61 Z" /><glyph glyph-name="" unicode="&#x4ecb;" d="M40 443 q129 67 244 178 q111 107 169 216 l77 0 q75 -120 196 -225 q116 -101 238 -156 q-29 -29 -49 -66 q-122 64 -236 165 q-117 103 -183 207 q-59 -101 -170 -204 q-113 -105 -240 -175 q-13 29 -46 60 ZM636 -75 l0 562 l77 0 l0 -562 l-77 0 ZM78 -24 q126 71 172 178 q32 74 32 191 l0 138 l76 0 l0 -139 q0 -133 -36 -219 q-51 -123 -185 -202 q-22 30 -59 53 Z" /><glyph glyph-name="" unicode="&#x4ecd;" d="M23 440 q76 72 144.5 176.5 q68.5 104.5 111.5 217.5 l69 -21 q-43 -108 -102 -206 l0 -681 l-70 0 l0 574 q-54 -75 -111 -132 q-19 44 -42 72 ZM271 -29 q115 108 159 328 q29 145 33 398 l-115 0 l0 69 l450 0 q-11 -154 -23 -266 l172 0 q0 -17 -1 -35 q-14 -258 -28 -361 q-15 -111 -42 -140 q-14 -18 -32 -25 q-15 -7 -43 -10 q-21 -1 -51 -1 q-47 0 -98 3 q-2 42 -23 71 q74 -6 142 -6 q30 0 43 14 q21 21 34 115 q14 97 24 306 l-104 0 q-1 -9 -3 -27 q-3 -27 -5 -39 l-71 6 q19 134 33 326 l-184 0 q-6 -268 -39 -424 q-49 -232 -171 -352 q-23 29 -57 50 Z" /><glyph glyph-name="" unicode="&#x4ece;" d="M40 -26 q115 119 168 341 q42 178 56 488 l80 -3 q-12 -219 -32 -356 q123 -137 175 -237 l-56 -63 q-45 89 -135 203 q-54 -274 -184 -424 q-24 21 -72 51 ZM328 -18 q128 89 200 252 q56 127 78 303 q12 99 15 259 q0 3 0 5 l78 0 q-2 -83 -7 -161 q26 -215 78 -359 q70 -195 195 -286 q-13 -11 -31 -33 q-18 -22 -27 -38 q-174 144 -246 476 q-66 -325 -266 -474 q-31 34 -67 56 Z" /><glyph glyph-name="" unicode="&#x4ed4;" d="M23 424 q82 73 153.5 180.5 q71.5 107.5 118.5 225.5 l73 -22 q-43 -108 -106 -210 l0 -672 l-74 0 l0 562 q-56 -76 -119 -138 q-16 37 -46 74 ZM303 334 l0 72 l299 0 l0 146 l41 0 q88 62 163 145 l-420 0 l0 70 l481 0 l14 3 l50 -34 q-47 -63 -119 -129 q-68 -63 -137 -110 l0 -91 l289 0 l0 -72 l-289 0 l0 -314 q0 -37 -10 -55.5 q-10 -18.5 -36 -27.5 q-38 -13 -189 -13 q-8 40 -26 75 q53 -2 117 -2 q13 0 33 0 q9 0 12 0 q15 1 20.5 5.5 q5.5 4.5 5.5 17.5 l0 314 l-299 0 Z" /><glyph glyph-name="" unicode="&#x4ed6;" d="M22 436 q74 72 139.5 177.5 q65.5 105.5 107.5 219.5 l68 -21 q-42 -108 -101 -211 l0 -676 l-73 0 l0 562 q-46 -65 -99 -121 q-24 48 -42 70 ZM273 426 l126 49 l0 263 l73 0 l0 -234 l146 57 l0 274 l71 0 l0 -247 l156 60 l9 8 l13 11 l51 -21 l-3 -13 q0 -310 -12 -366 q-10 -60 -60 -73 q-28 -7 -81 -7 q-10 0 -20 0 q-4 42 -18 70 q27 -2 76 -2 q15 0 22 5 q8 7 12 25 q9 32 11 288 l-156 -61 l0 -367 l-71 0 l0 339 l-146 -58 l0 -352 q0 -43 15.5 -56.5 q15.5 -13.5 67.5 -13.5 l256 0 q45 0 60 28 q13 26 20 117 q31 -22 69 -31 q-10 -107 -37 -142 q-29 -39 -109 -39 l-261 0 q-89 0 -121.5 28 q-32.5 28 -32.5 109 l0 325 l-97 -38 l-29 65 Z" /><glyph glyph-name="" unicode="&#x4ed8;" d="M42 426 q76 73 143.5 180 q67.5 107 110.5 224 l73 -23 q-48 -121 -106 -218 l0 -663 l-74 0 l0 548 q-45 -64 -101 -121 q-25 48 -46 73 ZM346 541 l0 74 l403 0 l0 210 l75 0 l0 -210 l126 0 l0 -74 l-126 0 l0 -516 q0 -41 -12.5 -61.5 q-12.5 -20.5 -40.5 -28.5 q-40 -12 -160 -12 q-22 0 -54 0 q-7 33 -29 73 q73 -3 143 -3 q33 0 47 1 q17 2 24 8 q7 6 7 23 l0 516 l-403 0 ZM409 406 l64 30 q103 -153 150 -242 l-69 -37 q-43 89 -145 249 Z" /><glyph glyph-name="" unicode="&#x4ee3;" d="M712 779 l54 36 q108 -85 165 -160 l-58 -40 q-53 74 -161 164 ZM25 419 q86 73 163 181 q78 108 126 225 l70 -22 q-39 -94 -107 -202 l0 -676 l-75 0 l0 569 q-63 -82 -134 -147 q-17 38 -43 72 ZM325 495 l242 30 q-14 160 -19 296 l74 0 q5 -161 19 -286 l299 38 l10 -70 l-302 -38 q56 -440 207 -454 q39 0 54 172 q22 -20 62 -39 q-15 -119 -44 -172 q-26 -48 -66 -48 q-2 0 -4 0 q-117 9 -188 153 q-64 129 -94 378 l-240 -30 l-10 70 Z" /><glyph glyph-name="" unicode="&#x4ee5;" d="M366 680 l66 33 q49 -54 93 -121 q44 -66 65 -118 l-70 -38 q-20 52 -63.5 121 q-43.5 69 -90.5 123 ZM39 109 q62 24 138 56 l-17 618 l76 3 l15 -590 q36 15 109 46 q59 26 88 38 l17 -71 q-143 -65 -399 -177 l-27 77 ZM279 -15 q169 62 270 167 q98 102 152 262 q48 143 71 371 l81 -8 q-38 -338 -132 -518 q186 -188 246 -275 l-62 -57 q-61 91 -224 264 q-116 -175 -343 -270 q-22 33 -59 64 Z" /><glyph glyph-name="" unicode="&#x4eec;" d="M39 424 q116 149 189 407 l68 -19 q-28 -100 -76 -213 l0 -675 l-72 0 l0 530 q-33 -58 -69 -105 q-5 14 -17 38 q-14 25 -23 37 ZM340 -77 l0 713 l72 0 l0 -713 l-72 0 ZM381 805 l58 31 q84 -114 119 -191 l-61 -35 q-37 88 -116 195 ZM575 732 l0 68 l343 0 l0 -782 q0 -34 -9 -52 q-9 -18 -31 -27 q-32 -13 -159 -13 q-5 34 -24 71 q38 -2 79 -2 q33 0 49 1 q13 1 17.5 5.5 q4.5 4.5 4.5 17.5 l0 713 l-270 0 Z" /><glyph glyph-name="" unicode="&#x4ef6;" d="M36 436 q70 73 132 178.5 q62 105.5 102 218.5 l70 -22 q-46 -119 -99 -216 l0 -670 l-71 0 l0 555 q-37 -55 -92 -117 q-14 37 -42 73 ZM310 446 q83 115 123 341 l70 -15 q-14 -73 -33 -139 l133 0 l0 191 l74 0 l0 -191 l228 0 l0 -73 l-228 0 l0 -219 l271 0 l0 -73 l-271 0 l0 -345 l-74 0 l0 345 l-285 0 l0 73 l285 0 l0 219 l-157 0 q-33 -92 -72 -152 q-25 19 -64 38 Z" /><glyph glyph-name="" unicode="&#x4efb;" d="M25 431 q81 72 154 181 q71 107 117 224 l72 -22 q-47 -114 -106 -212 l0 -679 l-73 0 l0 569 q-57 -77 -118 -135 q-5 14 -19.5 37.5 q-14.5 23.5 -26.5 36.5 ZM305 340 l0 72 l295 0 l0 264 q-118 -21 -239 -35 q-4 22 -23 63 q349 45 523 108 l55 -62 q-102 -33 -242 -61 l0 -277 l282 0 l0 -72 l-282 0 l0 -307 l267 0 l0 -72 l-598 0 l0 72 l257 0 l0 307 l-295 0 Z" /><glyph glyph-name="" unicode="&#x4efd;" d="M20 436 q74 72 139.5 177.5 q65.5 105.5 107.5 219.5 l69 -21 q-42 -110 -103 -216 l0 -670 l-70 0 l0 561 q-47 -67 -101 -123 q-24 52 -42 72 ZM265 427 q58 55 107 140 q47 80 71 160 l72 -18 q-34 -93 -84 -177 q-55 -93 -118 -154 q-16 21 -48 49 ZM308 -20 q109 58 161 168 q41 87 52 225 l-137 0 l0 67 l462 0 q0 -17 -1 -35 q-6 -231 -14 -318 q-9 -95 -28 -119 q-22 -30 -63 -33 q-19 -2 -49 -2 q-31 0 -65 2 q-2 44 -21 73 q44 -4 100 -4 q22 0 32 12 q14 17 21 95 q8 80 12 262 l-175 0 q-16 -156 -64 -256 q-59 -125 -177 -193 q-24 38 -46 56 ZM504 742 l0 67 l271 0 q22 -115 73 -208 q53 -97 124 -146 q-31 -24 -56 -60 q-68 55 -121 148 q-51 91 -77 199 l-214 0 Z" /><glyph glyph-name="" unicode="&#x4f17;" d="M36 481 q128 61 244 161 q112 96 172 192 l80 0 q77 -106 198 -200 q116 -89 237 -141 q-21 -23 -50 -69 q-119 59 -234 149 q-121 95 -187 186 q-61 -90 -173 -183 q-115 -95 -240 -158 q-25 42 -47 63 ZM40 -27 q99 74 155 205 q50 118 71 295 l78 -8 q-12 -85 -25 -145 q125 -97 184 -171 l-56 -59 q-49 65 -148 152 q-62 -208 -192 -318 q-29 27 -67 49 ZM391 -27 q107 72 168 202 q56 120 78 298 l79 -9 q-6 -39 -17 -99 q30 -118 88 -208 q72 -112 175 -164 q-32 -29 -54 -68 q-157 92 -241 316 q-69 -208 -209 -318 q-26 24 -67 50 Z" /><glyph glyph-name="" unicode="&#x4f18;" d="M712 774 l50 39 q105 -77 151 -137 l-54 -42 q-42 62 -147 140 ZM32 422 q69 74 132 184 q61 107 103 224 l69 -20 q-32 -93 -89 -203 l0 -684 l-72 0 l0 560 q-44 -69 -99 -131 q-25 49 -44 70 ZM286 -23 q144 80 210 229 q53 122 66 324 l-249 0 l0 71 l252 0 q3 73 3 225 l73 0 q0 -128 -4 -225 l306 0 l0 -71 l-308 0 q0 -2 0 -5 q-4 -50 -7 -74 l39 0 l0 -392 q0 -25 8.5 -32.5 q8.5 -7.5 36.5 -7.5 l133 0 q27 0 35 27.5 q8 27.5 11 125.5 q28 -22 68 -31 q-6 -113 -27.5 -152 q-21.5 -39 -80.5 -39 l-147 0 q-65 0 -87.5 22 q-22.5 22 -22.5 85 l0 210 q-65 -237 -256 -345 q-19 31 -52 55 Z" /><glyph glyph-name="" unicode="&#x4f1a;" d="M92 269 l0 69 l822 0 l0 -69 l-469 0 q-65 -136 -118 -230 q222 7 405 15 q-69 79 -132 135 l63 34 q69 -59 134.5 -132 q65.5 -73 100.5 -129 l-67 -41 q-22 37 -46 67 q-383 -19 -675 -29 l-10 73 q6 0 20 0 q81 2 127 4 q66 121 108 233 l-263 0 ZM262 460 l0 68 l473 0 l0 -68 l-473 0 ZM40 482 q127 61 242 160 q114 97 172 193 l76 0 q77 -108 199 -202 q116 -90 237 -140 q-24 -25 -48 -66 q-119 58 -234 148 q-120 95 -188 189 q-62 -91 -173 -184 q-114 -95 -240 -157 q-16 33 -43 59 Z" /><glyph glyph-name="" unicode="&#x4f4e;" d="M20 436 q74 72 139.5 177.5 q65.5 105.5 107.5 219.5 l69 -21 q-42 -110 -103 -216 l0 -670 l-70 0 l0 561 q-47 -67 -101 -123 q-24 52 -42 72 ZM328 -50 l0 66 l424 0 l0 -66 l-424 0 ZM438 488 l212 0 q-10 96 -12 199 q-82 -14 -200 -28 l0 -171 ZM299 142 l67 11 l0 582 l49 -16 q291 35 436 85 l58 -57 q-82 -25 -197 -47 q1 -105 11 -212 l233 0 l0 -67 l-226 0 q23 -172 64 -279 q41 -107 87 -107 q16 0 24 32.5 q8 32.5 11 105.5 q24 -26 58 -39 q-7 -99 -30 -136 q-21 -36 -69 -36 q-81 0 -139 131 q-53 119 -79 328 l-219 0 l0 -256 q123 21 231 41 l3 -66 q-30 -6 -92 -18 q-190 -36 -265 -49 l-16 69 Z" /><glyph glyph-name="" unicode="&#x4f53;" d="M35 436 q65 72 124 178 q57 105 95 219 l69 -21 q-34 -102 -89 -211 l0 -676 l-71 0 l0 553 q-40 -62 -85 -115 q-21 44 -43 73 ZM261 139 q80 64 155 182 q72 113 119 243 l-235 0 l0 72 l280 0 l0 197 l72 0 l0 -197 l298 0 l0 -72 l-250 0 q45 -128 117 -240 q73 -116 153 -180 q-33 -24 -56 -59 q-77 70 -147 190 q-68 114 -115 248 l0 -347 l161 0 l0 -68 l-161 0 l0 -179 l-72 0 l0 179 l-163 0 l0 68 l163 0 l0 340 q-49 -133 -117 -245 q-71 -118 -148 -188 q-27 35 -54 56 Z" /><glyph glyph-name="" unicode="&#x4f55;" d="M42 442 q68 73 128.5 177.5 q60.5 104.5 98.5 216.5 l69 -22 q-40 -108 -89 -201 l0 -688 l-73 0 l0 566 q-39 -62 -93 -121 q-16 38 -41 72 ZM440 251 l172 0 l0 211 l-172 0 l0 -211 ZM369 116 l0 412 l312 0 l0 -343 l-241 0 l0 -69 l-71 0 ZM340 668 l0 72 l619 0 l0 -72 l-73 0 l0 -642 q0 -39 -11 -58.5 q-11 -19.5 -38 -28.5 q-43 -14 -200 -14 q-5 34 -27 76 q53 -2 109 -2 q44 0 66 1 q16 1 22 6 q6 5 6 20 l0 642 l-473 0 Z" /><glyph glyph-name="" unicode="&#x4f5c;" d="M40 436 q74 72 139.5 177 q65.5 105 107.5 220 l71 -23 q-37 -100 -102 -214 l0 -671 l-74 0 l0 556 q-44 -62 -99 -119 q-19 47 -43 74 ZM306 441 q67 69 125 172 q58 100 95 211 l71 -19 q-21 -60 -55 -135 l416 0 l0 -71 l-308 0 l0 -143 l285 0 l0 -69 l-285 0 l0 -151 l299 0 l0 -70 l-299 0 l0 -242 l-75 0 l0 675 l-69 0 q-66 -123 -142 -208 q-24 26 -58 50 Z" /><glyph glyph-name="" unicode="&#x4f60;" d="M20 436 q73 72 138.5 177 q65.5 105 108.5 220 l70 -21 q-43 -109 -103 -214 l0 -672 l-71 0 l0 561 q-40 -58 -101 -124 q-21 48 -42 73 ZM312 98 q90 109 137 313 l73 -14 q-52 -212 -146 -340 q-18 15 -64 41 ZM303 451 q53 67 97 170 q42 98 67 211 l73 -16 q-23 -87 -53 -171 l405 0 l12 3 l51 -12 q-21 -119 -44 -212 l-62 12 q1 7 4 22 q12 77 19 118 l-188 0 l0 -562 q0 -32 -8 -49.5 q-8 -17.5 -27 -26.5 q-31 -15 -132 -15 q-6 34 -26 75 q29 -1 64 -1 q12 0 29 0 q8 0 10 0 q17 0 17 17 l0 562 l-152 0 q-43 -102 -97 -172 q-28 26 -59 47 ZM757 397 l65 22 q43 -79 77.5 -172 q34.5 -93 47.5 -162 l-71 -24 q-12 68 -45.5 162.5 q-33.5 94.5 -73.5 173.5 Z" /><glyph glyph-name="" unicode="&#x4f7f;" d="M23 444 q76 71 144.5 176.5 q68.5 105.5 111.5 218.5 l70 -22 q-40 -99 -103 -208 l0 -690 l-71 0 l0 583 q-50 -70 -110 -130 q-17 42 -42 72 ZM420 349 l177 0 q1 15 1 45 l0 103 l-178 0 l0 -148 ZM670 349 l185 0 l0 148 l-184 0 l0 -103 q0 -30 -1 -45 ZM285 -19 q137 35 211 101 q-91 69 -145 163 l62 20 q44 -75 126 -133 q42 62 54 154 l-242 0 l0 274 l247 0 l0 98 l-276 0 l0 68 l276 0 l0 107 l73 0 l0 -107 l288 0 l0 -68 l-288 0 l0 -98 l255 0 l0 -274 l-260 0 q-13 -116 -66 -192 q144 -79 368 -106 q-25 -25 -44 -67 q-221 33 -368 121 q-80 -79 -226 -122 q-19 38 -45 61 Z" /><glyph glyph-name="" unicode="&#x4f9b;" d="M25 438 q73 71 139 177 q65 105 107 219 l70 -22 q-42 -108 -102 -214 l0 -673 l-73 0 l0 561 q-45 -66 -99 -121 q-20 43 -42 73 ZM305 -28 q52 40 99 94 q49 56 80 113 l71 -22 q-77 -134 -191 -231 q-31 31 -59 46 ZM710 143 l58 33 q51 -48 101.5 -108 q50.5 -60 76.5 -105 l-63 -41 q-24 46 -74 109 q-49 62 -99 112 ZM536 308 l195 0 l0 244 l-195 0 l0 -244 ZM311 235 l0 73 l153 0 l0 244 l-129 0 l0 72 l129 0 l0 201 l72 0 l0 -201 l195 0 l0 202 l72 0 l0 -202 l142 0 l0 -72 l-142 0 l0 -244 l154 0 l0 -73 l-646 0 Z" /><glyph glyph-name="" unicode="&#x4fbf;&#xf965;" d="M40 436 q66 73 124 178.5 q58 105.5 95 218.5 l70 -21 q-42 -120 -95 -221 l0 -666 l-71 0 l0 545 q-33 -51 -80 -107 q-18 40 -43 73 ZM426 310 l173 0 q1 17 1 53 l0 50 l-174 0 l0 -103 ZM426 468 l174 0 l0 103 l-174 0 l0 -103 ZM673 468 l163 0 l0 103 l-163 0 l0 -103 ZM671 310 l165 0 l0 103 l-163 0 l0 -50 q0 -36 -2 -53 ZM270 -19 q130 31 202 81 q-90 58 -143 141 l63 24 q48 -71 134 -120 q52 57 67 145 l-237 0 l0 377 l244 0 l0 83 l-270 0 l0 67 l613 0 l0 -67 l-270 0 l0 -83 l236 0 l0 -377 l-244 0 q-17 -106 -75 -177 q145 -61 376 -77 q-24 -26 -44 -69 q-234 22 -385 95 q-81 -64 -222 -104 q-23 39 -45 61 Z" /><glyph glyph-name="" unicode="&#x4fdd;" d="M26 440 q75 72 142 176 q68 106 110 218 l70 -21 q-47 -116 -102 -208 l0 -679 l-71 0 l0 570 q-47 -66 -107 -128 q-25 49 -42 72 ZM451 540 l371 0 l0 183 l-371 0 l0 -183 ZM278 26 q77 38 151.5 107 q74.5 69 124.5 149 l-247 0 l0 68 l290 0 l0 124 l-216 0 l0 316 l515 0 l0 -316 l-225 0 l0 -124 l280 0 l0 -68 l-237 0 q50 -80 120 -149 q72 -70 143 -109 q-28 -23 -53 -59 q-67 43 -134.5 116 q-67.5 73 -118.5 155 l0 -313 l-74 0 l0 310 q-53 -83 -123.5 -153.5 q-70.5 -70.5 -143.5 -112.5 q-29 40 -52 59 Z" /><glyph glyph-name="" unicode="&#x4fe1;" d="M406 728 l0 61 l458 0 l0 -61 l-458 0 ZM23 440 q76 72 144.5 176.5 q68.5 104.5 111.5 217.5 l69 -21 q-43 -108 -102 -206 l0 -680 l-70 0 l0 573 q-54 -75 -111 -132 q-19 44 -42 72 ZM455 32 l362 0 l0 147 l-362 0 l0 -147 ZM383 -76 l0 315 l508 0 l0 -312 l-74 0 l0 44 l-362 0 l0 -47 l-72 0 ZM394 316 l0 60 l486 0 l0 -60 l-486 0 ZM394 453 l0 61 l488 0 l0 -61 l-488 0 ZM312 590 l0 62 l646 0 l0 -62 l-646 0 Z" /><glyph glyph-name="" unicode="&#x4fee;" d="M21 425 q65 74 122 182 q56 107 92 224 l69 -19 q-33 -99 -77 -193 l0 -695 l-72 0 l0 560 q-45 -75 -95 -134 q-14 41 -39 75 ZM550 664 q43 -71 123 -130 q73 57 115 133 l-236 0 l-2 -3 ZM312 89 l0 629 l65 0 l0 -152 q58 49 108 121 q50 72 80 150 l67 -17 q-23 -55 -44 -92 l358 0 l0 -61 l-80 0 q-49 -97 -136 -170 q107 -63 248 -89 q-26 -30 -41 -60 q-149 33 -260 108 q-101 -70 -253 -117 q-19 33 -45 58 q140 36 242 100 q-61 49 -107 115 q-43 -56 -87 -95 q-18 18 -50 40 l0 -468 l-65 0 ZM467 134 q100 24 184 63 q92 43 140 93 l57 -23 q-109 -117 -342 -182 q-19 32 -39 49 ZM454 261 q72 21 135 52 q69 35 107 73 l57 -23 q-87 -90 -258 -145 q-26 31 -41 43 ZM413 -13 q159 24 278 70 q129 51 193 124 l64 -27 q-137 -163 -496 -226 q-15 33 -39 59 Z" /><glyph glyph-name="" unicode="&#x505a;" d="M22 428 q64 74 121 181 q57 107 93 222 l68 -19 q-30 -92 -80 -200 l0 -689 l-69 0 l0 562 q-41 -69 -94 -132 q-21 48 -39 75 ZM701 560 q23 -196 69 -316 q53 127 75 335 l-138 0 q-2 -7 -6 -19 ZM367 98 l160 0 l0 223 l-160 0 l0 -223 ZM275 575 l0 68 l138 0 l0 182 l71 0 l0 -182 l129 0 l0 -68 l-129 0 l0 -189 l107 0 q-14 19 -27 30 q91 139 131 420 l67 -11 q-17 -103 -38 -181 l233 0 l0 -65 l-46 0 q-31 -263 -106 -413 q65 -122 163 -184 q-34 -34 -46 -59 q-92 64 -154 178 q-71 -109 -182 -179 q-18 26 -47 51 q124 70 195 196 q-51 120 -75 280 q-22 -49 -48 -90 q-2 3 -8.5 11.5 q-6.5 8.5 -9.5 13.5 l0 -351 l-226 0 l0 -65 l-66 0 l0 418 l112 0 l0 189 l-138 0 Z" /><glyph glyph-name="" unicode="&#x50ac;" d="M367 594 l0 200 l68 0 l0 -136 l166 0 l0 170 l72 0 l0 -170 l177 0 l0 136 l70 0 l0 -200 l-553 0 ZM20 436 q74 72 139.5 177.5 q65.5 105.5 107.5 219.5 l69 -21 q-42 -110 -103 -216 l0 -670 l-70 0 l0 561 q-47 -67 -101 -123 q-24 52 -42 72 ZM461 31 l174 0 l0 90 l-174 0 l0 -90 ZM461 323 l174 0 l0 86 l-174 0 l0 -86 ZM461 178 l174 0 l0 88 l-174 0 l0 -88 ZM251 327 q58 47 109 117 q51 70 82 146 l72 -20 q-20 -46 -52 -101 l175 0 q28 63 41 116 l78 -19 q-8 -16 -25 -50 q-16 -32 -23 -47 l233 0 l0 -60 l-235 0 l0 -86 l203 0 l0 -57 l-203 0 l0 -88 l203 0 l0 -57 l-203 0 l0 -90 l245 0 l0 -60 l-490 0 l0 -44 l-72 0 l0 437 q-45 -55 -82 -88 q-30 33 -56 51 Z" /><glyph glyph-name="" unicode="&#x50cf;" d="M22 425 q64 75 121 183 q56 107 92 223 l69 -19 q-35 -104 -78 -195 l0 -693 l-71 0 l0 560 q-47 -79 -94 -134 q-15 40 -39 75 ZM406 473 l183 0 l0 113 l-183 0 l0 -113 ZM413 641 l201 0 q25 26 55 75 l-194 0 q-33 -44 -62 -75 ZM657 473 l191 0 l0 113 l-191 0 l0 -113 ZM254 587 q138 98 218 248 l71 -13 q-16 -28 -30 -50 l196 0 l13 4 l46 -31 q-30 -52 -72 -104 l222 0 l0 -221 l-207 0 q20 -78 48 -142 q72 48 137 111 l52 -44 q-71 -63 -164 -120 q74 -140 180 -199 q-32 -28 -49 -59 q-97 61 -167 183 q-64 113 -101 270 l-24 0 q-28 -24 -63 -45 q78 -65 114 -157 q32 -82 23 -159 q-8 -74 -50 -105 q-36 -29 -96 -31 q-35 0 -77 3 q-2 39 -18 63 q43 -4 81 -4 q41 0 61 17 q21 15 30 51.5 q9 36.5 2 82.5 q-65 -54 -153 -105.5 q-88 -51.5 -168 -81.5 q-18 33 -42 55 q90 27 187 82 q100 56 159 114 q-10 30 -30 60 q-52 -40 -125 -79 q-69 -38 -134 -62 q-17 31 -38 51 q67 20 141 56 q76 37 126 76 q-20 24 -44 43 q-89 -50 -188 -86 q-20 28 -44 52 q145 43 251 109 l-190 0 l0 149 q-9 -8 -29 -24 q-25 29 -55 42 Z" /><glyph glyph-name="" unicode="&#x5148;" d="M51 -19 q146 45 209 141 q49 75 64 216 l-259 0 l0 72 l398 0 l0 200 l-206 0 q-37 -89 -87 -152 q-27 19 -65 35 q48 59 88 153 q35 81 55 167 l75 -15 q-12 -45 -37 -117 l177 0 l0 155 l74 0 l0 -155 l328 0 l0 -71 l-328 0 l0 -200 l400 0 l0 -72 l-273 0 l0 -293 q0 -22 8 -28.5 q8 -6.5 37 -6.5 l127 0 q27 0 35 26.5 q8 26.5 11 123.5 q28 -21 69 -31 q-6 -113 -28 -151.5 q-22 -38.5 -81 -38.5 l-142 0 q-65 0 -87.5 22 q-22.5 22 -22.5 84 l0 293 l-189 0 q-17 -163 -74 -253 q-70 -112 -229 -167 q-6 14 -20 33.5 q-14 19.5 -27 29.5 Z" /><glyph glyph-name="" unicode="&#x514d;" d="M223 342 l239 0 l0 181 l-239 0 l0 -181 ZM222 590 l273 0 q43 49 79 108 l-251 0 q-48 -59 -101 -108 ZM533 342 l265 0 l0 181 l-265 0 l0 -181 ZM40 -12 q155 34 222 108 q54 61 70 180 l-184 0 l0 252 q-24 -18 -52 -37 q-24 36 -52 56 q96 58 175 142 q68 73 110 150 l82 -16 q-12 -20 -40 -62 l246 0 l11 4 l51 -34 q-34 -63 -98 -141 l294 0 l0 -314 l-228 0 l0 -244 q0 -21 9 -27 q9 -6 40 -6 l141 0 q29 0 37.5 24.5 q8.5 24.5 11.5 114.5 q24 -17 69 -30 q-7 -108 -29 -143 q-22 -35 -83 -35 l-155 0 q-69 0 -92.5 21 q-23.5 21 -23.5 81 l0 244 l-161 0 q-21 -145 -83 -219 q-75 -91 -245 -133 q-6 14 -18 33 q-14 21 -25 31 Z" /><glyph glyph-name="" unicode="&#x2f0a;&#x5165;" d="M40 -15 q162 84 263 236 q95 144 142 360 l44 -7 q-10 63 -13 128 l-246 0 l0 74 l318 0 q0 -212 61 -372 q98 -263 354 -415 q-31 -22 -60 -62 q-309 187 -397 557 q-56 -196 -153 -332 q-98 -139 -246 -226 q-37 39 -67 59 Z" /><glyph glyph-name="" unicode="&#x5168;" d="M41 457 q126 69 242 177 q113 105 172 204 l74 0 q77 -109 198 -210 q118 -101 236 -159 q-26 -26 -49 -66 q-118 68 -233 167 q-119 103 -185 195 q-61 -92 -171 -192 q-114 -103 -238 -175 q-15 28 -46 59 ZM80 -49 l0 68 l379 0 l0 163 l-298 0 l0 66 l298 0 l0 156 l-253 0 l0 67 l594 0 l0 -67 l-265 0 l0 -156 l303 0 l0 -66 l-303 0 l0 -163 l390 0 l0 -68 l-845 0 Z" /><glyph glyph-name="" unicode="&#x516c;" d="M53 428 q81 67 152 169 q69 99 114 211 l81 -23 q-50 -120 -123 -228 q-73 -108 -153 -182 q-45 39 -71 53 ZM93 44 q17 0 55 2 q53 1 82 2 q51 93 104 211 q53 122 85 217 l86 -21 q-99 -237 -192 -403 q150 6 440 19 q-74 106 -143 189 l69 32 q69 -79 137 -172 q69 -94 105 -160 l-73 -41 q-21 39 -49 83 q-187 -11 -542 -28 q-108 -6 -154 -8 l-10 78 ZM600 778 l72 30 q48 -94 133 -202 q78 -102 150 -168 q-31 -22 -62 -63 q-72 75 -152 185 q-86 116 -141 218 Z" /><glyph glyph-name="" unicode="&#x5173;" d="M585 650 q56 79 98 185 l77 -26 q-74 -131 -114 -184 l-61 25 ZM248 794 l61 31 q72 -88 103 -168 l-65 -36 q-13 36 -41 85 q-28 49 -58 88 ZM140 -21 q159 60 236 152 q61 72 75 169 l-280 0 l0 71 l286 0 l0 19 l0 152 l-249 0 l0 71 l583 0 l0 -71 l-259 0 l0 -153 l0 -18 l300 0 l0 -71 l-283 0 q82 -243 305 -311 q-23 -21 -50 -65 q-204 74 -295 296 q-63 -194 -318 -299 q-20 32 -51 58 Z" /><glyph glyph-name="" unicode="&#x5176;" d="M314 206 l370 0 l0 109 l-370 0 l0 -109 ZM314 551 l370 0 l0 99 l-370 0 l0 -99 ZM314 379 l370 0 l0 108 l-370 0 l0 -108 ZM58 137 l0 69 l183 0 l0 444 l-155 0 l0 70 l155 0 l0 115 l73 0 l0 -115 l370 0 l0 115 l74 0 l0 -115 l160 0 l0 -70 l-160 0 l0 -444 l183 0 l0 -69 l-883 0 ZM48 -18 q84 25 171 63 q92 39 143 74 l66 -46 q-130 -80 -331 -148 q-18 26 -49 57 ZM573 67 l50 47 q190 -67 321 -138 l-66 -49 q-122 72 -305 140 Z" /><glyph glyph-name="" unicode="&#x5178;" d="M53 -24 q79 29 160 74 q83 47 127 88 l71 -42 q-56 -47 -142 -96 q-80 -46 -160 -78 q-25 27 -56 54 ZM593 92 l52 48 q179 -86 291 -163 l-66 -50 q-106 78 -277 165 ZM215 227 l141 0 l0 184 l-141 0 l0 -184 ZM215 480 l141 0 l0 167 l-141 0 l0 -167 ZM426 480 l146 0 l0 167 l-146 0 l0 -167 ZM643 480 l148 0 l0 167 l-148 0 l0 -167 ZM426 227 l146 0 l0 184 l-146 0 l0 -184 ZM643 227 l148 0 l0 184 l-148 0 l0 -184 ZM43 156 l0 71 l100 0 l0 489 l213 0 l0 122 l70 0 l0 -122 l146 0 l0 123 l71 0 l0 -123 l222 0 l0 -489 l91 0 l0 -71 l-913 0 Z" /><glyph glyph-name="" unicode="&#x5185;" d="M102 -78 l0 744 l362 0 l0 171 l74 0 l0 -171 l362 0 l0 -644 q0 -37 -10 -56 q-10 -19 -35 -28 q-24 -9 -73 -11 q-31 -2 -113 -2 q-6 41 -25 75 q61 -3 119 -3 q27 0 40.5 1 q13.5 1 18.5 6.5 q5 5.5 5 18.5 l0 570 l-290 0 q-3 -70 -18 -130 q192 -168 282 -278 l-61 -48 q-73 97 -243 255 q-62 -161 -243 -268 q-22 33 -53 56 q148 79 211 201 q45 88 51 212 l-288 0 l0 -671 l-73 0 Z" /><glyph glyph-name="" unicode="&#x518d;" d="M533 233 l232 0 l0 123 l-232 0 l0 -123 ZM234 233 l225 0 l0 123 l-225 0 l0 -123 ZM234 421 l225 0 l0 121 l-225 0 l0 -121 ZM533 421 l232 0 l0 121 l-232 0 l0 -121 ZM43 164 l0 69 l118 0 l0 377 l298 0 l0 96 l-379 0 l0 70 l842 0 l0 -70 l-389 0 l0 -96 l305 0 l0 -377 l121 0 l0 -69 l-121 0 l0 -150 q0 -34 -9.5 -52 q-9.5 -18 -33.5 -27 q-36 -13 -174 -13 q-7 37 -27 71 q38 -1 79 -1 q48 0 68 1 q14 0 19 4.5 q5 4.5 5 16.5 l0 150 l-531 0 l0 -243 l-73 0 l0 243 l-118 0 Z" /><glyph glyph-name="" unicode="&#x5199;" d="M82 566 l0 216 l838 0 l0 -216 l-76 0 l0 148 l-689 0 l0 -148 l-73 0 ZM58 150 l0 69 l613 0 q6 51 12 117 l-387 0 l-9 -33 l-74 7 q47 165 88 396 l75 -8 q-3 -15 -9 -47 q-9 -42 -13 -63 l421 0 l0 -66 l-436 0 q-18 -82 -27 -119 l451 0 q-1 -17 -3 -35 q-7 -81 -15 -149 l200 0 l0 -69 l-210 0 q-22 -154 -63 -194 q-29 -29 -83 -32 q-16 -1 -42 -1 q-55 0 -120 4 q-2 39 -25 70 q70 -7 163 -7 q34 0 46 11 q30 26 50 149 l-603 0 Z" /><glyph glyph-name="" unicode="&#x51b5;" d="M75 732 l51 48 q121 -93 171 -166 l-55 -55 q-48 75 -167 173 ZM44 91 q101 143 197 324 l50 -50 q-96 -186 -189 -327 l-58 53 ZM439 449 l379 0 l0 269 l-379 0 l0 -269 ZM245 -18 q136 48 188 149 q41 80 49 247 l-114 0 l0 411 l526 0 l0 -411 l-147 0 l0 -338 q0 -22 6 -28.5 q6 -6.5 25 -6.5 l86 0 q20 0 26.5 28 q6.5 28 8.5 127 q24 -19 66 -30 q-6 -114 -25 -152.5 q-19 -38.5 -70 -38.5 l-101 0 q-56 0 -75.5 21 q-19.5 21 -19.5 79 l0 339 l-117 0 q-11 -188 -59 -282 q-59 -116 -207 -172 q-20 38 -46 58 Z" /><glyph glyph-name="" unicode="&#x51fa;" d="M116 -76 l0 412 l74 0 l0 -277 l267 0 l0 341 l-303 0 l0 342 l74 0 l0 -270 l229 0 l0 359 l76 0 l0 -359 l240 0 l0 270 l77 0 l0 -342 l-317 0 l0 -341 l281 0 l0 277 l76 0 l0 -410 l-76 0 l0 60 l-624 0 l0 -62 l-74 0 Z" /><glyph glyph-name="" unicode="&#x5206;" d="M27 441 q95 63 174 162 q79 99 125 213 l78 -22 q-53 -125 -137 -233 q-82 -107 -177 -178 q-20 24 -63 58 ZM80 -16 q161 53 236 169 q57 86 77 236 l-204 0 l0 72 l621 0 q-1 -18 -2 -36 q-11 -232 -24 -331 q-14 -101 -39 -129 q-15 -18 -33 -25 q-15 -7 -44 -10 q-16 -1 -44 -1 q-41 0 -113 3 q-4 40 -25 74 q76 -7 150 -7 q31 0 42 13 q20 19 31.5 103.5 q11.5 84.5 20.5 273.5 l-258 0 q-23 -173 -86 -274 q-83 -133 -258 -196 q-21 39 -48 65 ZM601 790 l70 28 q48 -99 134 -202 q85 -100 167 -158 q-39 -33 -61 -66 q-83 67 -169 177 q-86 110 -141 221 Z" /><glyph glyph-name="" unicode="&#x5212;" d="M310 774 l50 40 q99 -74 145 -136 l-52 -45 q-47 65 -143 141 ZM40 542 l160 18 q-16 138 -17 275 l75 0 q0 -135 14 -267 l315 36 l7 -70 l-314 -36 q18 -130 52 -250 q81 104 130 227 l71 -21 q-64 -154 -174 -286 q29 -79 61.5 -123.5 q32.5 -44.5 63.5 -44.5 q19 0 28 36.5 q9 36.5 14 124.5 q31 -30 63 -39 q-10 -112 -34 -154 q-24 -41 -75 -41 q-101 0 -176 181 q-96 -96 -209 -164 q-22 32 -53 59 q130 69 234 179 q-44 132 -68 309 l-160 -19 l-8 70 ZM646 181 l0 545 l71 0 l0 -545 l-71 0 ZM676 -3 q36 -1 74 -1 q43 0 63 1 q24 0 24 23 l0 805 l73 1 l0 -805 q0 -36 -9.5 -54.5 q-9.5 -18.5 -32.5 -27.5 q-36 -15 -167 -15 q-7 35 -25 73 Z" /><glyph glyph-name="" unicode="&#x5217;&#xf99c;" d="M191 405 q104 -60 181 -119 q44 92 70 215 l-203 0 q-22 -49 -48 -96 ZM26 306 q75 71 132 189 q49 102 77 222 l-172 0 l0 68 l494 0 l0 -68 l-245 0 q-20 -80 -46 -148 l200 0 l12 2 l46 -16 q-38 -235 -141 -399 q-95 -152 -240 -235 q-22 32 -56 56 q157 83 252 245 q-69 57 -184 127 q-35 -51 -77 -92 q-20 24 -52 49 ZM595 179 l0 543 l73 0 l0 -543 l-73 0 ZM665 -4 q42 -1 92 -1 q16 0 40 0 q11 0 15 0 q26 1 26 25 l0 797 l73 0 l0 -796 q0 -37 -10 -56 q-10 -19 -34 -29 q-38 -13 -177 -13 q-8 38 -25 73 Z" /><glyph glyph-name="" unicode="&#x521b;" d="M171.5 -39.5 q-26.5 22.5 -26.5 86.5 l0 426 l362 0 q0 -15 -1 -30 q-8 -132 -16 -187 q-9 -59 -26 -77 q-19 -21 -57 -26 q-20 -1 -41 -1 q-30 0 -57 2 q-3 35 -18 64 q36 -4 85 -4 q20 0 29 9 q19 25 29 184 l-217 0 l0 -360 q0 -28 11 -36 q11 -8 49 -8 l174 0 q34 0 44 25 q10 24 14 113 q32 -20 66 -27 q-7 -105 -30 -140 q-24 -36 -89 -36 l-185 0 q-73 0 -99.5 22.5 ZM31 479 q93 66 169 163 q74 94 115 193 l69 -21 q-4 -10 -13 -29 q-5 -9 -7 -14 q163 -167 230 -266 l-53 -49 q-70 105 -210 255 q-99 -170 -246 -284 q-28 32 -54 52 ZM642 169 l0 551 l71 0 l0 -551 l-71 0 ZM658 -2 q47 -2 95 -2 q38 0 57 1 q26 1 26 25 l0 799 l73 0 l0 -799 q0 -36 -11 -55 q-10 -18 -34 -27 q-35 -13 -142 -13 q-17 0 -38 0 q-8 38 -26 71 Z" /><glyph glyph-name="" unicode="&#x5229;&#xf9dd;" d="M31 131 q59 56 120 151 q59 93 96 187 l-194 0 l0 68 l209 0 l0 169 q-76 -14 -193 -31 q-4 26 -23 59 q293 44 413 97 l55 -57 q-72 -29 -180 -53 l0 -184 l191 0 l0 -68 l-191 0 l0 -73 q80 -63 188 -159 l-43 -61 q-58 64 -145 144 l0 -394 l-72 0 l0 431 q-88 -193 -190 -295 q-15 32 -41 69 ZM592 171 l0 547 l72 0 l0 -547 l-72 0 ZM658 -2 q58 -2 108 -2 q32 0 44 1 q26 0 26 25 l0 795 l74 0 l0 -794 q0 -37 -11 -58 q-10 -19 -34 -29 q-39 -13 -180 -13 q-9 43 -27 75 Z" /><glyph glyph-name="" unicode="&#x5230;" d="M43 28 q63 7 231 28 l0 175 l-191 0 l0 68 l191 0 l0 119 l72 0 l0 -119 l188 0 l0 -68 l-188 0 l0 -166 l220 29 l2 -67 q-109 -16 -322 -46 q-137 -19 -191 -27 l-12 74 ZM52 502 l91 4 q41 90 74 199 l-163 0 l0 66 l510 0 l0 -66 l-264 0 q-2 -4 -5 -13 q-51 -128 -77 -183 q18 1 56 2 q114 5 174 8 q-36 51 -79 103 l55 31 q118 -136 158 -223 l-58 -35 q-17 34 -34 62 q-104 -7 -302 -18 q-91 -6 -130 -8 l-6 71 ZM607 167 l0 550 l71 0 l0 -550 l-71 0 ZM671 1 q47 -2 106 -2 q11 0 29 0 q9 0 12 0 q14 1 19 6 q5 5 5 19 l0 785 l72 0 l0 -785 q0 -38 -10 -57.5 q-10 -19.5 -35 -29.5 q-36 -13 -173 -13 q-8 39 -25 77 Z" /><glyph glyph-name="" unicode="&#x5236;" d="M45 550 q66 98 100 263 l70 -14 q-17 -65 -30 -106 l106 0 l0 140 l71 0 l0 -140 l202 0 l0 -68 l-202 0 l0 -105 l241 0 l0 -68 l-241 0 l0 -100 l206 0 l0 -273 q0 -27 -6 -41 q-6 -15 -24 -24 q-25 -12 -116 -12 q-5 32 -22 65 q32 -1 55 -1 q24 0 31 1 q14 0 14 13 l0 204 l-138 0 l0 -359 l-71 0 l0 359 l-129 0 l0 -279 l-68 0 l0 347 l197 0 l0 100 l-243 0 l0 68 l243 0 l0 105 l-130 0 q-26 -64 -50 -103 q-22 14 -66 28 ZM675 196 l0 550 l70 0 l0 -550 l-70 0 ZM699 5 q59 -2 132 -2 q12 1 16.5 5.5 q4.5 4.5 4.5 16.5 l0 801 l72 0 l0 -800 q0 -37 -9 -55.5 q-9 -18.5 -32 -28.5 q-36 -15 -160 -15 q-8 41 -24 78 Z" /><glyph glyph-name="" unicode="&#x524d;" d="M190 202 l221 0 l0 100 l-221 0 l0 -100 ZM190 360 l221 0 l0 98 l-221 0 l0 -98 ZM119 -72 l0 594 l364 0 l0 -513 q0 -29 -8 -44.5 q-8 -15.5 -27.5 -24 q-19.5 -8.5 -54.5 -11.5 q-23 -1 -85 -1 q-7 32 -24 65 q41 -2 77 -2 q22 0 31 1 q11 1 15 4.5 q4 3.5 4 13.5 l0 133 l-221 0 l0 -215 l-71 0 ZM653 -2 q51 -2 94 -2 q26 0 36 1 q13 1 17.5 5 q4.5 4 4.5 15 l0 525 l73 0 l0 -525 q0 -34 -9 -51 q-9 -17 -31 -26 q-35 -13 -127 -13 q-14 0 -31 0 q-7 34 -27 71 ZM604 106 l0 406 l69 0 l0 -406 l-69 0 ZM57 611 l0 68 l245 0 q-26 57 -91 133 l68 26 q67 -72 100 -140 l-49 -19 l298 0 q56 79 94 162 l78 -26 q-35 -60 -89 -136 l234 0 l0 -68 l-888 0 Z" /><glyph glyph-name="" unicode="&#x52a0;" d="M33 -26 q86 91 125 256 q30 132 37 346 l-138 0 l0 73 l140 0 q1 57 1 174 l73 0 q0 -60 -2 -174 l221 0 l0 -38 q-6 -346 -14 -465 q-10 -134 -32 -165 q-23 -34 -66 -38 q-21 -3 -57 -3 q-29 0 -60 2 q-4 46 -22 75 q46 -4 107 -4 q3 0 5 0 q20 0 28 16 q17 21 26 140 q8 117 13 407 l-151 0 q-8 -229 -42 -372 q-42 -180 -136 -281 q-20 29 -56 51 ZM642 83 l194 0 l0 558 l-194 0 l0 -558 ZM572 -61 l0 774 l338 0 l0 -767 l-74 0 l0 66 l-194 0 l0 -73 l-70 0 Z" /><glyph glyph-name="" unicode="&#x52a1;" d="M60 -12 q135 26 217 79 q85 56 127 150 l-275 0 l0 65 l298 0 q14 51 19 99 l77 -6 q-7 -43 -19 -93 l362 0 q-2 -16 -4 -33 q-15 -133 -34 -200 q-18 -63 -44 -87 q-26 -24 -81 -27 q-16 -1 -38 -1 q-58 0 -110 4 q-2 35 -23 66 q74 -7 151 -7 q31 0 43 9 q37 30 60 211 l-303 0 q-46 -118 -141 -189 q-90 -67 -241 -103 q-18 38 -41 63 ZM324 656 q63 -79 184 -131 q151 61 235 145 l-404 0 l-15 -14 ZM49 422 q207 20 376 74 q-89 49 -149 118 q-55 -45 -137 -92 q-22 37 -46 55 q99 50 178 125 q70 65 112 136 l78 -16 q-34 -51 -64 -88 l403 0 l13 4 l45 -31 q-83 -125 -263 -213 q147 -45 361 -58 q-24 -27 -41 -67 q-246 21 -408 88 q-176 -69 -428 -100 q-9 36 -30 65 Z" /><glyph glyph-name="" unicode="&#x52a8;" d="M93 688 l0 67 l384 0 l0 -67 l-384 0 ZM57 450 l0 68 l437 0 l0 -68 l-222 0 q-40 -162 -102 -305 l237 50 q-32 92 -58 152 l61 17 q71 -162 102 -276 l-66 -21 q-2 6 -5 19 q-8 30 -13 46 q-197 -44 -262 -61 q-55 -14 -73 -25 l0 4 q-1 -1 -1 -3 q-5 27 -23 69 q17 4 45 68 q15 35 36 102 q29 87 45 164 l-138 0 ZM459 -22 q94 86 140 240 q37 126 47 318 l-139 0 l0 71 l142 0 q3 70 3 213 l73 0 q0 -108 -3 -213 l220 0 q0 -18 -1 -37 q-10 -313 -22 -434 q-12 -128 -37 -160 q-15 -19 -32 -27 q-15 -8 -40 -11 q-19 -2 -49 -2 q-39 0 -89 3 q-4 42 -23 73 q56 -5 130 -5 q3 0 6 0 q20 0 32 15 q20 22 31 135 q12 116 20 379 l-149 0 q-12 -210 -51 -346 q-50 -169 -151 -266 q-25 35 -58 54 Z" /><glyph glyph-name="" unicode="&#x5316;" d="M25 418 q86 72 163 178 q78 108 127 225 l71 -24 q-45 -107 -111 -208 l0 -663 l-75 0 l0 558 q-65 -82 -130 -141 q-18 40 -45 75 ZM514.5 -33 q-28.5 29 -28.5 110 l0 736 l75 0 l0 -372 q184 103 299 207 l53 -64 q-111 -90 -352 -218 l0 -290 q0 -42 12.5 -55 q12.5 -13 53.5 -13 l195 0 q40 0 54 36 q12 33 17 145 q35 -24 71 -32 q-9 -127 -34 -170 q-28 -49 -103 -49 l-205 0 q-79 0 -107.5 29 Z" /><glyph glyph-name="" unicode="&#x2f17;&#x5341;" d="M59 389 l0 76 l403 0 l0 370 l79 0 l0 -370 l408 0 l0 -76 l-408 0 l0 -465 l-79 0 l0 465 l-403 0 Z" /><glyph glyph-name="" unicode="&#x5355;" d="M224 329 l236 0 l0 107 l-236 0 l0 -107 ZM224 496 l236 0 l0 105 l-236 0 l0 -105 ZM535 496 l248 0 l0 105 l-248 0 l0 -105 ZM535 329 l248 0 l0 107 l-248 0 l0 -107 ZM57 102 l0 69 l403 0 l0 95 l-309 0 l0 398 l184 0 q-41 74 -97 138 l62 30 q76 -81 108 -147 l-41 -21 l241 0 q57 78 100 168 l79 -27 q-41 -67 -96 -141 l167 0 l0 -398 l-323 0 l0 -95 l409 0 l0 -69 l-409 0 l0 -178 l-75 0 l0 178 l-403 0 Z" /><glyph glyph-name="" unicode="&#x5373;" d="M182 588 l230 0 l0 126 l-230 0 l0 -126 ZM182 398 l230 0 l0 124 l-230 0 l0 -124 ZM43 50 q44 11 69 18 l0 715 l369 0 l0 -454 l-299 0 l0 -242 q106 29 189 53 q-36 58 -77 112 l60 29 q51 -64 98 -140 q47 -79 67 -133 l-65 -34 q-14 40 -47 103 q-44 -13 -132 -40 q-147 -45 -207 -62 l-25 75 ZM557 -76 l0 858 l360 0 l0 -605 q0 -34 -7 -52 q-9 -20 -30 -30 q-31 -15 -146 -15 q-6 43 -26 81 q35 -2 72 -2 q29 0 44 1 q11 0 14.5 4 q3.5 4 3.5 15 l0 529 l-211 0 l0 -784 l-74 0 Z" /><glyph glyph-name="" unicode="&#x539f;" d="M179 10 q56 36 108 88.5 q52 52.5 86 108.5 l70 -20 q-38 -61 -94 -122 q-53 -57 -109 -99 q-20 20 -61 44 ZM370 318 l413 0 l0 92 l-413 0 l0 -92 ZM370 466 l413 0 l0 91 l-413 0 l0 -91 ZM38 -36 q59 104 81 265 q15 108 15 266 l0 286 l806 0 l0 -67 l-324 0 q-19 -62 -32 -98 l275 0 l0 -357 l-248 0 l0 -255 q0 -30 -8 -45 q-8 -17 -30 -24 q-20 -7 -60 -10 q-25 -1 -95 -1 q-4 25 -23 65 q48 -2 90 -2 q25 0 35 1 q19 0 19 17 l0 254 l-242 0 l0 357 l209 0 q16 54 23 98 l-322 0 l0 -220 q0 -382 -105 -568 q-30 25 -64 38 ZM697 175 l57 36 q59 -46 114 -100 q60 -58 89 -100 l-60 -41 q-27 43 -86 102 q-55 56 -114 103 Z" /><glyph glyph-name="" unicode="&#x53c2;" d="M190 -20 q193 21 336 67 q158 51 236 128 l64 -31 q-165 -169 -601 -226 q-13 35 -35 62 ZM247 140 q112 23 213 60 q112 41 172 87 l60 -29 q-69 -56 -184 -103 q-101 -41 -220 -68 q-17 31 -41 53 ZM251 287 q78 20 151 50 q82 33 127 66 l59 -28 q-106 -81 -293 -133 q-1 1 -3 4 q-26 31 -41 41 ZM22 254 q171 70 279 197 l-245 0 l0 64 l293 0 q26 39 49 89 q-40 -1 -116 -3 q-127 -4 -179 -5 l-9 68 l166 3 q69 90 108 170 l80 -22 q-59 -89 -106 -146 q191 3 376 9 q-63 49 -112 82 l58 35 q70 -44 140 -100 q75 -59 113 -104 l-61 -41 q-20 24 -68 69 q-34 -1 -104 -4 q-138 -5 -205 -8 q-23 -53 -46 -92 l513 0 l0 -64 l-252 0 q51 -60 126 -112 q73 -51 147 -80 q-29 -25 -49 -58 q-85 38 -167.5 105 q-82.5 67 -138.5 145 l-221 0 q-120 -163 -314 -255 q-16 24 -55 58 Z" /><glyph glyph-name="" unicode="&#x53ca;" d="M344 675 q84 -338 277 -508 q137 123 196 306 l-180 0 q-7 -27 -15 -51 l-75 10 q35 125 71 279 l-274 0 l0 -36 ZM39 4 q142 132 195 319 q35 124 35 304 l0 84 l-176 0 l0 72 l548 0 l13 4 l57 -10 q-24 -115 -56 -234 l192 0 l13 4 l50 -22 q-61 -250 -229 -405 q119 -86 286 -126 q-25 -23 -51 -69 q-173 45 -299 142 q-130 -95 -305 -144 q-19 41 -42 65 q162 39 289 129 q-138 132 -221 353 q-33 -328 -246 -528 q-17 32 -53 62 Z" /><glyph glyph-name="" unicode="&#x53cd;" d="M390 451 q61 -165 176 -274 q126 116 183 274 l-359 0 ZM54 -30 q73 103 101 265 q19 110 19 268 l0 270 l728 0 l0 -72 l-655 0 l0 -179 l534 0 l15 4 l51 -21 q-62 -227 -222 -377 q132 -98 317 -138 q-26 -22 -50 -68 q-191 47 -327 155 q-131 -101 -307 -153 q-20 44 -43 67 q163 42 292 137 q-126 127 -195 323 l-66 0 q-6 -347 -129 -525 q-27 27 -63 44 Z" /><glyph glyph-name="" unicode="&#x53d1;" d="M672 787 l57 36 q91 -93 129 -142 l-60 -41 q-36 51 -126 147 ZM428 361 q58 -120 160 -206 q101 88 153 206 l-313 0 ZM35 58 q254 155 358 481 l-139 0 q-92 0 -106 -17 q-16 50 -25 70 q19 5 36 40 q12 21 31 68 q24 59 36 109 l78 -15 q-22 -83 -72 -183 l180 0 q29 108 42 229 l83 -12 q-17 -120 -40 -217 l431 0 l-1 -72 l-450 0 q-16 -51 -35 -106 l335 0 l14 4 l50 -25 q-59 -181 -194 -302 q132 -90 314 -124 q-26 -25 -46 -66 q-191 42 -325 143 q-131 -94 -308 -142 q-14 33 -39 64 q163 38 288 126 q-89 83 -149 195 q-107 -190 -292 -305 q-21 32 -55 57 Z" /><glyph glyph-name="" unicode="&#x53d6;" d="M199 572 l195 0 l0 133 l-195 0 l0 -133 ZM199 148 q61 8 195 28 l0 123 l-195 0 l0 -151 ZM199 367 l195 0 l0 139 l-195 0 l0 -139 ZM32 126 q46 5 97 12 l0 567 l-78 0 l0 69 l485 0 l0 -69 l-70 0 l0 -779 l-72 0 l0 181 q-65 -11 -191 -31 q-112 -17 -158 -25 l-13 75 ZM469 -2 q120 62 210 185 q-96 164 -149 427 l71 13 q41 -217 123 -370 q90 159 124 374 l-337 0 l0 73 l357 0 l14 3 l48 -14 q-38 -310 -162 -507 q86 -125 206 -186 q-30 -25 -53 -61 q-116 66 -199 181 q-87 -110 -204 -178 q-20 35 -49 60 Z" /><glyph glyph-name="" unicode="&#x53d9;" d="M40 49 q61 82 93 222 l65 -15 q-35 -143 -100 -240 q-19 13 -58 33 ZM24 554 q78 58 144 139 q57 70 92 143 l69 0 q56 -46 114 -104 q58 -59 90 -102 l-54 -56 q-30 42 -77 96 q-52 58 -99 99 q-68 -110 -157 -198 l331 0 l0 -66 l-143 0 l0 -112 l189 0 l0 -66 l-189 0 l0 -321 q0 -29 -7 -44 q-7 -16 -26 -25 q-27 -12 -123 -12 q-5 34 -23 66 q32 -1 58 -1 q26 0 36 1 q17 0 17 15 l0 321 l-202 0 l0 66 l202 0 l0 112 l-132 0 l0 55 q-26 -25 -63 -55 q-19 30 -47 49 ZM389 255 l60 22 q65 -120 79 -191 l-63 -25 q-19 86 -76 194 ZM443 -16 q139 70 238 217 q-86 181 -130 478 l69 11 q36 -249 106 -413 q92 172 126 416 l-333 0 l0 72 l352 0 l13 2 l48 -11 q-36 -341 -166 -560 q79 -141 199 -212 q-28 -21 -53 -59 q-111 70 -192 202 q-93 -126 -229 -204 q-20 37 -48 61 Z" /><glyph glyph-name="" unicode="&#x53ea;" d="M242 341 l533 0 l0 357 l-533 0 l0 -357 ZM169 234 l0 534 l683 0 l0 -529 l-77 0 l0 32 l-533 0 l0 -37 l-73 0 ZM61 -24 q81 43 157 104 q79 64 122 122 l79 -31 q-56 -68 -136.5 -135 q-80.5 -67 -161.5 -113 q-35 35 -60 53 ZM589 160 l60 40 q79 -55 154 -117 q84 -69 126 -116 l-64 -46 q-40 47 -122 118 q-76 64 -154 121 Z" /><glyph glyph-name="" unicode="&#x53ef;" d="M233 246 l261 0 l0 228 l-261 0 l0 -228 ZM161 95 l0 451 l406 0 l0 -371 l-334 0 l0 -80 l-72 0 ZM59 692 l0 74 l885 0 l0 -74 l-123 0 l0 -662 q0 -41 -11.5 -62 q-11.5 -21 -39.5 -29 q-27 -9 -82 -12 q-34 -2 -125 -2 q-9 39 -32 79 q58 -3 124 -3 q40 0 61 1 q17 1 23 7 q6 6 6 22 l0 661 l-686 0 Z" /><glyph glyph-name="" unicode="&#x53f7;" d="M262 570 l484 0 l0 159 l-484 0 l0 -159 ZM189 504 l0 292 l632 0 l0 -292 l-632 0 ZM52 359 l0 67 l894 0 l0 -67 l-596 0 q-5 -14 -15 -43.5 q-10 -29.5 -15 -44.5 l502 0 q-2 -17 -4 -35 q-19 -130 -38.5 -195 q-19.5 -65 -48.5 -90 q-27 -25 -85 -28 q-12 0 -29 0 q-65 0 -141 4 q-2 41 -25 70 q83 -7 171 -7 q35 0 48 9 q38 31 66 203 l-440 0 q-5 -13 -15 -38 q-8 -22 -12 -31 l-79 14 q36 83 78 212 l-216 0 Z" /><glyph glyph-name="" unicode="&#x5404;" d="M279 32 l437 0 l0 178 l-437 0 l0 -178 ZM205 -81 l0 360 l588 0 l0 -357 l-77 0 l0 43 l-437 0 l0 -46 l-74 0 ZM322 657 q71 -83 183 -153 q122 75 194 162 l-369 0 l-8 -9 ZM33 319 q216 46 406 146 q-99 70 -164 145 q-78 -74 -159 -123 q-28 33 -57 55 q96 52 179 131 q85 81 137 172 l71 -25 q-30 -49 -60 -88 l368 0 l13 4 l51 -35 q-81 -128 -243 -238 q180 -98 390 -139 q-24 -24 -48 -68 q-222 50 -411 165 q-200 -113 -437 -169 q-11 36 -36 67 Z" /><glyph glyph-name="" unicode="&#x5408;" d="M271 31 l459 0 l0 223 l-459 0 l0 -223 ZM198 -77 l0 398 l608 0 l0 -398 l-76 0 l0 41 l-459 0 l0 -41 l-73 0 ZM250 446 l0 66 l501 0 l0 -66 l-501 0 ZM37 466 q128 65 246 169 q113 101 173 199 l75 0 q78 -108 200 -207 q119 -96 239 -150 q-23 -21 -49 -64 q-119 62 -235 157 q-120 98 -188 192 q-62 -93 -174 -189 q-115 -99 -241 -166 q-17 31 -46 59 Z" /><glyph glyph-name="" unicode="&#x540c;" d="M369 189 l262 0 l0 189 l-262 0 l0 -189 ZM300 53 l0 388 l401 0 l0 -316 l-332 0 l0 -72 l-69 0 ZM250 545 l0 65 l504 0 l0 -65 l-504 0 ZM91 -79 l0 864 l820 0 l0 -768 q0 -35 -9.5 -53 q-9.5 -18 -31.5 -28 q-36 -14 -167 -14 q-5 37 -27 73 q52 -2 98 -2 q29 0 40 1 q24 1 24 23 l0 697 l-675 0 l0 -793 l-72 0 Z" /><glyph glyph-name="" unicode="&#x540d;" d="M399 32 l410 0 l0 246 l-410 0 l0 -246 ZM278 597 q115 -81 189 -161 q118 108 180 234 l-298 0 q-40 -46 -71 -73 ZM36 193 q202 59 371 192 q-68 78 -183 164 q-67 -54 -131 -91 q-18 31 -52 57 q116 63 208 155 q81 82 128 170 l83 -17 q-27 -45 -57 -86 l282 0 l14 4 l49 -26 q-83 -209 -273 -369 l409 0 l0 -424 l-75 0 l0 42 l-410 0 l0 -40 l-73 0 l0 316 q-122 -72 -246 -112 q-20 44 -44 65 Z" /><glyph glyph-name="" unicode="&#x540e;" d="M384 43 l414 0 l0 235 l-414 0 l0 -235 ZM313 -77 l0 425 l558 0 l0 -423 l-73 0 l0 50 l-414 0 l0 -52 l-71 0 ZM35 -27 q71 100 98 253 q19 104 19 255 l0 279 l76 -15 q389 31 586 83 l62 -59 q-226 -58 -650 -90 l0 -117 l733 0 l0 -72 l-733 0 l0 -10 q0 -372 -133 -557 q-8 12 -25 27 q-19 17 -33 23 Z" /><glyph glyph-name="" unicode="&#x5417;" d="M146 256 l126 0 l0 417 l-126 0 l0 -417 ZM77 92 l0 650 l262 0 l0 -555 l-193 0 l0 -95 l-69 0 ZM385 139 l0 67 l401 0 l0 -67 l-401 0 ZM417 709 l0 68 l373 0 l11 4 l52 -6 q-15 -193 -40 -374 l123 0 q-1 -16 -2 -33 q-16 -197 -35 -291 q-18 -89 -45 -117.5 q-27 -28.5 -68 -29.5 q-16 -2 -45 -2 q-29 0 -74 2 q-4 40 -21 69 q48 -6 111 -6 q26 0 38 12 q41 39 66 332 l-429 0 q21 140 33 310 l69 -4 q-10 -127 -24 -242 l234 0 q20 167 33 308 l-360 0 Z" /><glyph glyph-name="" unicode="&#x5426;" d="M40 434 q139 45 259 114 q129 74 212 162 l-441 0 l0 70 l861 0 l0 -70 l-320 0 q-40 -47 -75 -78 l0 -305 l-74 0 l0 242 q-160 -123 -370 -202 q-27 43 -52 67 ZM255 38 l494 0 l0 195 l-494 0 l0 -195 ZM180 -77 l0 376 l648 0 l0 -374 l-79 0 l0 46 l-494 0 l0 -48 l-75 0 ZM578 563 l53 50 q84 -35 177 -86 q91 -51 147 -93 l-53 -56 q-55 45 -146 97 q-94 54 -178 88 Z" /><glyph glyph-name="" unicode="&#x5427;" d="M149 256 l127 0 l0 417 l-127 0 l0 -417 ZM81 92 l0 650 l264 0 l0 -555 l-196 0 l0 -95 l-68 0 ZM506 382 l136 0 l0 321 l-136 0 l0 -321 ZM710 382 l141 0 l0 321 l-141 0 l0 -321 ZM465 -30 q-32 29 -32 111 l0 691 l491 0 l0 -521 l-73 0 l0 63 l-345 0 l0 -234 q0 -42 14 -55 q14 -13 62 -13 l239 0 q41 0 55 28 q13 26 19 114 q32 -23 68 -30 q-9 -106 -35 -142 q-28 -39 -104 -39 l-245 0 q-84 0 -114 27 Z" /><glyph glyph-name="" unicode="&#x542c;" d="M147 276 l151 0 l0 396 l-151 0 l0 -396 ZM78 116 l0 625 l292 0 l0 -534 l-223 0 l0 -91 l-69 0 ZM286 -2 q97 88 135 222 q27 93 27 231 l0 285 l62 -16 q225 45 336 98 l67 -56 q-140 -60 -391 -107 l0 -172 l437 0 l0 -71 l-169 0 l0 -488 l-73 0 l0 488 l-196 0 q-8 -313 -182 -469 q-8 13 -24 30 q-16 17 -29 25 Z" /><glyph glyph-name="" unicode="&#x5448;" d="M258 536 l482 0 l0 193 l-482 0 l0 -193 ZM185 470 l0 326 l631 0 l0 -326 l-631 0 ZM69 -48 l0 67 l389 0 l0 120 l-306 0 l0 65 l306 0 l0 114 l-340 0 l0 66 l767 0 l0 -66 l-350 0 l0 -114 l315 0 l0 -65 l-315 0 l0 -120 l397 0 l0 -67 l-863 0 Z" /><glyph glyph-name="" unicode="&#x544a;" d="M262 40 l485 0 l0 191 l-485 0 l0 -191 ZM188 -86 l0 386 l634 0 l0 -384 l-75 0 l0 54 l-485 0 l0 -56 l-74 0 ZM65 398 l0 70 l419 0 l0 157 l-245 0 q-50 -85 -95 -134 q-34 23 -67 40 q53 52 100 133 q44 77 73 163 l74 -17 q-18 -52 -49 -117 l209 0 l0 144 l77 0 l0 -144 l304 0 l0 -68 l-304 0 l0 -157 l378 0 l0 -70 l-874 0 Z" /><glyph glyph-name="" unicode="&#x5458;" d="M269 614 l465 0 l0 113 l-465 0 l0 -113 ZM193 548 l0 244 l620 0 l0 -244 l-620 0 ZM70 -19 q238 47 327 124 q59 52 59 132 l0 91 l78 0 l0 -93 q0 -99 -69 -165 q-97 -94 -346 -150 q-20 35 -49 61 ZM528 68 l37 54 q247 -82 368 -140 l-39 -62 q-131 67 -366 148 ZM158 95 l0 366 l695 0 l0 -359 l-79 0 l0 289 l-541 0 l0 -296 l-75 0 Z" /><glyph glyph-name="" unicode="&#x547c;" d="M144 268 l107 0 l0 396 l-107 0 l0 -396 ZM78 106 l0 627 l240 0 l0 -534 l-174 0 l0 -93 l-66 0 ZM361 282 l0 71 l255 0 l0 350 q-108 -13 -228 -21 q-3 25 -20 61 q337 27 497 74 l51 -59 q-88 -25 -227 -45 l0 -360 l266 0 l0 -71 l-266 0 l0 -262 q0 -35 -9.5 -52.5 q-9.5 -17.5 -32.5 -27.5 q-34 -13 -130 -13 q-15 0 -34 0 q-7 36 -28 71 q39 -1 86 -1 q16 0 38 0 q9 0 12 0 q25 0 25 23 l0 262 l-255 0 ZM400 622 l62 20 q28 -54 51 -120 q21 -64 29 -113 l-66 -22 q-7 49 -28 114 q-21 67 -48 121 ZM748 405 q57 115 94 252 l72 -21 q-68 -179 -107 -252 l-59 21 Z" /><glyph glyph-name="" unicode="&#x548c;" d="M29 136 q56 56 112 151 q55 92 89 187 l-176 0 l0 69 l195 0 l0 166 q-77 -12 -165 -24 q-7 33 -21 59 q255 35 376 83 l50 -58 q-69 -25 -167 -46 l0 -180 l174 0 l0 -69 l-174 0 l0 -26 q26 -27 88 -100 q57 -65 79 -93 l-45 -61 q-29 48 -122 169 l0 -437 l-73 0 l0 440 q-81 -193 -179 -298 q-13 31 -41 68 ZM603 122 l223 0 l0 551 l-223 0 l0 -551 ZM530 -32 l0 776 l370 0 l0 -769 l-74 0 l0 75 l-223 0 l0 -82 l-73 0 Z" /><glyph glyph-name="" unicode="&#x54c1;" d="M303 534 l397 0 l0 189 l-397 0 l0 -189 ZM231 463 l0 331 l544 0 l0 -331 l-544 0 ZM157 49 l209 0 l0 237 l-209 0 l0 -237 ZM86 -77 l0 435 l353 0 l0 -426 l-73 0 l0 45 l-209 0 l0 -54 l-71 0 ZM620 49 l227 0 l0 237 l-227 0 l0 -237 ZM548 -77 l0 435 l372 0 l0 -428 l-73 0 l0 47 l-227 0 l0 -54 l-72 0 Z" /><glyph glyph-name="" unicode="&#x552e;" d="M257 22 l506 0 l0 146 l-506 0 l0 -146 ZM183 -78 l0 307 l656 0 l0 -307 l-76 0 l0 39 l-506 0 l0 -39 l-74 0 ZM249 351 l228 0 l0 75 l-228 0 l0 -75 ZM249 602 l228 0 l0 67 l-228 0 l0 -67 ZM249 479 l228 0 l0 70 l-228 0 l0 -70 ZM37 538 q65 56 122 135 q57 80 93 166 l71 -23 q-19 -45 -45 -90 l209 0 q32 67 44 111 l76 -20 q-26 -53 -46 -91 l316 0 l0 -57 l-327 0 l0 -67 l278 0 l0 -53 l-278 0 l0 -70 l281 0 l0 -53 l-281 0 l0 -75 l371 0 l0 -59 l-742 0 l0 285 q-48 -60 -88 -97 q-26 35 -54 58 Z" /><glyph glyph-name="" unicode="&#x5584;" d="M267 18 l470 0 l0 117 l-470 0 l0 -117 ZM194 -76 l0 271 l619 0 l0 -268 l-76 0 l0 31 l-470 0 l0 -34 l-73 0 ZM275 420 q41 -49 58 -95 l-35 -11 l162 0 l0 106 l-185 0 ZM535 314 l160 0 l-35 8 q42 60 60 98 l-185 0 l0 -106 ZM56 254 l0 60 l203 0 q-23 54 -53 91 l55 15 l-175 0 l0 57 l374 0 l0 69 l-287 0 l0 56 l287 0 l0 67 l-347 0 l0 57 l192 0 q-22 48 -55 90 l66 20 q48 -57 66 -106 l-11 -4 l243 0 q40 64 61 112 l76 -18 q-32 -54 -61 -94 l200 0 l0 -57 l-355 0 l0 -67 l293 0 l0 -56 l-293 0 l0 -69 l385 0 l0 -57 l-186 0 l61 -14 q-35 -59 -63 -92 l214 0 l0 -60 l-890 0 Z" /><glyph glyph-name="" unicode="&#x5668;" d="M623 579 l187 0 l0 153 l-187 0 l0 -153 ZM556 519 l0 274 l324 0 l0 -274 l-324 0 ZM612 23 l182 0 l0 159 l-182 0 l0 -159 ZM205 23 l179 0 l0 159 l-179 0 l0 -159 ZM191 579 l185 0 l0 153 l-185 0 l0 -153 ZM31 219 q180 59 292 157 l-267 0 l0 67 l332 0 q31 37 51 76 l-315 0 l0 274 l322 0 l0 -260 l6 13 l72 -23 q-20 -44 -45 -80 l467 0 l0 -67 l-277 0 q56 -51 138 -92 q81 -40 167 -60 q-24 -23 -47 -60 q-35 10 -64 21 l0 -260 l-69 0 l0 34 l-182 0 l0 -37 l-66 0 l0 323 l191 0 q-101 59 -161 131 l-151 0 q-71 -75 -167 -131 l195 0 l0 -320 l-69 0 l0 34 l-179 0 l0 -37 l-66 0 l0 265 q-29 -13 -62 -24 q-16 28 -46 56 Z" /><glyph glyph-name="" unicode="&#x56de;" d="M376 271 l242 0 l0 228 l-242 0 l0 -228 ZM305 205 l0 361 l386 0 l0 -361 l-386 0 ZM161 48 l675 0 l0 673 l-675 0 l0 -673 ZM86 -76 l0 871 l829 0 l0 -871 l-79 0 l0 54 l-675 0 l0 -54 l-75 0 Z" /><glyph glyph-name="" unicode="&#x56e2;" d="M217 228 q155 53 291 137 l0 153 l-282 0 l0 65 l282 0 l0 105 l69 0 l0 -105 l205 0 l0 -65 l-205 0 l0 -107 q58 43 108 94 l56 -46 q-72 -72 -164 -129 l0 -187 q0 -29 -7.5 -44.5 q-7.5 -15.5 -26.5 -23.5 q-27 -12 -129 -12 q-5 29 -24 64 q35 -1 63 -1 q29 0 38 1 q17 1 17 17 l0 145 q-126 -70 -249 -114 q-19 31 -42 53 ZM157 31 l683 0 l0 694 l-683 0 l0 -694 ZM87 -77 l0 870 l826 0 l0 -870 l-73 0 l0 42 l-683 0 l0 -42 l-70 0 Z" /><glyph glyph-name="" unicode="&#x56f0;" d="M200 200 q66 39 128 117 q59 74 99 163 l-206 0 l0 65 l242 0 l0 138 l68 0 l0 -138 l256 0 l0 -65 l-221 0 q40 -88 101 -160 q64 -75 134 -114 q-28 -21 -48 -54 q-64 42 -123 116 q-58 72 -99 159 l0 -336 l-68 0 l0 333 q-41 -86 -97 -159 q-57 -73 -119 -117 q-20 29 -47 52 ZM161 37 l678 0 l0 683 l-678 0 l0 -683 ZM87 -78 l0 868 l828 0 l0 -868 l-76 0 l0 47 l-678 0 l0 -47 l-74 0 Z" /><glyph glyph-name="" unicode="&#x56f4;" d="M211 270 l0 63 l248 0 l0 85 l-192 0 l0 60 l192 0 l0 82 l-234 0 l0 62 l234 0 l0 81 l70 0 l0 -81 l247 0 l0 -62 l-247 0 l0 -82 l208 0 l0 -60 l-208 0 l0 -85 l256 0 q-1 -14 -3 -28 q-14 -142 -40 -168 q-18 -18 -50 -21 q-22 -1 -48 -1 q-24 0 -46 1 q-2 29 -16 60 q36 -4 79 -4 q21 0 28 7 q14 17 23 91 l-183 0 l0 -204 l-70 0 l0 204 l-248 0 ZM155 37 l689 0 l0 693 l-689 0 l0 -693 ZM85 -76 l0 872 l832 0 l0 -872 l-73 0 l0 49 l-689 0 l0 -49 l-70 0 Z" /><glyph glyph-name="" unicode="&#x56fd;" d="M230 134 l0 63 l230 0 l0 168 l-188 0 l0 64 l188 0 l0 142 l-216 0 l0 67 l511 0 l0 -67 l-225 0 l0 -142 l200 0 l0 -64 l-200 0 l0 -168 l245 0 l0 -63 l-545 0 ZM593 321 l47 26 q69 -60 101 -109 l-51 -30 q-28 46 -97 113 ZM164 42 l669 0 l0 680 l-669 0 l0 -680 ZM90 -77 l0 868 l820 0 l0 -868 l-77 0 l0 50 l-669 0 l0 -50 l-74 0 Z" /><glyph glyph-name="" unicode="&#x5728;" d="M334 -53 l0 70 l263 0 l0 281 l-224 0 l0 70 l224 0 l0 191 l74 0 l0 -191 l225 0 l0 -70 l-225 0 l0 -281 l264 0 l0 -70 l-601 0 ZM42 285 q161 114 264 326 l-240 0 l0 71 l273 0 q31 76 53 155 l76 -19 q-17 -58 -48 -136 l515 0 l0 -71 l-545 0 q-56 -116 -121 -204 l0 -480 l-73 0 l0 392 q-49 -53 -116 -101 q-11 31 -38 67 Z" /><glyph glyph-name="" unicode="&#x5730;" d="M36 156 q55 19 137 54 l0 317 l-128 0 l0 71 l128 0 l0 227 l70 0 l0 -227 l117 0 l0 -71 l-117 0 l0 -289 q7 3 21 9 q61 27 93 39 l15 -66 q-85 -40 -251 -113 q-38 -17 -56 -25 l-29 74 ZM321 426 l108 46 l0 272 l71 0 l0 -242 l134 57 l0 278 l71 0 l0 -249 l132 56 l16 14 l14 11 l52 -20 l-4 -14 q0 -326 -10 -374 q-7 -54 -53 -66 q-28 -7 -94 -7 q-7 44 -18 64 q24 -1 67 -1 q24 0 30 26 q7 34 7 294 l-139 -59 l0 -367 l-71 0 l0 337 l-134 -57 l0 -346 q0 -40 15 -53 q15 -13 63 -13 l241 0 q43 0 57 28 q13 26 18 114 q31 -22 67 -29 q-9 -106 -35 -141 q-29 -39 -105 -39 l-245 0 q-86 0 -116.5 27.5 q-30.5 27.5 -30.5 106.5 l0 315 l-79 -33 l-29 64 Z" /><glyph glyph-name="" unicode="&#x5747;" d="M393 151 q87 28 352 125 q10 4 15 6 l12 -63 q-30 -12 -91 -36 q-184 -73 -258 -102 l-30 70 ZM439 404 l0 67 l308 0 l0 -67 l-308 0 ZM37 163 q51 18 144 54 l0 317 l-125 0 l0 71 l125 0 l0 226 l72 0 l0 -226 l117 0 l0 -71 q90 128 137 303 l75 -17 q-22 -74 -53 -149 l411 0 q0 -19 -1 -39 q-12 -355 -26 -486 q-14 -144 -44 -180 q-16 -21 -35 -31 q-17 -8 -46 -10 q-19 -2 -52 -2 q-38 0 -104 3 q-2 41 -23 75 q66 -7 151 -7 q28 0 43 16 q24 26 37.5 158 q13.5 132 23.5 434 l-366 0 q-50 -101 -111 -173 q-26 26 -64 47 q28 32 47 58 l-117 0 l0 -288 q58 23 124 50 l16 -69 q-102 -44 -299 -127 q-20 -8 -30 -12 l-27 75 Z" /><glyph glyph-name="" unicode="&#x578b;" d="M678 369 q43 -1 77 -1 q34 0 45 1 q11 0 15 3.5 q4 3.5 4 14.5 l0 443 l71 0 l0 -445 q0 -32 -8 -47.5 q-8 -15.5 -30 -24.5 q-33 -12 -149 -12 q-5 31 -25 68 ZM634 447 l0 333 l69 0 l0 -333 l-69 0 ZM266 593 l123 0 l0 137 l-123 0 l0 -131 l0 -6 ZM62 340 q108 66 130 187 l-121 0 l0 66 l126 0 l0 8 l0 129 l-93 0 l0 66 l448 0 l0 -66 l-93 0 l0 -137 l113 0 l0 -66 l-113 0 l0 -214 l-70 0 l0 214 l-128 0 q-22 -158 -150 -239 q-22 31 -49 52 ZM51 -43 l0 70 l417 0 l0 126 l-314 0 l0 68 l314 0 l0 112 l75 0 l0 -112 l302 0 l0 -68 l-302 0 l0 -126 l406 0 l0 -70 l-898 0 Z" /><glyph glyph-name="" unicode="&#x57fa;" d="M126 -49 l0 63 l335 0 l0 105 l-204 0 l0 61 l204 0 l0 84 l74 0 l0 -84 l209 0 l0 -61 l-209 0 l0 -105 l345 0 l0 -63 l-754 0 ZM320 359 l363 0 l0 71 l-363 0 l0 -71 ZM320 611 l363 0 l0 67 l-363 0 l0 -67 ZM320 486 l363 0 l0 69 l-363 0 l0 -69 ZM39 129 q63 25 123 69.5 q60 44.5 103 97.5 l-216 0 l0 63 l198 0 l0 319 l-152 0 l0 62 l152 0 l0 96 l73 0 l0 -96 l363 0 l0 96 l75 0 l0 -96 l150 0 l0 -62 l-150 0 l0 -319 l193 0 l0 -63 l-212 0 q42 -49 102 -90 q60 -41 123 -64 q-26 -21 -49 -57 q-72 30 -141 88 q-67 56 -113 123 l-313 0 q-47 -69 -117.5 -129.5 q-70.5 -60.5 -143.5 -94.5 q-21 35 -48 57 Z" /><glyph glyph-name="" unicode="&#x586b;" d="M492 507 l306 0 l0 63 l-306 0 l0 -63 ZM492 395 l306 0 l0 64 l-306 0 l0 -64 ZM492 281 l306 0 l0 65 l-306 0 l0 -65 ZM346 691 l0 63 l261 0 l0 83 l71 0 l0 -83 l267 0 l0 -63 l-267 0 l0 -71 l190 0 l0 -390 l-444 0 l0 390 l183 0 l0 71 l-261 0 ZM318 110 l0 65 l640 0 l0 -65 l-640 0 ZM37 156 q46 17 136 54 l0 314 l-117 0 l0 70 l117 0 l0 230 l69 0 l0 -230 l106 0 l0 -70 l-106 0 l0 -285 l114 47 l17 -68 q-119 -54 -307 -136 l-29 74 ZM289 -25 q144 49 226 120 l68 -24 q-43 -42 -111 -83 q-63 -38 -128 -65 q-32 35 -55 52 ZM697 60 l52 38 q130 -71 216 -137 l-68 -37 q-80 68 -200 136 Z" /><glyph glyph-name="" unicode="&#x5883;" d="M537 698 q30 -49 43 -104 l-41 -11 l212 0 l-31 8 q29 55 48 107 l-231 0 ZM37 156 q36 13 126 52 q6 3 9 4 l0 312 l-116 0 l0 70 l116 0 l0 232 l69 0 l0 -232 l105 0 l0 -11 l166 0 q-12 50 -39 103 l47 12 l-143 0 l0 61 l235 0 l0 76 l72 0 l0 -76 l249 0 l0 -61 l-147 0 l55 -13 q-6 -12 -18 -36 q-25 -47 -36 -66 l169 0 l0 -62 l-612 0 l0 3 l-103 0 l0 -281 q38 17 116 53 l16 -67 l-309 -147 l-27 74 ZM485 221 l342 0 l0 74 l-342 0 l0 -74 ZM485 344 l342 0 l0 74 l-342 0 l0 -74 ZM277 -15 q116 24 172 70 q49 40 66 114 l-100 0 l0 301 l485 0 l0 -301 l-137 0 l0 -149 q0 -17 5 -21.5 q5 -4.5 23 -4.5 l80 0 q18 0 23 17 q6 18 7 83 q24 -18 63 -26 q-5 -82 -23 -110 q-17 -27 -62 -27 l-97 0 q-54 0 -72 18 q-18 18 -18 70 l0 150 l-104 0 q-20 -97 -76 -153 q-64 -61 -193 -93 q-17 39 -42 62 Z" /><glyph glyph-name="" unicode="&#x58f0;" d="M225 233 l238 0 l0 153 l-234 0 l0 -69 q0 -45 -4 -84 ZM535 233 l254 0 l0 153 l-254 0 l0 -153 ZM33 -31 q123 118 123 348 l0 132 l707 0 l0 -331 l-74 0 l0 50 l-573 0 q-33 -159 -127 -250 q-7 11 -26 27 q-17 16 -30 24 ZM74 689 l0 65 l387 0 l0 85 l75 0 l0 -85 l390 0 l0 -65 l-390 0 l0 -98 l347 0 l0 -64 l-750 0 l0 64 l328 0 l0 98 l-387 0 Z" /><glyph glyph-name="" unicode="&#x590d;" d="M384 204 q46 -58 124 -107 q78 51 122 112 l-241 0 l-5 -5 ZM355 374 l298 0 l0 68 l-298 0 l0 -68 ZM355 492 l298 0 l0 69 l-298 0 l0 -69 ZM160 576 q59 47 108.5 116.5 q49.5 69.5 79.5 146.5 l72 -21 q-16 -39 -38 -80 l390 0 l0 -65 l-428 0 q-18 -27 -44 -60 l423 0 l0 -292 l-245 0 q-20 -31 -39 -56 l232 0 l14 3 l46 -24 q-54 -108 -160 -181 q114 -56 256 -77 q-21 -19 -46 -63 q-154 29 -273 100 q-126 -70 -297 -103 q-13 31 -35 59 q151 24 271 84 q-65 49 -106 103 q-59 -50 -123 -85 q-19 27 -52 51 q154 74 233 189 l-112 0 l0 275 q-29 -35 -69 -72 q-30 35 -58 52 Z" /><glyph glyph-name="" unicode="&#x5916;" d="M196 476 q117 -69 187 -131 q54 122 82 270 l-195 0 q-39 -84 -74 -139 ZM31 391 q81 75 144 194 q60 114 95 252 l73 -15 q-21 -76 -45 -138 l188 0 l14 4 l48 -18 q-3 -21 -11 -62 q-3 -15 -4 -22 l39 15 q39 -72 102 -146 l0 381 l76 0 l0 -459 q108 -102 231 -158 q-26 -21 -53 -63 q-89 46 -178 124 l0 -354 l-76 0 l0 427 q-91 97 -149 196 q-104 -447 -413 -620 q-27 36 -59 55 q185 96 296 294 q-74 71 -191 142 q-33 -44 -66 -77 q-20 21 -61 48 Z" /><glyph glyph-name="" unicode="&#x591a;" d="M331 647 q117 -60 177 -112 q109 72 172 155 l-286 0 q-26 -19 -63 -43 ZM68 364 q202 37 376 133 q-66 57 -175 113 q-64 -35 -142 -67 q-19 31 -51 55 q127 45 230 113 q92 60 148 127 l83 -18 q-28 -32 -66 -67 l256 0 l13 4 l47 -30 q-90 -162 -291 -279 q-175 -102 -392 -149 q-14 40 -36 65 ZM457 285 q120 -67 190 -131 q121 80 184 188 l-287 0 q-40 -30 -87 -57 ZM143 -11 q257 31 438 126 q-78 73 -192 134 q-85 -42 -166 -70 q-22 35 -46 56 q149 47 268 121 q108 67 170 143 l82 -19 q-37 -42 -73 -74 l248 0 l14 3 l48 -27 q-161 -373 -758 -460 q-13 40 -33 67 Z" /><glyph glyph-name="" unicode="&#x2f24;&#x5927;" d="M46 -14 q312 136 389 489 l-369 0 l0 76 l381 0 q13 92 15 254 q0 20 0 30 l80 0 q0 -1 0 -4 q-2 -177 -16 -280 l413 0 l0 -76 l-377 0 q55 -172 150 -293 q103 -130 243 -187 q-33 -31 -56 -70 q-270 128 -398 495 q-88 -353 -399 -495 q-19 35 -56 61 Z" /><glyph glyph-name="" unicode="&#x5929;" d="M44 -14 q197 67 296 177 q81 88 104 212 l-350 0 l0 76 l358 0 q2 19 2 57 l0 176 l-391 0 l0 76 l873 0 l0 -76 l-404 0 l0 -177 q0 -37 -1 -56 l380 0 l0 -76 l-357 0 q102 -309 408 -384 q-28 -25 -51 -69 q-150 43 -250 138 q-97 90 -155 236 q-75 -256 -417 -374 q-5 14 -19 34 q-14 20 -26 30 Z" /><glyph glyph-name="" unicode="&#x5934;" d="M195 738 l41 54 q62 -22 125 -53 q67 -34 103 -63 l-42 -60 q-36 30 -102 65 q-64 34 -125 57 ZM106 557 l45 52 q62 -23 124 -56 q67 -35 103 -65 l-47 -58 q-35 30 -100 67 q-64 35 -125 60 ZM537 167 l39 52 q104 -48 203 -109 q99 -62 160 -116 l-49 -56 q-59 55 -155 117 q-95 61 -198 112 ZM61 -11 q184 44 288 127 q94 76 136 196 l-424 0 l0 69 l443 0 q16 75 21 183 q3 66 4 214 q0 32 0 48 l76 0 q0 -6 0 -17 q-1 -157 -4 -229 q-6 -117 -22 -199 l364 0 l0 -69 l-381 0 q-42 -144 -143 -234 q-112 -100 -315 -151 q-14 31 -43 62 Z" /><glyph glyph-name="" unicode="&#x5982;" d="M160 308 q69 -37 141 -85 q67 137 89 340 l-164 0 q-34 -138 -66 -255 ZM47 563 l0 70 l124 0 q31 130 45 204 l72 -9 q-11 -51 -38 -165 q-5 -20 -7 -30 l165 0 l14 2 l45 -9 q-22 -275 -106 -445 q83 -60 131 -114 l-44 -63 q-45 51 -124 113 q-81 -126 -218 -194 q-22 39 -45 61 q124 55 204 177 q-65 45 -124 80 l-13 -45 l-64 32 q40 126 91 335 l-108 0 ZM602 94 l245 0 l0 565 l-245 0 l0 -565 ZM532 -51 l0 780 l387 0 l0 -765 l-72 0 l0 60 l-245 0 l0 -75 l-70 0 Z" /><glyph glyph-name="" unicode="&#x59a8;" d="M151 306 q64 -37 116 -74 q58 137 77 331 l-132 0 q-32 -143 -61 -257 ZM47 563 l0 68 l109 0 q23 103 41 205 l71 -8 q-17 -88 -41 -197 l135 0 l13 3 l44 -10 q-19 -267 -93 -436 q68 -54 103 -97 l-45 -59 q-30 38 -91 91 q-72 -129 -192 -201 q-20 35 -46 60 q111 58 181 186 q-49 37 -103 71 l-11 -42 l-62 32 q36 130 82 334 l-95 0 ZM379 -25 q87 58 133 158 q40 86 56 215 q10 88 14 254 l-148 0 l0 69 l218 0 l0 165 l72 0 l0 -165 l233 0 l0 -69 l-302 0 q-1 -17 -2 -49 q-2 -70 -4 -103 l268 0 q0 -16 -1 -33 q-7 -238 -17 -331 q-10 -99 -32 -125 q-21 -28 -65 -33 q-20 -1 -49 -1 q-39 0 -80 2 q-2 43 -21 71 q64 -5 118 -5 q26 0 36 12 q15 18 24 100 q9 86 15 276 l-202 0 q-15 -161 -59 -265 q-52 -125 -153 -197 q-19 30 -52 54 Z" /><glyph glyph-name="" unicode="&#x59cb;" d="M422 492 l79 4 q69 160 115 341 l81 -17 q-68 -198 -123 -320 q82 5 268 17 q-42 74 -91 136 l60 30 q51 -65 95 -137 q46 -76 65 -129 l-64 -36 q-11 33 -30 71 q-34 -3 -103 -8 q-251 -18 -344 -24 l-8 72 ZM148 307 q69 -40 117 -74 q57 137 76 329 l-130 0 q-28 -117 -63 -255 ZM47 562 l0 69 l109 0 q18 83 42 206 l71 -8 q-16 -83 -43 -198 l133 0 l13 2 l45 -9 q-19 -268 -93 -435 q75 -58 116 -108 l-45 -59 q-37 46 -103 101 q-75 -131 -193 -202 q-24 40 -46 60 q111 58 181 188 q-53 40 -103 71 l-12 -43 l-62 33 q31 105 84 332 l-94 0 ZM561 35 l279 0 l0 223 l-279 0 l0 -223 ZM490 -77 l0 403 l424 0 l0 -399 l-74 0 l0 41 l-279 0 l0 -45 l-71 0 Z" /><glyph glyph-name="" unicode="&#x5a92;" d="M143 314 q42 -30 102 -80 q52 137 68 329 l-115 0 q-27 -131 -55 -249 ZM43 563 l0 68 l100 0 q23 119 37 205 l71 -7 q-17 -96 -38 -198 l116 0 l13 2 l43 -7 q-16 -271 -84 -441 q65 -60 95 -101 l-44 -57 q-33 44 -82 92 q-65 -124 -174 -195 q-21 37 -45 60 q102 59 165 186 q-52 47 -89 75 l-11 -44 l-60 36 q36 136 73 326 l-86 0 ZM545 426 l237 0 l0 92 l-237 0 l0 -92 ZM545 575 l237 0 l0 89 l-237 0 l0 -89 ZM342 7 q68 30 133 85.5 q65 55.5 108 119.5 l-202 0 l0 64 l246 0 l0 89 l-150 0 l0 299 l-104 0 l0 64 l104 0 l0 109 l68 0 l0 -109 l237 0 l0 109 l71 0 l0 -109 l100 0 l0 -64 l-100 0 l0 -299 l-154 0 l0 -89 l254 0 l0 -64 l-212 0 q43 -60 104.5 -114.5 q61.5 -54.5 121.5 -85.5 q-34 -30 -51 -59 q-56 35 -114.5 94 q-58.5 59 -102.5 123 l0 -246 l-72 0 l0 242 q-46 -69 -108 -126.5 q-62 -57.5 -126 -91.5 q-25 35 -51 59 Z" /><glyph glyph-name="" unicode="&#x5b57;" d="M83 495 l0 234 l377 0 l0 109 l77 0 l0 -109 l379 0 l0 -234 l-76 0 l0 164 l-684 0 l0 -164 l-73 0 ZM74 230 l0 71 l388 0 l0 74 l37 0 q76 44 141 106 l-405 0 l0 69 l474 0 l16 4 l49 -37 q-96 -109 -234 -185 l0 -31 l389 0 l0 -71 l-389 0 l0 -214 q0 -33 -10.5 -51 q-10.5 -18 -36.5 -27 q-37 -12 -170 -12 q-11 37 -34 73 q56 -2 107 -2 q32 0 43 1 q14 1 18.5 5 q4.5 4 4.5 14 l0 213 l-388 0 Z" /><glyph glyph-name="" unicode="&#x5b58;" d="M35 284 q169 120 277 351 l-246 0 l0 72 l277 0 q23 58 43 130 l78 -20 q-16 -52 -38 -110 l509 0 l0 -72 l-539 0 q-53 -122 -131 -229 l0 -480 l-74 0 l0 392 q-52 -56 -116 -102 q-16 39 -40 68 ZM336 197 l0 70 l279 0 l0 92 l29 0 q60 38 119 97 l-342 0 l0 67 l407 0 l15 5 l48 -36 q-83 -97 -202 -174 l0 -51 l265 0 l0 -70 l-265 0 l0 -186 q0 -33 -9 -50 q-9 -17 -33 -26 q-36 -11 -173 -11 q-7 36 -24 70 q42 -1 90 -1 q16 0 39 0 q11 0 14 0 q13 1 17.5 4.5 q4.5 3.5 4.5 14.5 l0 185 l-279 0 Z" /><glyph glyph-name="" unicode="&#x5b83;" d="M266 -20.5 q-37 27.5 -37 106.5 l0 450 l76 0 l0 -221 q275 77 411 152 l61 -58 q-171 -84 -472 -161 l0 -162 q0 -37 19 -48.5 q19 -11.5 83 -11.5 l302 0 q56 0 74 29 q16 27 24 126 q31 -20 73 -30 q-11 -119 -42 -158 q-34 -41 -128 -41 l-303 0 q-104 0 -141 27.5 ZM89 484 l0 228 l369 0 l0 125 l79 0 l0 -125 l373 0 l0 -228 l-77 0 l0 155 l-670 0 l0 -155 l-74 0 Z" /><glyph glyph-name="" unicode="&#x5b8c;" d="M83 521 l0 209 l376 0 l0 106 l77 0 l0 -106 l380 0 l0 -209 l-77 0 l0 139 l-681 0 l0 -139 l-75 0 ZM230 480 l0 69 l539 0 l0 -69 l-539 0 ZM38 -15 q149 37 213 119 q52 66 67 192 l-258 0 l0 70 l880 0 l0 -70 l-294 0 l0 -253 q0 -21 9 -27.5 q9 -6.5 40 -6.5 l140 0 q28 0 36.5 23.5 q8.5 23.5 10.5 108.5 q25 -16 68 -29 q-6 -102 -28 -136.5 q-22 -34.5 -81 -34.5 l-154 0 q-68 0 -91.5 21 q-23.5 21 -23.5 81 l0 253 l-175 0 q-19 -150 -79 -230 q-73 -98 -236 -144 q-18 40 -44 63 Z" /><glyph glyph-name="" unicode="&#x5b95;" d="M86 557 l0 186 l373 0 l0 93 l77 0 l0 -93 l377 0 l0 -186 l-78 0 l0 115 l-674 0 l0 -115 l-75 0 ZM325 42 l478 0 l0 192 l-478 0 l0 -192 ZM30 100 q101 58 186 154 q80 90 129 194 l-284 0 l0 71 l876 0 l0 -71 l-504 0 q-35 -74 -83 -145 l527 0 l0 -371 l-74 0 l0 43 l-478 0 l0 -50 l-73 0 l0 255 q-85 -88 -174 -141 q-15 26 -48 61 Z" /><glyph glyph-name="" unicode="&#x5b9a;" d="M85 506 l0 216 l375 0 l0 114 l77 0 l0 -114 l378 0 l0 -216 l-76 0 l0 146 l-681 0 l0 -146 l-73 0 ZM38 -31 q151 117 187 407 l76 -7 q-9 -69 -24 -133 q52 -143 184 -193 l0 419 l-248 0 l0 70 l579 0 l0 -70 l-255 0 l0 -166 l296 0 l0 -69 l-296 0 l0 -204 q65 -12 162 -12 q208 0 256 1 q-22 -34 -28 -75 l-232 0 q-170 0 -267 39 q-116 47 -180 166 q-53 -139 -149 -223 q-27 29 -61 50 Z" /><glyph glyph-name="" unicode="&#x5b9e;" d="M94 521 l0 202 l365 0 l0 114 l79 0 l0 -114 l370 0 l0 -202 l-76 0 l0 132 l-665 0 l0 -132 l-73 0 ZM242 555 l45 47 q100 -55 148 -109 l-47 -53 q-21 25 -63 58 q-42 33 -83 57 ZM144 401 l43 50 q108 -59 156 -110 l-45 -56 q-49 55 -154 116 ZM75 192 l0 65 l387 0 q21 63 31 155 q6 66 10 191 l77 0 q-7 -232 -39 -346 l390 0 l0 -65 l-361 0 q212 -105 335 -211 l-50 -55 q-123 112 -355 231 q-48 -84 -134 -138 q-92 -58 -239 -92 q-15 37 -42 64 q140 29 224 80 q81 47 123 121 l-357 0 Z" /><glyph glyph-name="" unicode="&#x5ba2;" d="M81 560 l0 187 l379 0 l0 89 l75 0 l0 -89 l383 0 l0 -187 l-74 0 l0 118 l-692 0 l0 -118 l-71 0 ZM292 229 l445 0 q-131 37 -235 94 q-94 -53 -210 -94 ZM299 22 l404 0 l0 145 l-404 0 l0 -145 ZM351 524 q56 -66 152 -121 q93 58 152 125 l-301 0 l-3 -4 ZM39 233 q217 39 395 131 q-80 53 -135 117 q-69 -55 -156 -98 q-21 33 -50 53 q98 43 175 107 q69 56 109 118 l80 -15 q-24 -35 -46 -59 l295 0 l13 3 l50 -31 q-68 -105 -197 -192 q165 -77 388 -105 q-28 -30 -47 -71 q-69 11 -135 27 l0 -292 l-75 0 l0 32 l-404 0 l0 -33 l-71 0 l0 283 q-70 -22 -152 -40 q-14 39 -37 65 Z" /><glyph glyph-name="" unicode="&#x5ba3;" d="M84 552 l0 192 l376 0 l0 92 l75 0 l0 -92 l381 0 l0 -192 l-74 0 l0 125 l-686 0 l0 -125 l-72 0 ZM205 526 l0 62 l588 0 l0 -62 l-588 0 ZM293 146 l408 0 l0 97 l-408 0 l0 -97 ZM293 299 l408 0 l0 95 l-408 0 l0 -95 ZM222 87 l0 366 l552 0 l0 -366 l-552 0 ZM65 -49 l0 68 l869 0 l0 -68 l-869 0 Z" /><glyph glyph-name="" unicode="&#x5bb3;" d="M90 562 l0 175 l370 0 l0 100 l75 0 l0 -100 l379 0 l0 -175 l-76 0 l0 108 l-676 0 l0 -108 l-72 0 ZM275 17 l458 0 l0 130 l-458 0 l0 -130 ZM203 -76 l0 284 l605 0 l0 -281 l-75 0 l0 29 l-458 0 l0 -32 l-72 0 ZM63 268 l0 61 l398 0 l0 76 l-299 0 l0 58 l299 0 l0 66 l-264 0 l0 60 l264 0 l0 72 l73 0 l0 -72 l273 0 l0 -60 l-273 0 l0 -66 l313 0 l0 -58 l-313 0 l0 -76 l406 0 l0 -61 l-877 0 Z" /><glyph glyph-name="" unicode="&#x5bb9;" d="M86 565 l0 180 l374 0 l0 92 l75 0 l0 -92 l380 0 l0 -180 l-76 0 l0 112 l-681 0 l0 -112 l-72 0 ZM586 587 l51 44 q72 -43 143 -95 q78 -56 118 -97 l-54 -50 q-40 42 -115 99 q-73 56 -143 99 ZM93 442 q70 35 133 84 q66 51 107 104 l71 -23 q-48 -63 -120 -124 q-67 -58 -138 -99 q-27 36 -53 58 ZM292 257 l433 0 q-145 99 -224 194 q-72 -95 -209 -194 ZM298 24 l403 0 l0 166 l-403 0 l0 -166 ZM49 198 q124 56 239 147 q111 88 172 175 l74 0 q78 -94 197 -179 q115 -82 232 -129 q-24 -27 -47 -67 q-67 33 -141 79 l0 -297 l-74 0 l0 30 l-403 0 l0 -34 l-71 0 l0 290 q-66 -42 -136 -77 q-13 29 -42 62 Z" /><glyph glyph-name="" unicode="&#x5bc4;" d="M77 581 l0 176 l385 0 l0 80 l73 0 l0 -80 l388 0 l0 -176 l-71 0 l0 111 l-706 0 l0 -111 l-69 0 ZM260 85 l252 0 l0 102 l-252 0 l0 -102 ZM190 -23 l0 268 l391 0 l0 -218 l-321 0 l0 -50 l-70 0 ZM61 307 l0 67 l700 0 q-125 65 -298 112 q-39 -42 -107 -68.5 q-68 -26.5 -178 -43.5 q-10 31 -34 55 q122 16 189 45 q65 29 96 78 l-245 0 l0 60 l271 0 q8 30 12 67 l69 0 q-5 -44 -11 -67 l291 0 l0 -60 l-310 0 q-4 -9 -9 -18 q86 -22 176 -55 q92 -33 148 -63 l-30 -42 l149 0 l0 -67 l-144 0 l0 -300 q0 -32 -8 -47 q-10 -17 -33 -25 q-29 -10 -127 -10 q-5 0 -16 0 q-12 0 -18 0 q-4 20 -23 67 q60 -2 132 -2 q12 1 15.5 4.5 q3.5 3.5 3.5 14.5 l0 298 l-661 0 Z" /><glyph glyph-name="" unicode="&#x5bc6;" d="M81 557 l0 194 l379 0 l0 85 l75 0 l0 -85 l387 0 l0 -194 l-75 0 l0 127 l-694 0 l0 -127 l-72 0 ZM353 626 l38 43 q46 -20 95.5 -49.5 q49.5 -29.5 77.5 -54.5 l-40 -48 q-27 26 -75.5 57 q-48.5 31 -95.5 52 ZM51 375 q94 55 133 177 l62 -23 q-47 -139 -138 -194 l-57 40 ZM41 271 q146 35 265 88 q0 7 0 14 l0 195 l68 0 l0 -178 q201 101 303 239 l64 -28 q-111 -148 -321 -260 l18 0 l191 0 q34 0 44 18 q10 18 13 83 q23 -16 62 -24 q-7 -83 -29 -110 q-22 -27 -83 -27 l-202 0 q-75 0 -101 18 q-112 -50 -249 -89 q-12 28 -43 61 ZM164 -76 l0 285 l72 0 l0 -174 l225 0 l0 231 l74 0 l0 -231 l238 0 l0 174 l74 0 l0 -283 l-74 0 l0 41 l-537 0 l0 -43 l-72 0 ZM726 511 l53 36 q53 -41 103 -94 q51 -54 76 -95 l-57 -41 q-24 41 -74 97 q-49 54 -101 97 Z" /><glyph glyph-name="" unicode="&#x5bf9;" d="M49 -15 q137 90 228 283 q-88 101 -182 185 l52 46 q83 -72 161 -156 q49 129 72 290 l-307 0 l0 71 l326 0 l14 3 l47 -14 q-23 -227 -95 -412 q93 -107 130 -175 l-58 -55 q-32 59 -106 154 q-89 -178 -230 -279 q-22 36 -52 59 ZM483 526 l0 71 l280 0 l0 240 l73 0 l0 -240 l119 0 l0 -71 l-119 0 l0 -501 q0 -37 -9.5 -56 q-9.5 -19 -32.5 -29 q-35 -15 -165 -15 q-6 39 -25 77 q52 -2 97 -2 q27 0 38 1 q13 1 18.5 6 q5.5 5 5.5 18 l0 501 l-280 0 ZM502 394 l61 27 q37 -51 68 -112 q31 -62 43 -107 l-64 -33 q-12 45 -42 109 q-31 64 -66 116 Z" /><glyph glyph-name="" unicode="&#x5bfc;" d="M215 627 l536 0 l0 105 l-536 0 l0 -105 ZM184 416 q-45 23 -45 91 l0 290 l685 0 l0 -236 l-609 0 l0 -53 q0 -32 24.5 -42 q24.5 -10 105.5 -10 l398 0 q60 0 79 16 q19 16 25 71 q28 -16 71 -24 q-10 -76 -43.5 -100.5 q-33.5 -24.5 -127.5 -24.5 l-397 0 q-124 0 -166 22 ZM65 222 l0 69 l582 0 l0 77 l75 0 l0 -77 l220 0 l-1 -69 l-219 0 l0 -209 q0 -34 -10.5 -51 q-10.5 -17 -36.5 -24 q-24 -7 -73 -10 q-31 -1 -118 -1 q-6 31 -26 67 q49 -2 102 -2 q43 0 62 1 q14 0 19.5 4.5 q5.5 4.5 5.5 16.5 l0 208 l-375 0 q113 -94 159 -169 l-55 -49 q-22 38 -69 90 q-45 50 -93 90 l44 38 l-193 0 Z" /><glyph glyph-name="" unicode="&#x5c01;" d="M49 435 l0 68 l195 0 l0 137 l-164 0 l0 68 l164 0 l0 129 l72 0 l0 -129 l162 0 l0 -68 l-162 0 l0 -137 l183 0 l0 -68 l-450 0 ZM40 39 q6 1 19 3 q116 16 185 27 l0 159 l-172 0 l0 67 l172 0 l0 117 l72 0 l0 -117 l171 0 l0 -67 l-171 0 l0 -148 l198 32 l4 -69 q-42 -7 -126 -21 q-249 -42 -341 -58 l-11 75 ZM514 532 l0 72 l270 0 l0 224 l73 0 l0 -224 l98 0 l0 -72 l-98 0 l0 -512 q0 -34 -10 -52 q-10 -18 -32 -28 q-39 -15 -162 -15 q-6 31 -29 73 q39 -1 85 -1 q15 0 37 0 q10 0 13 0 q14 1 19.5 6 q5.5 5 5.5 17 l0 512 l-270 0 ZM552 418 l64 23 q69 -137 100 -225 l-67 -28 q-29 87 -97 230 Z" /><glyph glyph-name="" unicode="&#x5c06;" d="M40 681 l60 29 q87 -117 116 -202 l-64 -34 q-14 43 -46 101 q-32 59 -66 106 ZM30 186 q96 54 200 117 l0 533 l71 0 l0 -911 l-71 0 l0 298 q-63 -45 -163 -111 l-37 74 ZM333 744 q346 40 513 93 l53 -58 q-187 -56 -545 -95 q-3 28 -21 60 ZM565 671 l65 16 q40 -97 49 -179 l-69 -18 q-7 80 -45 181 ZM370 633 l61 20 q54 -92 74 -180 l-66 -24 q-17 82 -69 184 ZM423 222 l60 32 q40 -40 77 -87 q39 -51 57 -87 l-64 -38 q-17 37 -54 88 q-37 51 -76 92 ZM342 295 l0 69 l405 0 l0 63 l-49 28 q111 129 172 245 l68 -34 q-79 -122 -165 -223 l47 0 l0 -79 l136 0 l0 -69 l-136 0 l0 -281 q0 -33 -8 -50 q-10 -18 -33 -27 q-34 -12 -162 -12 q-5 34 -25 72 q51 -2 96 -2 q27 0 38 1 q13 1 17 4.5 q4 3.5 4 14.5 l0 280 l-405 0 Z" /><glyph glyph-name="" unicode="&#x5c31;" d="M769 778 l57 29 q37 -35 70 -81 q32 -45 48 -82 l-62 -31 q-15 37 -46 83 q-32 47 -67 82 ZM56 642 l0 68 l202 0 l0 127 l74 0 l0 -127 l196 0 l0 -68 l-472 0 ZM36 40 q62 77 93 210 l68 -14 q-34 -145 -104 -239 q-27 27 -57 43 ZM179 367 l232 0 l0 134 l-232 0 l0 -134 ZM110 303 l0 261 l372 0 l0 -261 l-150 0 l0 -295 q0 -29 -6 -44 q-7 -16 -26 -25 q-28 -12 -126 -12 q-7 37 -24 67 q34 -1 60 -1 q26 0 36 1 q16 1 16 15 l0 294 l-152 0 ZM384 238 l59 21 q50 -84 72 -168 l-62 -23 q-22 84 -69 170 ZM434 -35 q206 187 228 538 l-141 0 l0 71 l144 0 q1 19 1 54 l0 209 l72 0 l0 -208 q0 -36 -1 -55 l216 0 l0 -71 l-218 0 q0 -8 -2 -23 q-1 -17 -2 -26 l50 0 l0 -428 q0 -14 9 -19 q10 -7 27 -7 l41 0 q22 0 31 6 q13 7 16 26 q4 40 3 121 q20 -19 57 -31 q0 -95 -9 -135 q-10 -32 -34 -46 q-22 -11 -59 -11 l-63 0 q-39 0 -65 17 q-13 11 -17.5 27.5 q-4.5 16.5 -4.5 54.5 l0 301 q-51 -255 -215 -408 q-30 28 -64 43 Z" /><glyph glyph-name="" unicode="&#x5c3d;" d="M235 77 l37 57 q122 -24 261 -67 q142 -44 225 -83 l-41 -66 q-78 40 -220 86 q-138 46 -262 73 ZM327 322 l35 57 q76 -18 162.5 -48.5 q86.5 -30.5 137.5 -58.5 l-38 -64 q-50 28 -135.5 61 q-85.5 33 -161.5 53 ZM258 564 l523 0 l0 161 l-522 0 l0 -111 q0 -32 -1 -50 ZM39 146 q86 92 120 233 q24 98 24 236 l0 181 l672 0 l0 -303 l-151 0 q41 -110 107 -194 q70 -91 155 -135 q-28 -22 -53 -61 q-93 55 -168 159 q-71 101 -114 231 l-377 0 q-25 -263 -158 -403 q-8 12 -26.5 30 q-18.5 18 -30.5 26 Z" /><glyph glyph-name="" unicode="&#x5c3e;" d="M210 613 l598 0 l0 111 l-598 0 l0 -111 ZM35 -37 q62 104 86 267 q16 109 16 267 l0 292 l745 0 l0 -241 l-672 0 l0 -50 q0 -388 -109 -573 q-28 24 -66 38 ZM220 144 l266 41 l0 91 l-222 -34 l-11 62 l233 36 l0 85 q-115 -20 -207 -31 q-5 26 -21 54 q320 42 466 97 l62 -48 q-89 -31 -227 -59 l0 -88 l283 43 l11 -60 l-294 -45 l0 -92 l352 55 l12 -61 l-364 -57 l0 -82 q0 -28 12.5 -36 q12.5 -8 53.5 -8 l191 0 q33 0 43.5 20 q10.5 20 14.5 89 q26 -18 67 -28 q-8 -88 -31.5 -118.5 q-23.5 -30.5 -87.5 -30.5 l-203 0 q-78 0 -105.5 23 q-27.5 23 -27.5 89 l0 71 l-254 -40 l-12 62 Z" /><glyph glyph-name="" unicode="&#x5c5e;" d="M216 645 l594 0 l0 89 l-594 0 l0 -89 ZM36 -34 q65 105 90 268 q17 109 17 268 l0 291 l740 0 l0 -208 l-667 0 l0 -83 q0 -388 -116 -572 q-30 25 -64 36 ZM361 309 l175 0 l0 72 l-175 0 l0 -72 ZM605 309 l180 0 l0 72 l-180 0 l0 -72 ZM253 -78 l0 283 l283 0 l0 57 l-243 0 l0 166 l243 0 l0 54 q-133 -8 -248 -8 q-3 21 -15 49 q348 6 522 38 l45 -45 q-86 -17 -235 -29 l0 -59 l250 0 l0 -166 l-250 0 l0 -57 l294 0 l0 -215 q0 -25 -6 -37 q-7 -12 -26 -19 q-23 -10 -126 -10 q-4 20 -20 53 q36 -2 67 -2 q19 0 26 1 q16 1 16 14 l0 162 l-225 0 l0 -77 l91 3 q-14 22 -29 44 l44 14 q56 -73 89 -137 l-46 -18 q-13 24 -27 47 q-58 -3 -170 -8 q-136 -7 -191 -9 l-4 56 q40 1 141 4 q22 1 33 1 l0 80 l-214 0 l0 -230 l-69 0 Z" /><glyph glyph-name="" unicode="&#x2f2f;&#x5de5;" d="M55 0 l0 74 l402 0 l0 574 l-350 0 l0 76 l790 0 l0 -76 l-359 0 l0 -574 l409 0 l0 -74 l-892 0 Z" /><glyph glyph-name="" unicode="&#x5dee;" d="M244 -52 l0 66 l296 0 l0 175 l-201 0 l0 65 l515 0 l0 -65 l-238 0 l0 -175 l304 0 l0 -66 l-676 0 ZM42 -25 q160 110 220 354 l-203 0 l0 67 l402 0 l0 91 l-309 0 l0 63 l309 0 l0 87 l-357 0 l0 66 l203 0 q-27 56 -67 105 l63 26 q59 -68 80 -124 l-15 -7 l257 0 l-8 3 q42 60 73 132 l78 -22 q-39 -65 -75 -113 l210 0 l0 -66 l-367 0 l0 -87 l317 0 l0 -63 l-317 0 l0 -91 l404 0 l0 -67 l-599 0 q-66 -272 -237 -406 q-35 35 -62 52 Z" /><glyph glyph-name="" unicode="&#x2f30;&#x5df1;" d="M143 703 l0 75 l683 0 l0 -460 l-76 0 l0 63 l-519 0 l0 -298 q0 -40 25 -52.5 q25 -12.5 106 -12.5 l382 0 q55 0 79 13 q26 14 38 54 q10 33 17 115 q37 -23 74 -30 q-8 -93 -26 -137 q-19 -49 -61 -69 q-41 -19 -122 -19 l-377 0 q-122 0 -165 27 q-45 28 -45 111 l0 371 l594 0 l0 249 l-607 0 Z" /><glyph glyph-name="" unicode="&#x5df2;" d="M96 701 l0 73 l726 0 l0 -458 l-76 0 l0 50 l-522 0 l0 -264 q0 -47 24.5 -62 q24.5 -15 105.5 -15 l380 0 q56 0 81 15 q28 15 40 57 q11 36 18 122 q32 -22 75 -30 q-10 -97 -28 -143 q-20 -52 -62.5 -73 q-42.5 -21 -124.5 -21 l-374 0 q-122 0 -165 29 q-45 31 -45 122 l0 500 l75 0 l0 -164 l522 0 l0 262 l-650 0 Z" /><glyph glyph-name="" unicode="&#x5e0c;" d="M38 190 q160 84 277 253 l-255 0 l0 66 l295 0 q21 38 45 98 q-128 -38 -250 -64 q-23 36 -51 62 q179 30 342 82 q-136 48 -280 87 l51 45 q166 -43 326 -98 q142 53 231 118 l61 -41 q-76 -55 -200 -110 q144 -52 231 -96 l-55 -54 q-95 50 -268 114 q-22 -8 -68 -23 q-20 -7 -30 -10 l43 -12 q-20 -51 -45 -98 l500 0 l0 -66 l-538 0 q-37 -62 -90 -124 l190 0 l0 99 l72 0 l0 -99 l288 0 l0 -250 q0 -30 -8 -45 q-8 -15 -29 -24 q-20 -7 -59 -10 q-25 -1 -93 -1 q-5 27 -24 64 q43 -1 76 -1 q34 0 44 1 q20 0 20 17 l0 183 l-215 0 l0 -330 l-72 0 l0 330 l-197 0 l0 -272 l-73 0 l0 256 q-67 -60 -143 -103 q-20 30 -49 56 Z" /><glyph glyph-name="" unicode="&#x5e26;" d="M81 300 l0 203 l839 0 l0 -203 l-75 0 l0 139 l-311 0 l0 -113 l292 0 l0 -234 q0 -30 -7 -44 q-8 -16 -28 -24 q-19 -8 -55 -10 q-24 -2 -86 -2 q-6 34 -25 66 q43 -2 79 -2 q22 0 31 1 q10 1 13.5 4 q3.5 3 3.5 11 l0 168 l-218 0 l0 -337 l-75 0 l0 337 l-195 0 l0 -248 l-74 0 l0 314 l269 0 l0 113 l-306 0 l0 -139 l-72 0 ZM55 653 l0 64 l162 0 l0 114 l73 0 l0 -114 l171 0 l0 115 l73 0 l0 -115 l181 0 l0 114 l73 0 l0 -114 l158 0 l0 -64 l-158 0 l0 -104 l-73 0 l0 104 l-181 0 l0 -99 l-73 0 l0 99 l-171 0 l0 -101 l-73 0 l0 101 l-162 0 Z" /><glyph glyph-name="" unicode="&#x5e73;" d="M56 274 l0 73 l404 0 l0 349 l-352 0 l0 73 l782 0 l0 -73 l-354 0 l0 -349 l410 0 l0 -73 l-410 0 l0 -350 l-76 0 l0 350 l-404 0 ZM178 627 l65 20 q32 -56 58 -117 q27 -65 37 -108 l-70 -24 q-11 44 -36.5 109 q-25.5 65 -53.5 120 ZM645 416 q62 104 108 236 l78 -22 q-67 -149 -123 -235 l-63 21 Z" /><glyph glyph-name="" unicode="&#x5e76;" d="M606 660 q57 79 102 179 l81 -25 q-72 -121 -119 -178 l-64 24 ZM221 810 l64 26 q79 -97 107 -172 l-69 -32 q-28 78 -102 178 ZM361 345 l279 0 l0 216 l-279 0 l0 -192 l0 -24 ZM56 -26 q112 56 168 139 q45 67 58 161 l-226 0 l0 71 l231 0 l0 25 l0 191 l-194 0 l0 70 l822 0 l0 -70 l-198 0 l0 -216 l229 0 l0 -71 l-229 0 l0 -350 l-77 0 l0 350 l-283 0 q-12 -114 -62 -194 q-62 -99 -189 -164 q-15 28 -50 58 Z" /><glyph glyph-name="" unicode="&#x5e7b;" d="M41 105 l70 6 q68 103 133 223 q-73 101 -201 209 l44 52 q15 -12 47 -40 q73 140 115 272 l79 -24 q-82 -195 -142 -295 q63 -59 96 -102 q56 110 96 209 l77 -27 q-124 -264 -256 -468 q51 5 162 17 q42 4 63 6 q-32 65 -76 129 l62 27 q45 -61 84 -136 q39 -75 56 -130 l-67 -32 q-8 31 -28 79 l-404 -51 l-10 76 ZM436 686 l0 71 l486 0 l0 -42 q-10 -397 -23 -547 q-14 -160 -44 -198 q-17 -22 -35 -32 q-17 -9 -46 -12 q-20 -2 -53 -2 q-38 0 -101 3 q-2 42 -23 74 q78 -6 148 -6 q28 0 42 18 q25 28 38 176 q13 147 23 497 l-412 0 Z" /><glyph glyph-name="" unicode="&#x5e94;" d="M41 -43 q51 95 70 240 q13 98 13 240 l0 272 l397 0 q-21 56 -53 117 l72 18 q41 -71 65 -135 l334 0 l0 -71 l-741 0 l0 -201 q0 -348 -94 -521 q-8 9 -30 23 q-20 12 -33 18 ZM481 545 l67 18 q64 -200 86 -339 l-70 -20 q-21 138 -83 341 ZM265 489 l64 26 q81 -199 113 -339 l-69 -28 q-26 128 -108 341 ZM211 -30 l0 71 l395 0 q70 111 127 258 q53 136 84 270 l78 -28 q-80 -275 -213 -500 l270 0 l0 -71 l-741 0 Z" /><glyph glyph-name="" unicode="&#x5ea6;&#xfa01;" d="M35 -36 q55 94 75 243 q14 99 14 245 l0 286 l367 0 l0 98 l76 0 l0 -98 l373 0 l0 -68 l-746 0 l0 -218 q0 -358 -98 -530 q-25 25 -61 42 ZM458 392 l242 0 l0 105 l-242 0 l0 -105 ZM228 497 l0 61 l159 0 l0 87 l71 0 l0 -87 l242 0 l0 87 l72 0 l0 -87 l161 0 l0 -61 l-161 0 l0 -165 l-385 0 l0 165 l-159 0 ZM425 208 q55 -73 162 -127 q112 54 169 127 l-331 0 ZM203 -14 q177 18 308 64 q-97 58 -157 143 l40 15 l-154 0 l0 61 l565 0 l13 3 l47 -25 q-63 -120 -201 -199 q129 -46 294 -63 q-27 -26 -43 -63 q-194 25 -329 88 q-148 -61 -352 -86 q-8 28 -31 62 Z" /><glyph glyph-name="" unicode="&#x5ea7;" d="M32 -32 q84 158 84 488 l0 275 l375 0 l0 105 l76 0 l0 -105 l379 0 l0 -69 l-759 0 l0 -207 q0 -357 -93 -528 q-30 28 -62 41 ZM203 314 q122 90 150 291 l70 -7 q-11 -70 -31 -126 q82 -73 124 -126 l-45 -48 q-38 50 -104 114 q-40 -85 -108 -142 q-24 24 -56 44 ZM192 -51 l0 66 l339 0 l0 149 l-274 0 l0 64 l274 0 l0 393 l72 0 l0 -292 q119 89 150 276 l67 -8 q-10 -62 -32 -122 q118 -97 163 -149 l-47 -49 q-47 56 -143 138 q-43 -81 -107 -132 q-21 25 -51 44 l0 -99 l285 0 l0 -64 l-285 0 l0 -149 l346 0 l0 -66 l-757 0 Z" /><glyph glyph-name="" unicode="&#x5efa;" d="M662 626 l148 0 l0 72 l-148 0 l0 -72 ZM662 493 l148 0 l0 74 l-148 0 l0 -74 ZM315 567 l0 59 l275 0 l0 72 l-204 0 l0 59 l204 0 l0 72 l72 0 l0 -72 l220 0 l0 -131 l75 0 l0 -59 l-75 0 l0 -134 l-220 0 l0 -74 l230 0 l0 -57 l-230 0 l0 -79 l273 0 l0 -61 l-273 0 l0 -106 l-72 0 l0 106 l-262 0 l0 61 l262 0 l0 79 l-216 0 l0 57 l216 0 l0 74 l-211 0 l0 60 l211 0 l0 74 l-275 0 ZM37 -26 q82 55 137 154 q-57 75 -94 195 l58 22 q27 -90 67 -149 q39 96 57 228 l-116 0 l-20 -39 l-68 19 q71 133 148 303 l-161 0 l0 66 l198 0 l12 4 l51 -15 q-31 -75 -124 -267 q-2 -3 -3 -5 l103 0 l14 2 l43 -11 q-22 -206 -82 -346 q68 -65 174 -91 q87 -22 225 -22 q256 0 308 1 q-22 -33 -31 -73 l-279 0 q-149 0 -244 24 q-112 28 -186 97 q-54 -95 -131 -149 q-9 12 -26.5 28.5 q-17.5 16.5 -29.5 23.5 Z" /><glyph glyph-name="" unicode="&#x5f00;" d="M369 417 l278 0 l0 283 l-278 0 l0 -241 q0 -21 0 -42 ZM56 345 l0 72 l237 0 q1 15 1 43 l0 240 l-201 0 l0 71 l821 0 l0 -71 l-191 0 l0 -283 l222 0 l0 -72 l-222 0 l0 -423 l-76 0 l0 423 l-281 0 q-12 -134 -61 -228 q-60 -118 -187 -198 q-29 35 -59 55 q115 71 173 173 q46 84 58 198 l-234 0 Z" /><glyph glyph-name="" unicode="&#x5f0f;" d="M708 788 l50 41 q95 -63 144 -119 l-52 -47 q-49 60 -142 125 ZM63 26 q32 6 112 22 q63 13 97 20 l0 290 l-178 0 l0 72 l438 0 l0 -72 l-187 0 l0 -274 q29 6 88 18 q84 18 126 27 l6 -66 q-271 -64 -479 -110 l-23 73 ZM59 578 l0 73 l511 0 q-3 59 -5 181 l78 0 q0 -102 4 -181 l296 0 l0 -73 l-292 0 q19 -256 73 -415 q56 -164 129 -164 q20 0 30 44 q10 43 15 144 q26 -26 66 -41 q-10 -129 -35 -176.5 q-25 -47.5 -82 -47.5 q-115 0 -187 190 q-63 169 -85 466 l-516 0 Z" /><glyph glyph-name="" unicode="&#x5f20;" d="M597 531 q74 47 139 116 q66 69 107 145 l73 -21 q-46 -84 -117 -162 q-69 -75 -146 -126 l-2 2 q-38 35 -54 46 ZM91 273 q19 127 30 302 l168 0 l0 154 l-193 0 l0 70 l265 0 l0 -294 l-176 0 q-4 -47 -14 -142 q-1 -15 -2 -22 l197 0 q-1 -16 -2 -32 q-9 -176 -20 -250 q-11 -75 -32 -97 q-21 -26 -67 -29 q-16 -2 -47 -2 q-31 0 -78 2 q-4 39 -23 66 q52 -4 118 -4 q4 0 7 0 q18 0 28 10 q27 27 39 268 l-198 0 ZM376 380 l0 71 l112 0 l0 366 l73 0 l0 -366 l394 0 l0 -71 l-227 0 q33 -130 92 -227 q63 -105 149 -156 q-31 -24 -51 -59 q-184 123 -260 442 l-97 0 l0 -341 l150 57 q0 -41 5 -69 q-147 -61 -189 -80 q-41 -19 -53 -30 q-8 32 -31 65 q45 21 45 67 l0 331 l-112 0 Z" /><glyph glyph-name="" unicode="&#x5f53;" d="M671 554 q33 49 69.5 119.5 q36.5 70.5 59.5 128.5 l78 -27 q-70 -141 -143 -247 l-64 26 ZM125 766 l65 27 q41 -52 79 -116 q36 -63 54 -111 l-71 -31 q-16 47 -52 113 q-36 65 -75 118 ZM119 -33 l0 73 l669 0 l0 155 l-617 0 l0 72 l617 0 l0 145 l-650 0 l0 73 l321 0 l0 352 l80 0 l0 -352 l326 0 l0 -562 l-77 0 l0 44 l-669 0 Z" /><glyph glyph-name="" unicode="&#x5f69;" d="M591 616 q71 37 138 91 q73 57 114 113 l73 -31 q-50 -64 -125 -127 q-71 -59 -144 -100 q-35 40 -56 54 ZM598 333 q77 40 149 95 q80 61 125 119 l70 -31 q-53 -66 -134 -132 q-76 -61 -156 -106 q-31 38 -54 55 ZM53 753 q320 25 472 72 l46 -62 q-179 -51 -498 -72 q-2 27 -20 62 ZM408 486 q60 110 89 195 l72 -20 q-69 -139 -105 -195 l-56 20 ZM259 660 l58 17 q49 -78 69 -155 l-62 -21 q-18 76 -65 159 ZM82 625 l56 25 q67 -85 90 -157 l-59 -29 q-21 74 -87 161 ZM31 59 q64 40 129.5 109.5 q65.5 69.5 108.5 144.5 l-209 0 l0 68 l232 0 l0 105 l72 0 l0 -105 l206 0 l0 -68 l-190 0 q119 -94 178 -176 l-51 -49 q-51 76 -143 155 l0 -318 l-72 0 l0 300 q-101 -147 -216 -230 q-19 39 -45 64 ZM542 -14 q111 44 203 116 q97 76 149 164 l73 -29 q-60 -98 -160 -181 q-96 -80 -212 -133 q-19 34 -53 63 Z" /><glyph glyph-name="" unicode="&#x5f71;" d="M599 616 q68 36 135 90 q70 58 111 113 l70 -28 q-49 -64 -122 -126 q-68 -59 -140 -101 q-31 36 -54 52 ZM604 329 q73 38 146 96 q77 61 121 120 l69 -29 q-54 -68 -131 -133 q-75 -63 -151 -106 q-26 31 -54 52 ZM183 582 l305 0 l0 63 l-305 0 l0 -63 ZM183 690 l305 0 l0 62 l-305 0 l0 -62 ZM49 415 l0 58 l250 0 l0 62 l-182 0 l0 264 l441 0 l0 -264 l-191 0 l0 -62 l248 0 l0 -58 l-566 0 ZM45 -10 q75 63 111 143 l64 -16 q-48 -98 -120 -165 q-25 21 -55 38 ZM190 211 l291 0 l0 93 l-291 0 l0 -93 ZM126 158 l0 198 l424 0 l0 -198 l-183 0 l0 -164 q0 -26 -7 -39 q-7 -13 -25 -20 q-26 -11 -118 -11 q-8 29 -28 60 q37 -2 68 -2 q19 0 27 1 q9 0 12 2.5 q3 2.5 3 9.5 l0 163 l-173 0 ZM430 104 l56 28 q75 -79 107 -135 l-4 -2 q97 46 177 115 q84 73 131 154 l71 -27 q-57 -97 -151 -180 q-91 -80 -200 -132 q-23 35 -51 58 l-32 -17 q-36 67 -104 138 Z" /><glyph glyph-name="" unicode="&#x5f81;" d="M49 629 q57 38 113 95 q58 58 89 110 l70 -27 q-42 -64 -105.5 -128.5 q-63.5 -64.5 -127.5 -109.5 q-17 32 -39 60 ZM35 343 q68 51 130 121 q65 74 107 149 l65 -25 q-32 -58 -82 -125 l0 -539 l-75 0 l0 448 q-45 -52 -105 -101 q-18 42 -40 72 ZM320 -49 l0 71 l99 0 l0 476 l72 0 l0 -476 l139 0 l0 669 l-247 0 l0 70 l543 0 l0 -70 l-223 0 l0 -282 l207 0 l0 -69 l-207 0 l0 -318 l256 0 l0 -71 l-639 0 Z" /><glyph glyph-name="" unicode="&#x5f85;" d="M47 629 q60 39 118 95 q61 59 92 110 l70 -27 q-43 -64 -109.5 -129 q-66.5 -65 -132.5 -109 q-14 30 -38 60 ZM32 345 q69 51 133 121 q68 74 109 149 l65 -26 q-30 -56 -80 -122 l0 -543 l-72 0 l0 458 q-59 -66 -115 -110 q-17 41 -40 73 ZM417 204 l60 34 q85 -97 120 -172 l-63 -37 q-16 36 -49.5 86 q-33.5 50 -67.5 89 ZM329 444 l0 69 l277 0 l0 127 l-219 0 l0 68 l219 0 l0 124 l73 0 l0 -124 l228 0 l0 -68 l-228 0 l0 -127 l280 0 l0 -69 l-141 0 l0 -110 l134 0 l0 -68 l-134 0 l0 -252 q0 -34 -8.5 -51 q-8.5 -17 -31.5 -26 q-21 -8 -63 -11 q-26 -1 -97 -1 q-4 29 -24 71 q50 -2 93 -2 q27 0 37 1 q13 1 17 4.5 q4 3.5 4 14.5 l0 252 l-405 0 l0 68 l405 0 l0 110 l-416 0 Z" /><glyph glyph-name="" unicode="&#x2f3c;&#x5fc3;" d="M720 479 l65 33 q66 -84 118 -187 q52 -102 70 -182 l-73 -35 q-18 79 -67 183 q-51 105 -113 188 ZM27 119 q88 114 113 360 l72 -14 q-32 -271 -118 -387 l-67 41 ZM314 775 l47 57 q85 -29 186 -78 q93 -46 156 -87 l-47 -65 q-59 43 -155 92 q-98 50 -187 81 ZM335 -37.5 q-28 25.5 -28 98.5 l0 499 l75 0 l0 -500 q0 -34 12.5 -44.5 q12.5 -10.5 53.5 -10.5 l184 0 q31 0 45 16 q15 16 22 62 q6 39 10 131 q27 -24 69 -34 q-8 -144 -34 -192 q-29 -51 -108 -51 l-194 0 q-79 0 -107 25.5 Z" /><glyph glyph-name="" unicode="&#x5fc5;" d="M311 780 l49 53 q140 -93 250 -184 l-49 -60 q-106 94 -250 191 ZM36 206 q39 61 71 156 q27 84 43 173 l70 -17 q-46 -233 -115 -341 l-69 29 ZM37 40 q142 64 272 162 l0 392 l77 0 l0 -330 q257 219 403 512 l74 -30 q-183 -347 -477 -576 l0 -109 q0 -35 12.5 -45.5 q12.5 -10.5 55.5 -10.5 l192 0 q30 0 43 14 q15 15 22 57 q5 35 9 119 q33 -23 73 -32 q-8 -136 -36 -182 q-29 -49 -108 -49 l-201 0 q-81 0 -110 26.5 q-29 26.5 -29 103.5 l0 50 q-114 -77 -224 -130 q-22 33 -48 58 ZM737 471 l66 30 q52 -73 97.5 -162 q45.5 -89 65.5 -155 l-70 -34 q-19 65 -64 156 q-45 90 -95 165 Z" /><glyph glyph-name="" unicode="&#x5fc6;" d="M33 390 q37 92 51 255 l59 -8 q-4 -66 -17 -138 q-13 -79 -32 -131 l-61 22 ZM183 -76 l0 913 l72 0 l0 -913 l-72 0 ZM264 653 l52 24 q57 -109 76 -181 l-55 -28 q-18 79 -73 185 ZM536 -44 q-175 0 -175 119 q0 39 20 81 q28 61 113 171 q97 128 286 345 l-389 0 l0 70 l463 0 l17 3 l47 -25 q-3 -6 -10 -13 q-211 -238 -322 -376 q-95 -118 -129 -177 q-23 -42 -23 -71 q0 -55 97 -55 l271 0 q29 0 42 15 q15 16 22 60 q6 40 9 128 q36 -19 67 -25 q-6 -107 -19 -159 q-14 -53 -44 -73 q-26 -18 -80 -18 l-263 0 Z" /><glyph glyph-name="" unicode="&#x5fd8;" d="M70 645 l0 70 l391 0 l0 122 l74 0 l0 -122 l397 0 l0 -70 l-666 0 l0 -148 q0 -30 14 -41 q16 -12 59 -12 l379 0 q98 0 146 7 q5 -51 8 -69 q-32 -7 -151 -7 l-375 0 q-86 0 -120 27 q-34 27 -34 97 l0 146 l-122 0 ZM367 314 l51 45 q55 -28 109 -67 q56 -41 84 -76 l-54 -50 q-26 35 -81 77 q-53 41 -109 71 ZM36 11 q93 71 131 229 l65 -20 q-44 -175 -135 -248 l-61 39 ZM327.5 -42.5 q-26.5 20.5 -26.5 79.5 l0 204 l74 0 l0 -204 q0 -21 11 -27 q11 -6 52 -6 l184 0 q34 0 44 21.5 q10 21.5 14 102.5 q24 -18 67 -29 q-7 -98 -30.5 -130 q-23.5 -32 -89.5 -32 l-195 0 q-78 0 -104.5 20.5 ZM719 221 l62 30 q57 -53 107 -118 q52 -68 74 -120 l-69 -35 q-19 51 -69 120 q-48 67 -105 123 Z" /><glyph glyph-name="" unicode="&#x5fe0;" d="M206 463 l254 0 l0 187 l-254 0 l0 -187 ZM533 463 l258 0 l0 187 l-258 0 l0 -187 ZM135 350 l0 368 l325 0 l0 118 l73 0 l0 -118 l332 0 l0 -361 l-74 0 l0 39 l-258 0 l0 -100 l-50 0 q85 -55 125 -106 l-56 -47 q-26 35 -78 76.5 q-52 41.5 -105 70.5 l53 42 q7 -4 22 -12 q11 -6 16 -9 l0 85 l-254 0 l0 -46 l-71 0 ZM43 10 q99 68 133 229 l65 -19 q-39 -179 -137 -251 l-61 41 ZM330 -43.5 q-26 20.5 -26 79.5 l0 209 l73 0 l0 -209 q0 -21 11.5 -27 q11.5 -6 50.5 -6 l180 0 q34 0 43.5 21.5 q9.5 21.5 13.5 101.5 q23 -18 67 -29 q-8 -97 -31 -129 q-23 -32 -88 -32 l-191 0 q-77 0 -103 20.5 ZM714 214 l61 32 q59 -52 110 -117 q52 -67 74 -120 l-68 -35 q-19 51 -70 120 q-49 65 -107 120 Z" /><glyph glyph-name="" unicode="&#x6000;" d="M33 389 q37 94 51 255 l59 -8 q-12 -164 -50 -267 l-60 20 ZM181 -76 l0 913 l73 0 l0 -913 l-73 0 ZM264 653 l55 24 q54 -105 76 -180 l-58 -29 q-17 67 -73 185 ZM303 271 q103 73 188 185.5 q85 112.5 138 244.5 l-275 0 l0 71 l587 0 l0 -71 l-230 0 q-25 -61 -52 -115 l0 -660 l-73 0 l0 536 q-100 -151 -226 -249 q-26 32 -57 58 ZM660 493 l54 40 q166 -155 237 -256 l-58 -48 q-71 106 -233 264 Z" /><glyph glyph-name="" unicode="&#x600e;" d="M50 490 q78 61 140.5 152.5 q62.5 91.5 97.5 196.5 l78 -19 q-15 -43 -41 -98 l598 0 l0 -65 l-422 0 l0 -86 l371 0 l0 -60 l-371 0 l0 -89 l395 0 l0 -64 l-395 0 l0 -80 l-21 0 q93 -53 136 -104 l-54 -48 q-26 31 -76 69 q-49 36 -99 62 l39 34 l0 366 l-136 0 q-76 -134 -176 -220 q-34 34 -64 53 ZM40 1 q95 69 137 222 l65 -22 q-50 -170 -141 -241 l-61 41 ZM332 -43 q-26 20 -26 78 l0 183 l73 0 l0 -182 q0 -20 11.5 -26 q11.5 -6 51.5 -6 l182 0 q34 0 43.5 19 q9.5 19 12.5 90 q24 -20 67 -28 q-7 -89 -29.5 -118.5 q-22.5 -29.5 -86.5 -29.5 l-195 0 q-78 0 -104 20 ZM712 206 l61 31 q58 -50 107 -112 q52 -65 74 -116 l-68 -34 q-20 49 -70 115 q-48 64 -104 116 Z" /><glyph glyph-name="" unicode="&#x6027;" d="M31 392 q38 93 52 256 l56 -8 q-4 -65 -17 -137 q-14 -78 -33 -131 l-58 20 ZM175 -76 l0 913 l74 0 l0 -913 l-74 0 ZM256 653 l52 24 q52 -94 73 -167 l-56 -27 q-18 69 -69 170 ZM335 -42 l0 71 l286 0 l0 250 l-212 0 l0 69 l212 0 l0 207 l-146 0 q-31 -93 -70 -155 q-21 14 -66 34 q81 122 121 357 l72 -12 q-16 -83 -36 -153 l125 0 l0 207 l74 0 l0 -207 l226 0 l0 -71 l-226 0 l0 -207 l204 0 l0 -69 l-204 0 l0 -250 l250 0 l0 -71 l-610 0 Z" /><glyph glyph-name="" unicode="&#x606f;" d="M274 615 l464 0 l0 81 l-464 0 l0 -81 ZM274 475 l464 0 l0 83 l-464 0 l0 -83 ZM274 336 l464 0 l0 83 l-464 0 l0 -83 ZM202 277 l0 478 l232 0 q21 52 32 92 l86 -15 q-28 -54 -41 -77 l302 0 l0 -478 l-611 0 ZM403 227 l55 37 q45 -30 87 -67 q44 -40 66 -73 l-57 -43 q-21 33 -65 75 q-41 39 -86 71 ZM41 -1 q84 64 125 200 l64 -24 q-46 -150 -129 -218 l-60 42 ZM327.5 -50.5 q-26.5 19.5 -26.5 77.5 l0 164 l73 0 l0 -164 q0 -20 11 -25.5 q11 -5.5 51 -5.5 l184 0 q32 0 41 16.5 q9 16.5 11 79.5 q23 -15 68 -26 q-7 -82 -30 -109 q-23 -27 -85 -27 l-194 0 q-77 0 -103.5 19.5 ZM724 172 l58 37 q57 -48 107 -104 q53 -61 76 -107 l-63 -41 q-23 46 -73.5 106.5 q-50.5 60.5 -104.5 108.5 Z" /><glyph glyph-name="" unicode="&#x6076;" d="M56 -5 q32 45 60 117 q25 64 41 129 l65 -22 q-52 -184 -100 -258 l-66 34 ZM295.5 -36.5 q-29.5 20.5 -29.5 81.5 l0 194 l73 0 l0 -194 q0 -22 13.5 -28.5 q13.5 -6.5 61.5 -6.5 l224 0 q39 0 50.5 21 q11.5 21 15.5 97 q24 -19 68 -29 q-8 -94 -33 -125 q-25 -31 -96 -31 l-232 0 q-86 0 -115.5 20.5 ZM401 287 l58 33 q47 -42 92 -95 q46 -54 67 -94 l-63 -38 q-20 40 -65 96 q-43 54 -89 98 ZM743 246 l65 22 q98 -156 128 -262 l-71 -27 q-14 53 -49 128 q-34 77 -73 139 ZM433 396 l129 0 l0 327 l-129 0 l0 -327 ZM64 330 l0 66 l299 0 l0 327 l-255 0 l0 66 l794 0 l0 -66 l-268 0 l0 -327 l302 0 l0 -66 l-872 0 ZM153 640 l63 21 q28 -40 53 -92 q23 -50 34 -89 l-67 -24 q-9 38 -32 89 q-24 53 -51 95 ZM683 475 q59 91 97 190 l75 -23 q-56 -110 -112 -188 l-60 21 Z" /><glyph glyph-name="" unicode="&#x60a8;" d="M309 591 q106 93 160 245 l68 -17 q-16 -42 -35 -81 l378 0 l12 2 l52 -13 q-1 -2 -3 -7 q-54 -129 -76 -171 l-51 10 q63 -91 97 -178 l-65 -30 q-16 44 -48.5 104.5 q-32.5 60.5 -66.5 109.5 l61 26 l14 -19 q25 51 43 101 l-173 0 l0 -325 q0 -29 -7 -44 q-7 -16 -27 -24 q-30 -11 -130 -11 q-5 30 -24 65 q46 -1 100 -1 q10 1 13.5 4 q3.5 3 3.5 11 l0 325 l-139 0 q-49 -78 -101 -128 q-26 29 -56 46 ZM386 250 l50 44 q48 -23 98 -57 q50 -34 78 -64 l-53 -49 q-26 31 -75 66.5 q-49 35.5 -98 59.5 ZM341 400 q79 72 124 186 l69 -17 q-48 -122 -132 -208 q-22 17 -61 39 ZM43 -2 q101 64 138 210 l65 -22 q-44 -165 -142 -230 l-61 42 ZM33 549 q71 53 136 129.5 q65 76.5 107 158.5 l65 -22 q-34 -66 -86 -138 l0 -408 l-72 0 l0 320 q-47 -53 -102 -98 q-18 28 -48 58 ZM327.5 -39 q-26.5 20 -26.5 78 l0 181 l74 0 l0 -181 q0 -20 11 -25.5 q11 -5.5 50 -5.5 l183 0 q33 0 42.5 19.5 q9.5 19.5 12.5 92.5 q23 -18 67 -29 q-8 -90 -31 -120 q-23 -30 -86 -30 l-193 0 q-77 0 -103.5 20 ZM713 189 l60 36 q57 -49 108 -109 q51 -62 75 -111 l-66 -38 q-21 49 -71 112 q-50 63 -106 110 Z" /><glyph glyph-name="" unicode="&#x60c5;" d="M31 390 q32 92 46 255 l55 -7 q-3 -63 -14 -135 q-13 -79 -29 -132 l-58 19 ZM154 -76 l0 912 l69 0 l0 -912 l-69 0 ZM231 671 l49 19 q40 -80 55 -140 l-52 -26 q-12 58 -52 147 ZM446 135 l360 0 l0 76 l-360 0 l0 -76 ZM446 267 l360 0 l0 75 l-360 0 l0 -75 ZM376 -76 l0 476 l501 0 l0 -393 q0 -29 -8 -44.5 q-8 -15.5 -28 -23.5 q-29 -11 -107 -11 q-15 0 -36 0 q-8 37 -21 64 q41 -2 79 -2 q23 0 31 1 q19 0 19 17 l0 72 l-360 0 l0 -156 l-70 0 ZM305 457 l0 57 l285 0 l0 70 l-232 0 l0 54 l232 0 l0 63 l-255 0 l0 57 l255 0 l0 78 l73 0 l0 -78 l263 0 l0 -57 l-263 0 l0 -63 l238 0 l0 -54 l-238 0 l0 -70 l291 0 l0 -57 l-649 0 Z" /><glyph glyph-name="" unicode="&#x60f3;" d="M581 630 l248 0 l0 93 l-248 0 l0 -93 ZM581 478 l248 0 l0 94 l-248 0 l0 -94 ZM581 326 l248 0 l0 95 l-248 0 l0 -95 ZM512 265 l0 519 l388 0 l0 -519 l-388 0 ZM415 235 l52 38 q85 -77 138 -141 l-54 -44 q-42 55 -136 147 ZM50 9 q53 71 94 203 l65 -25 q-49 -149 -94 -211 l-65 33 ZM36 366 q54 38 106 110 q51 69 85 147 l-169 0 l0 65 l182 0 l0 146 l71 0 l0 -146 l158 0 l0 -65 l-158 0 l0 -56 q56 -35 166 -120 l-40 -60 q-42 40 -126 111 l0 -243 l-71 0 l0 263 q-73 -136 -156 -204 q-22 31 -48 52 ZM312.5 -35.5 q-27.5 19.5 -27.5 77.5 l0 159 l73 0 l0 -158 q0 -20 12.5 -25.5 q12.5 -5.5 55.5 -5.5 l197 0 q36 0 46.5 20 q10.5 20 13.5 96 q26 -20 68 -28 q-8 -94 -32 -124.5 q-24 -30.5 -91 -30.5 l-207 0 q-81 0 -108.5 19.5 ZM765 203 l64 29 q89 -137 120 -200 l-69 -34 q-25 56 -115 205 Z" /><glyph glyph-name="" unicode="&#x610f;" d="M343 710 q31 -52 43 -99 l-29 -8 l278 0 l-25 7 q27 46 49 100 l-316 0 ZM76 542 l0 61 l237 0 q-13 48 -42 99 l34 8 l-184 0 l0 60 l341 0 l0 67 l73 0 l0 -67 l343 0 l0 -60 l-178 0 l38 -8 q-30 -58 -57 -99 l248 0 l0 -61 l-853 0 ZM259 377 l488 0 l0 59 l-488 0 l0 -59 ZM259 264 l488 0 l0 61 l-488 0 l0 -61 ZM188 208 l0 284 l631 0 l0 -284 l-372 0 q101 -43 157 -93 l-46 -47 q-25 24 -72.5 53.5 q-47.5 29.5 -93.5 49.5 l38 37 l-242 0 ZM46 -15 q98 57 140 173 l63 -23 q-55 -135 -146 -189 l-57 39 ZM325 -49 q-26 18 -26 72 l0 128 l73 0 l0 -128 q0 -18 11 -23.5 q11 -5.5 49 -5.5 l176 0 q32 0 41 17 q9 17 13 84 q16 -12 63 -25 q-5 -83 -27.5 -110 q-22.5 -27 -82.5 -27 l-189 0 q-75 0 -101 18 ZM722 132 l57 35 q52 -38 101 -87 q51 -50 77 -90 l-60 -37 q-24 39 -74 90 q-49 50 -101 89 Z" /><glyph glyph-name="" unicode="&#x611f;" d="M43 -15 q91 63 133 195 l64 -22 q-48 -152 -136 -214 l-61 41 ZM235 555 l0 52 l305 0 l0 -52 l-305 0 ZM314 331 l147 0 l0 104 l-147 0 l0 -104 ZM36 242 q95 116 95 345 l0 149 l422 0 q-6 49 -9 101 l71 0 q1 -46 8 -101 l182 0 q-52 37 -127 63 l39 44 q93 -30 142 -70 l-31 -37 l110 0 l0 -62 l-305 0 q22 -118 65 -216 q51 77 81 168 l69 -16 q-41 -121 -114 -220 q66 -107 129 -107 q19 1 27.5 29.5 q8.5 28.5 12.5 96.5 q24 -22 58 -33 q-9 -92 -32 -127 q-22 -33 -70 -33 q-90 0 -170 117 q-52 -61 -118 -108 q-24 29 -54 51 l3 2 l-268 0 l0 209 l272 0 l0 -206 q70 46 128 115 q-62 120 -90 278 l-363 0 l0 -88 q0 -256 -109 -390 q-6 10 -25 25 q-17 15 -29 21 ZM377 220 l49 41 q48 -22 96 -54 q49 -33 75 -61 l-51 -47 q-25 28 -73 62.5 q-48 34.5 -96 58.5 ZM327.5 -44.5 q-26.5 19.5 -26.5 76.5 l0 155 l74 0 l0 -154 q0 -19 11 -24.5 q11 -5.5 51 -5.5 l182 0 q33 0 42.5 18 q9.5 18 11.5 87 q25 -19 68 -27 q-8 -88 -30.5 -116.5 q-22.5 -28.5 -85.5 -28.5 l-194 0 q-77 0 -103.5 19.5 ZM720 158 l61 33 q55 -44 104 -98 q50 -57 73 -102 l-66 -36 q-20 45 -69 102 q-47 55 -103 101 Z" /><glyph glyph-name="" unicode="&#x613f;" d="M335 572 l434 0 l0 55 l-434 0 l0 -55 ZM335 471 l434 0 l0 55 l-434 0 l0 -55 ZM39 263 q52 71 73 178 q14 74 14 178 l0 177 l776 0 l0 -61 l-322 0 q-9 -26 -25 -61 l284 0 l0 -250 l-263 0 l0 -136 q0 -26 -5 -37 q-6 -14 -24 -21 q-22 -8 -77 -10 q89 -44 134 -93 l-50 -46 q-24 28 -71 60.5 q-47 32.5 -94 54.5 l38 33 q-6 24 -20 49 q40 -1 85 -1 q14 0 14 13 l0 134 l-239 0 l0 250 l212 0 q8 27 17 61 l-301 0 l0 -117 q0 -267 -100 -400 q-29 32 -56 45 ZM660 365 l52 36 q53 -27 107 -65 q56 -40 85 -72 l-55 -41 q-28 32 -82 73 q-53 39 -107 69 ZM182 269 q111 57 169 129 l65 -21 q-72 -88 -181 -153 q-21 23 -53 45 ZM43 -8 q96 58 138 181 l64 -24 q-50 -140 -142 -199 l-60 42 ZM331.5 -46 q-25.5 19 -25.5 76 l0 141 l73 0 l0 -140 q0 -19 11 -24.5 q11 -5.5 49 -5.5 l179 0 q32 0 41 16.5 q9 16.5 12 80.5 q21 -16 66 -26 q-7 -83 -29.5 -110 q-22.5 -27 -83.5 -27 l-190 0 q-77 0 -102.5 19 ZM716 146 l59 35 q55 -39 105 -90 q52 -53 75 -96 l-64 -39 q-21 42 -72 97 q-48 51 -103 93 Z" /><glyph glyph-name="" unicode="&#x61c2;" d="M342 708 l0 55 l147 0 l0 73 l66 0 l0 -73 l186 0 l0 73 l66 0 l0 -73 l148 0 l0 -55 l-148 0 l0 -52 l-66 0 l0 52 l-186 0 l0 -54 l-66 0 l0 54 l-147 0 ZM31 390 q19 45 33 121 q13 67 17 133 l57 -8 q-2 -65 -15 -138 q-14 -79 -33 -130 l-59 22 ZM173 -76 l0 913 l71 0 l0 -913 l-71 0 ZM682 325 l153 0 l0 61 l-153 0 l0 -61 ZM682 218 l153 0 l0 63 l-153 0 l0 -63 ZM463 218 l150 0 l0 63 l-150 0 l0 -63 ZM463 325 l150 0 l0 61 l-150 0 l0 -61 ZM257 664 l51 19 q36 -81 51 -139 l-19 -8 l273 0 l0 49 q-129 -7 -218 -7 q-3 20 -15 48 q328 9 504 36 l37 -49 q-94 -14 -239 -24 l0 -53 l279 0 l0 -54 l-279 0 l0 -51 l223 0 l0 -258 l-223 0 l0 -54 l240 0 l0 -54 l-240 0 l0 -61 l278 0 l0 -56 l-634 0 l0 56 l287 0 l0 61 l-235 0 l0 54 l235 0 l0 54 l-217 0 l0 258 l217 0 l0 51 l-273 0 l0 54 l-36 -16 q-12 64 -47 144 Z" /><glyph glyph-name="" unicode="&#x6210;" d="M670 787 l44 45 q117 -59 179 -114 l-46 -51 q-64 59 -177 120 ZM41 -34 q55 82 76 208 q15 88 15 214 l0 279 l417 0 q-4 55 -6 168 l77 0 q0 -96 4 -168 l323 0 l0 -73 l-318 0 q16 -209 55 -347 q82 120 128 270 l75 -19 q-65 -196 -176 -338 q59 -155 134 -155 q21 0 31 43 q11 41 16 142 q30 -30 64 -40 q-10 -127 -35 -173 q-25 -46 -82 -46 q-110 0 -183 164 q-91 -99 -206 -166 q-27 37 -54 59 q134 72 230 185 q-52 164 -73 421 l-345 0 l0 -130 l255 0 l0 -32 q-4 -174 -10 -241 q-7 -74 -22 -93 q-19 -25 -60 -29 q-19 -1 -50 -1 q-32 0 -69 1 q-2 39 -21 70 q58 -5 106 -5 q23 0 30 11 q10 11 15 66 q5 53 8 184 l-182 0 l0 -8 q0 -319 -105 -471 q-10 11 -29.5 27 q-19.5 16 -32.5 23 Z" /><glyph glyph-name="" unicode="&#x6211;" d="M702 771 l57 39 q107 -90 160 -166 l-60 -43 q-23 35 -67.5 83 q-44.5 48 -89.5 87 ZM45 252 q55 9 206 40 q15 3 22 5 l0 175 l-214 0 l0 71 l214 0 l0 159 q-87 -17 -184 -30 q-7 31 -24 62 q257 39 395 90 l53 -61 q-74 -26 -167 -46 l0 -174 l229 0 q-12 125 -14 285 l76 0 q0 -151 12 -285 l294 0 l0 -71 l-286 0 q15 -127 41 -228 q80 86 131 182 l66 -27 q-67 -126 -174 -235 q61 -169 133 -169 q20 0 30 41 q10 41 15 138 q29 -28 63 -40 q-10 -124 -34.5 -168.5 q-24.5 -44.5 -80.5 -44.5 q-111 0 -185 187 q-100 -89 -211 -147 q-20 33 -51 59 q132 64 237 162 q-36 125 -56 290 l-235 0 l0 -160 q30 7 90 20 q60 13 89 19 l5 -67 q-51 -13 -155 -36 q-19 -5 -29 -7 l0 -222 q0 -36 -10 -54.5 q-10 -18.5 -33 -27.5 q-36 -14 -166 -14 q-7 35 -28 75 q43 -2 88 -2 q35 0 52 1 q14 0 19 5 q5 5 5 18 l0 203 q-42 -9 -123 -27 q-58 -13 -84 -19 l-21 75 Z" /><glyph glyph-name="" unicode="&#x6216;" d="M690 787 l43 46 q112 -50 172 -103 l-46 -52 q-26 25 -75 56 q-47 31 -94 53 ZM65 67 q217 42 440 89 l6 -70 q-19 -4 -56 -12 q-274 -59 -376 -82 l-14 75 ZM197 278 l203 0 l0 173 l-203 0 l0 -173 ZM128 214 l0 302 l345 0 l0 -302 l-345 0 ZM70 604 l0 73 l487 0 q-3 52 -5 157 l78 0 q0 -80 3 -157 l300 0 l0 -73 l-295 0 q16 -209 52 -349 q82 124 129 278 l74 -18 q-65 -202 -177 -350 q59 -165 131 -165 q21 0 31 42 q10 42 15 143 q28 -30 65 -42 q-10 -127 -35 -173.5 q-25 -46.5 -83 -46.5 q-108 0 -180 173 q-93 -102 -211 -172 q-26 33 -58 57 q140 74 240 196 q-49 163 -70 427 l-491 0 Z" /><glyph glyph-name="" unicode="&#x6240;" d="M65 714 l0 67 l428 0 l0 -67 l-428 0 ZM172 368 l224 0 l0 174 l-224 0 l0 -174 ZM26 -32 q45 72 63 185 q12 76 12 188 l0 269 l367 0 l0 -310 l-296 0 q-6 -252 -89 -377 q-22 24 -57 45 ZM382 -24 q92 98 128 247 q24 102 24 250 l0 265 l59 -15 q191 49 283 101 l66 -55 q-120 -58 -335 -110 l0 -160 l355 0 l0 -72 l-110 0 l0 -503 l-73 0 l0 503 l-173 0 q-8 -330 -169 -501 q-9 13 -25.5 28.5 q-16.5 15.5 -29.5 21.5 Z" /><glyph glyph-name="" unicode="&#x2f3f;&#x624b;" d="M53 249 l0 73 l411 0 l0 162 l-344 0 l0 71 l344 0 l0 154 q-135 -15 -326 -24 q-5 31 -19 66 q479 22 676 84 l56 -59 q-117 -36 -312 -59 l0 -162 l354 0 l0 -71 l-354 0 l0 -162 l410 0 l0 -73 l-410 0 l0 -222 q0 -39 -13 -59 q-12 -19 -40 -28 q-41 -13 -163 -13 q-19 0 -43 0 q-11 39 -32 74 q56 -2 115 -2 q47 0 70 1 q31 0 31 28 l0 221 l-411 0 Z" /><glyph glyph-name="" unicode="&#x627f;" d="M32 62 q76 66 133 178 q57 115 85 259 l-188 0 l0 68 l211 0 l13 3 l46 -18 q-28 -184 -94 -327 q-63 -139 -151 -217 q-21 31 -55 54 ZM184 713 l0 68 l564 0 l17 4 l51 -37 q-54 -54 -131 -106 q-76 -50 -154 -85 l0 -59 l139 0 l0 -62 l-139 0 l0 -97 l154 0 l0 -61 l-154 0 l0 -100 l211 0 l0 -63 l-211 0 l0 -102 q0 -35 -10 -52.5 q-10 -17.5 -35 -26.5 q-36 -13 -177 -13 q-6 32 -28 71 q46 -2 95 -2 q39 0 57 1 q14 1 19.5 5.5 q5.5 4.5 5.5 17.5 l0 101 l-200 0 l0 63 l200 0 l0 100 l-144 0 l0 61 l144 0 l0 97 l-124 0 l0 62 l124 0 l0 117 l55 0 q84 41 157 98 l-486 0 ZM667 587 l67 11 q15 -99 35 -172 q77 80 123 148 l59 -47 q-77 -90 -162 -170 q67 -202 179 -287 q-36 -30 -55 -63 q-181 152 -246 580 Z" /><glyph glyph-name="" unicode="&#x6295;" d="M363 480 q115 73 115 217 l0 100 l328 0 l0 -238 q0 -17 4 -22 q4 -5 17 -5 l54 0 q14 0 19 21 q5 21 6 97 q20 -17 62 -28 q-4 -90 -20.5 -121 q-16.5 -31 -58.5 -31 l-73 0 q-48 0 -64.5 18 q-16.5 18 -16.5 70 l0 169 l-187 0 l0 -31 q0 -179 -135 -269 q-8 12 -23 29 q-17 18 -27 24 ZM36 304 q48 12 157 45 l0 222 l-144 0 l0 70 l144 0 l0 195 l74 0 l0 -195 l110 0 l0 -70 l-110 0 l0 -200 l102 31 l8 -65 q-36 -13 -110 -39 l0 -287 q0 -31 -8.5 -48 q-8.5 -17 -28.5 -26 q-28 -12 -104 -12 q-13 0 -28 0 q-3 30 -22 67 q34 -1 62 -1 q27 0 37 1 q18 0 18 19 l0 262 q-17 -6 -49 -17 q-57 -20 -83 -28 l-25 76 ZM521 339 q45 -112 134 -193 q95 82 143 193 l-277 0 ZM329 -11 q152 35 267 112 q-91 93 -144 222 l54 16 l-87 0 l0 68 l415 0 l14 3 l48 -20 q-52 -172 -184 -291 q110 -78 259 -109 q-26 -25 -49 -66 q-156 39 -270 127 q-118 -84 -283 -128 q-19 45 -40 66 Z" /><glyph glyph-name="" unicode="&#x62a5;" d="M37 311 q71 17 156 41 l0 211 l-142 0 l0 73 l142 0 l0 200 l74 0 l0 -200 l112 0 l0 -73 l-112 0 l0 -190 l110 31 l10 -71 l-120 -36 l0 -281 q0 -34 -9.5 -52 q-9.5 -18 -30.5 -27 q-20 -9 -59 -12 q-28 -2 -96 -2 q-3 33 -24 71 q32 -1 66 -1 q39 0 55 1 q24 0 24 22 l0 259 q-18 -5 -52 -15 q-58 -17 -84 -24 l-20 75 ZM598 395 q48 -123 131 -225 q73 101 107 225 l-238 0 ZM424 -75 l0 878 l469 0 q0 -16 -1 -32 q-5 -106 -12.5 -154.5 q-7.5 -48.5 -23.5 -64.5 q-24 -23 -73 -26 q-17 -1 -44 -1 q-50 0 -117 3 q-2 34 -21 63 q66 -6 151 -6 q32 0 40 8 q17 16 23 141 l-318 0 l0 -272 l366 0 l13 3 l48 -16 q-41 -192 -146 -333 q85 -86 182 -127 q-32 -27 -52 -63 q-94 45 -178 133 q-74 -82 -177 -137 q-16 25 -49 54 q97 49 179 136 q-97 121 -156 283 l-30 0 l0 -470 l-73 0 Z" /><glyph glyph-name="" unicode="&#x62b1;" d="M31 308 q46 11 152 42 l0 218 l-135 0 l0 68 l135 0 l0 200 l71 0 l0 -200 l97 0 l0 -68 l-97 0 l0 -197 l96 28 l9 -67 l-105 -33 l0 -285 q0 -32 -7.5 -49 q-7.5 -17 -26.5 -27 q-29 -13 -105 -13 q-12 0 -27 0 q-7 40 -22 71 q37 -2 70 -2 q20 0 29 1 q18 0 18 19 l0 264 l-135 -42 l-17 72 ZM322 515 q57 57 102 143 q43 83 68 180 l72 -16 q-15 -54 -40 -115 l398 0 l0 -34 q-8 -250 -17 -345 q-9 -101 -29 -127 q-21 -29 -59 -32 q-17 -3 -48 -3 q-23 0 -61 2 q-2 36 -19 69 q41 -4 93 -4 q3 0 5 0 q17 0 27 13 q14 19 22 104 q8 89 14 290 l-356 0 q-27 -55 -58 -100 l288 0 l0 -277 l-244 0 l0 -226 q0 -27 16 -35.5 q16 -8.5 68 -8.5 l246 0 q46 0 60 25.5 q14 25.5 19 118.5 q26 -19 68 -28 q-9 -110 -36 -145 q-28 -36 -108 -36 l-251 0 q-90 0 -121 21 q-32 22 -32 87 l0 291 l247 0 l0 148 l-231 0 l0 49 q-17 -25 -44 -56 q-18 18 -59 47 Z" /><glyph glyph-name="" unicode="&#x62c5;" d="M495 500 l308 0 l0 195 l-308 0 l0 -195 ZM495 231 l308 0 l0 199 l-308 0 l0 -199 ZM423 161 l0 604 l454 0 l0 -604 l-454 0 ZM37 311 q35 8 125 33 q18 5 28 8 l0 214 l-141 0 l0 70 l141 0 l0 200 l73 0 l0 -200 l121 0 l0 -70 l-121 0 l0 -195 q15 5 46 14 q45 14 67 20 l10 -68 q-82 -26 -123 -37 l0 -282 q0 -32 -8.5 -48.5 q-8.5 -16.5 -28.5 -24.5 q-29 -14 -135 -14 q-5 34 -23 69 q30 -1 65 -1 q12 0 29 0 q7 0 9 0 q19 0 19 19 l0 260 l-131 -39 l-22 72 ZM349 -37 l0 70 l601 0 l0 -70 l-601 0 Z" /><glyph glyph-name="" unicode="&#x62e9;" d="M39 314 q32 9 113 34 q19 5 28 8 l0 212 l-131 0 l0 69 l131 0 l0 199 l72 0 l0 -199 l118 0 l0 -69 l-118 0 l0 -190 l105 33 l10 -68 l-115 -38 l0 -290 q0 -32 -8 -48.5 q-8 -16.5 -27 -25.5 q-28 -14 -126 -14 q-5 30 -22 71 q35 -2 66 -2 q20 0 27 1 q18 0 18 18 l0 267 q-34 -12 -97 -32 q-17 -5 -25 -8 l-19 72 ZM367 87 l0 67 l253 0 l0 103 l-202 0 l0 66 l202 0 l0 88 l73 0 l0 -88 l189 0 l0 -66 l-189 0 l0 -103 l261 0 l0 -67 l-261 0 l0 -166 l-73 0 l0 166 l-253 0 ZM532 716 q49 -77 129 -137 q90 61 142 137 l-271 0 ZM354 440 q138 34 250 102 q-91 78 -143 174 l-65 0 l0 67 l453 0 l12 3 l45 -25 q-62 -125 -188 -221 q112 -69 252 -99 q-24 -24 -46 -62 q-144 37 -265 120 q-120 -78 -266 -119 q-17 37 -39 60 Z" /><glyph glyph-name="" unicode="&#x6301;" d="M31 308 q52 15 142 43 l0 216 l-128 0 l0 69 l128 0 l0 200 l69 0 l0 -200 l106 0 l0 -69 l-106 0 l0 -196 l99 31 l10 -68 l-109 -35 l0 -286 q0 -31 -7.5 -47.5 q-7.5 -16.5 -26.5 -25.5 q-27 -14 -103 -14 q-10 0 -21 0 q-6 36 -22 70 q36 -2 67 -2 q19 0 26 1 q18 0 18 18 l0 263 q-56 -19 -123 -39 l-19 71 ZM448 204 l57 34 q80 -95 114 -172 l-62 -37 q-14 36 -45.5 86 q-31.5 50 -63.5 89 ZM362 444 l0 69 l263 0 l0 127 l-212 0 l0 68 l212 0 l0 124 l71 0 l0 -124 l213 0 l0 -68 l-213 0 l0 -127 l261 0 l0 -69 l-130 0 l0 -110 l123 0 l0 -68 l-123 0 l0 -252 q0 -35 -8 -52 q-8 -17 -30 -25 q-32 -13 -152 -13 q-5 33 -23 72 q46 -2 88 -2 q26 0 36 1 q19 1 19 19 l0 252 l-383 0 l0 68 l383 0 l0 110 l-395 0 Z" /><glyph glyph-name="" unicode="&#x636e;" d="M34 308 q2 1 6 2 q81 24 130 38 l0 219 l-124 0 l0 69 l124 0 l0 200 l69 0 l0 -200 l113 0 l0 -69 l-113 0 l0 -198 l104 33 l10 -68 l-114 -37 l0 -281 q0 -31 -7.5 -47 q-7.5 -16 -26.5 -25 q-27 -14 -103 -14 q-10 0 -21 0 q-6 35 -22 69 q43 -1 94 -1 q17 0 17 19 l0 257 q-36 -12 -103 -32 q-10 -4 -15 -5 l-18 71 ZM467 426 l194 0 l0 110 l-193 0 l0 -43 q0 -43 -1 -67 ZM468 601 l381 0 l0 127 l-381 0 l0 -127 ZM549 25 l307 0 l0 151 l-307 0 l0 -151 ZM284 -35 q69 102 95 262 q17 107 17 266 l0 300 l524 0 l0 -257 l-188 0 l0 -110 l222 0 l0 -64 l-222 0 l0 -123 l192 0 l0 -313 l-68 0 l0 37 l-307 0 l0 -41 l-65 0 l0 317 l177 0 l0 123 l-197 0 q-18 -289 -120 -439 q-9 10 -28 23.5 q-19 13.5 -32 18.5 Z" /><glyph glyph-name="" unicode="&#x638c;" d="M83 506 l0 198 l168 0 q-34 60 -71 101 l65 26 q51 -57 78 -105 l-47 -22 l185 0 l0 133 l75 0 l0 -133 l183 0 l-44 18 q52 58 84 109 l74 -26 q-45 -54 -94 -101 l183 0 l0 -198 l-73 0 l0 135 l-696 0 l0 -135 l-70 0 ZM295 450 l413 0 l0 79 l-413 0 l0 -79 ZM226 399 l0 181 l555 0 l0 -181 l-555 0 ZM61 62 l0 54 l401 0 l0 67 l-344 0 l0 53 l344 0 l0 61 q-160 -8 -297 -8 q0 24 -14 50 q175 2 343 12 q184 11 285 28 l47 -47 q-109 -19 -291 -31 l0 -65 l353 0 l0 -53 l-353 0 l0 -67 l406 0 l0 -54 l-406 0 l0 -63 q0 -31 -9.5 -45 q-9.5 -14 -34.5 -22 q-34 -10 -179 -10 q-5 23 -26 59 q58 -2 109 -2 q32 0 43 1 q14 1 19 5 q5 4 5 15 l0 62 l-401 0 Z" /><glyph glyph-name="" unicode="&#x63d0;" d="M479 668 l330 0 l0 79 l-330 0 l0 -79 ZM479 536 l330 0 l0 80 l-330 0 l0 -80 ZM411 479 l0 324 l469 0 l0 -324 l-469 0 ZM33 309 q43 10 134 39 l0 219 l-123 0 l0 69 l123 0 l0 199 l69 0 l0 -199 l110 0 l0 -69 l-110 0 l0 -197 l101 31 l9 -68 q-19 -7 -59 -20 q-34 -11 -51 -17 l0 -280 q0 -31 -7.5 -47 q-7.5 -16 -26.5 -25 q-27 -14 -103 -14 q-10 0 -21 0 q-6 35 -22 69 q43 -1 93 -1 q18 0 18 19 l0 257 q-43 -15 -116 -37 l-18 72 ZM281 -32 q124 97 149 330 l69 -8 q-9 -67 -20 -107 q40 -116 130 -154 l0 316 l-244 0 l0 63 l570 0 l0 -63 l-256 0 l0 -117 l207 0 l0 -61 l-207 0 l0 -157 q44 -6 94 -6 q160 0 193 1 q-15 -25 -22 -66 l-174 0 q-120 0 -187 31 q-81 38 -127 136 q-43 -114 -120 -183 q-23 25 -55 45 Z" /><glyph glyph-name="" unicode="&#x63e1;" d="M32 322 q34 9 121 36 q11 3 17 5 l0 205 l-125 0 l0 68 l125 0 l0 200 l69 0 l0 -200 l107 0 l0 -68 l-107 0 l0 -184 q33 10 99 32 l10 -69 l-109 -36 l0 -301 q0 -57 -34 -73 q-29 -13 -103 -13 q-10 0 -21 0 q-7 37 -22 68 q32 -1 59 -1 q26 0 35 1 q17 0 17 18 l0 279 l-119 -39 l-19 72 ZM451 623 l403 0 l0 106 l-403 0 l0 -106 ZM282 -29 q63 103 86 263 q16 107 16 266 l0 292 l540 0 l0 -230 l-473 0 l0 -62 l0 -6 l491 0 l0 -61 l-284 0 q-36 -74 -59 -113 q43 1 136 4 q56 1 85 2 q-31 32 -68 66 l47 28 q104 -87 154 -162 l-50 -31 q-19 27 -37 47 q-25 -1 -75.5 -3.5 q-50.5 -2.5 -75.5 -4.5 l0 -93 l190 0 l0 -58 l-190 0 l0 -103 l243 0 l0 -59 l-545 0 l0 59 l235 0 l0 103 l-183 0 l0 58 l183 0 l0 90 q-21 -1 -62 -3 q-89 -4 -127 -5 l-7 61 l83 2 q26 49 52 115 l-137 0 q-8 -333 -112 -504 q-22 24 -56 42 Z" /><glyph glyph-name="" unicode="&#x641c;" d="M33 309 q78 20 150 41 l0 218 l-138 0 l0 68 l138 0 l0 200 l72 0 l0 -200 l111 0 l0 -68 l-111 0 l0 -197 l112 33 l10 -67 q-82 -26 -122 -38 l0 -290 q0 -56 -35 -73 q-31 -12 -132 -12 q-6 37 -22 67 q45 -1 99 -1 q18 0 18 19 l0 268 q-89 -28 -131 -41 l-19 73 ZM508 227 q53 -81 148 -138 q102 58 156 138 l-304 0 ZM318 -15 q152 21 266 69 q-90 66 -145 156 l46 17 l-110 0 l0 63 l245 0 l0 90 l-219 0 l0 369 l38 -12 q78 32 116 63 l55 -49 q-58 -34 -143 -64 l0 -89 l107 0 l0 -57 l-107 0 l0 -99 l153 0 l0 394 l66 0 l0 -394 l164 0 l0 99 l-123 0 l0 57 l123 0 l0 96 l-127 0 l0 61 l193 0 l0 -375 l-230 0 l0 -90 l169 0 l13 3 l46 -22 q-59 -131 -191 -218 q106 -48 243 -70 q-25 -25 -46 -65 q-156 30 -270 94 q-125 -61 -299 -89 q-16 40 -33 62 Z" /><glyph glyph-name="" unicode="&#x2f40;&#x652f;" d="M293 385 q71 -141 208 -235 q150 93 223 235 l-431 0 ZM43 -6 q227 35 388 116 q-131 103 -207 254 l60 21 l-158 0 l0 73 l334 0 l0 154 l-379 0 l0 72 l379 0 l0 152 l76 0 l0 -152 l381 0 l0 -72 l-381 0 l0 -154 l230 0 l14 3 l51 -31 q-79 -196 -261 -322 q160 -87 388 -117 q-25 -23 -47 -70 q-245 38 -413 142 q-172 -95 -415 -139 q-4 14 -16.5 36 q-12.5 22 -23.5 34 Z" /><glyph glyph-name="" unicode="&#x6536;" d="M571 582 q41 -198 123 -339 q85 131 130 339 l-253 0 ZM38 192 q6 2 20 5 q31 7 48 12 l0 512 l71 0 l0 -494 q79 21 132 36 l0 569 l72 0 l0 -420 q123 141 188 425 l74 -15 q-23 -97 -50 -170 l367 0 l0 -70 l-59 0 q-58 -254 -164 -405 q98 -134 234 -193 q-32 -28 -51 -63 q-136 66 -230 194 q-101 -118 -257 -194 q-15 36 -43 66 q158 71 257 192 q-75 126 -124 309 q-42 -80 -85 -132 q-22 26 -57 53 l0 -485 l-72 0 l0 269 q-176 -54 -246 -75 l-25 74 Z" /><glyph glyph-name="" unicode="&#x6539;" d="M581 582 q38 -195 114 -333 q74 128 108 335 l-221 0 l-1 -2 ZM96 81.5 q-23 21.5 -23 84.5 l0 318 l265 0 l0 196 l-265 0 l0 69 l337 0 l0 -316 q116 142 166 403 l77 -14 q-18 -88 -45 -167 l351 0 l0 -71 l-81 0 q-43 -253 -141 -404 q93 -132 233 -192 q-30 -26 -52 -63 q-135 63 -228 192 q-105 -125 -284 -197 q-15 32 -45 66 q185 66 287 195 q-70 123 -114 299 q-35 -64 -70 -107 q-24 18 -54 38 l0 -33 l-72 0 l0 38 l-194 0 l0 -249 q0 -24 9 -30.5 q9 -6.5 40 -6.5 l141 0 q28 0 36 20.5 q8 20.5 10 96.5 q23 -19 67 -29 q-7 -95 -28 -126.5 q-21 -31.5 -79 -31.5 l-154 0 q-67 0 -90 21.5 Z" /><glyph glyph-name="" unicode="&#x6545;" d="M596 578 q35 -193 107 -330 q73 130 105 334 l-210 0 l-2 -4 ZM157 106 l214 0 l0 215 l-214 0 l0 -215 ZM46 573 l0 70 l183 0 l0 194 l73 0 l0 -194 l179 0 l0 -70 l-179 0 l0 -182 l137 0 q-6 5 -17 12 q-4 2 -5 3 q119 140 174 431 l74 -12 q-16 -87 -44 -172 l335 0 l0 -71 l-73 0 q-41 -250 -139 -405 q90 -133 219 -191 q-30 -27 -52 -63 q-125 63 -213 191 q-99 -120 -261 -192 q-15 34 -43 66 q168 67 264 192 q-68 125 -108 291 q-32 -65 -70 -114 q-15 16 -38 32 l0 -353 l-285 0 l0 -70 l-69 0 l0 425 l141 0 l0 182 l-183 0 Z" /><glyph glyph-name="" unicode="&#x6548;" d="M47 634 l0 68 l209 0 l0 131 l72 0 l0 -131 l216 0 l0 -68 l-497 0 ZM345 571 l56 31 q79 -85 111 -153 l-59 -36 q-33 72 -108 158 ZM38 406 q80 76 130 195 l69 -18 q-54 -129 -141 -220 q-27 24 -58 43 ZM46 -20 q132 84 218 230 q-65 68 -139 132 l54 43 q72 -60 120 -109 q31 65 55 146 l73 -17 q-30 -100 -73 -184 q83 -88 121 -150 l-59 -50 q-34 57 -101 133 q-86 -140 -214 -231 q-26 33 -55 57 ZM646 572 q28 -177 85 -311 q60 123 88 321 l-170 0 l-3 -10 ZM452 -15 q151 71 237 201 q-52 112 -87 268 q-31 -67 -66 -119 q-27 31 -59 51 q108 146 157 451 l73 -11 q-19 -102 -38 -174 l288 0 l0 -70 l-64 0 q-37 -249 -123 -400 q77 -136 192 -198 q-32 -25 -51 -61 q-108 64 -184 192 q-90 -121 -232 -193 q-20 40 -43 63 Z" /><glyph glyph-name="" unicode="&#x6570;" d="M364 685 q49 72 74 132 l65 -27 q-51 -80 -89 -129 l-50 24 ZM86 790 l56 23 q48 -69 65 -128 l-59 -26 q-16 60 -62 131 ZM644 581 q31 -185 87 -316 q60 123 88 319 l-174 0 l-1 -3 ZM190 164 q57 -23 119 -53 q43 52 63 134 l-140 0 q-7 -14 -22 -42 q-14 -26 -20 -39 ZM38 434 q53 24 106 67 q53 43 90 92 l-185 0 l0 61 l205 0 l0 183 l69 0 l0 -183 l203 0 l0 -61 l-203 0 l0 -5 q34 -20 95 -58 q64 -41 83 -55 l-41 -53 q-30 28 -137 108 l0 -149 l-43 0 l17 -4 q-5 -11 -16 -33 q-12 -25 -18 -37 l267 0 l0 -62 l-87 0 q-21 -101 -71 -167 q63 -34 115 -73 q127 70 200 182 q-53 114 -90 276 q-31 -68 -73 -125 q-15 19 -60 51 q117 146 163 448 l76 -11 q-14 -80 -37 -172 l290 0 l0 -70 l-60 0 q-39 -252 -124 -401 q79 -136 193 -196 q-33 -27 -51 -63 q-111 65 -187 189 q-91 -120 -232 -192 q-12 26 -32 52 l-23 -24 q-47 38 -117 79 q-84 -70 -244 -104 q-9 36 -34 61 q139 24 213 78 q-58 29 -98 46 l-16 -28 l-64 23 q27 47 76 141 l-113 0 l0 62 l144 0 q25 50 41 86 l26 -6 l0 138 q-82 -97 -175 -147 q-19 35 -41 56 Z" /><glyph glyph-name="" unicode="&#x6574;" d="M150 534 l106 0 l0 84 l-106 0 l0 -84 ZM323 534 l108 0 l0 84 l-108 0 l0 -84 ZM640 662 q35 -83 92 -147 q54 65 80 150 l-170 0 l-2 -3 ZM43 360 q45 19 96 53.5 q51 34.5 88 71.5 l-138 0 l0 182 l167 0 l0 51 l-196 0 l0 54 l196 0 l0 65 l67 0 l0 -65 l195 0 l0 -54 l-195 0 l0 -51 l171 0 l0 -81 q104 93 147 250 l68 -15 q-15 -49 -36 -96 l275 0 l0 -60 l-64 0 q-34 -118 -106 -197 q83 -71 187 -103 q-23 -23 -43 -59 q-106 39 -189 117 q-78 -67 -204 -113 q-15 30 -44 55 q123 36 203 106 q-50 59 -85 133 q-27 -39 -62 -72 q-19 25 -47 48 l0 -95 l-165 0 q117 -56 172 -87 l-36 -49 q-40 28 -142 85 l0 -121 l-67 0 l0 128 q-84 -85 -169 -128 q-18 28 -44 47 ZM51 -54 l0 62 l164 0 l0 172 l70 0 l0 -172 l178 0 l0 217 l-345 0 l0 61 l769 0 l0 -61 l-352 0 l0 -77 l287 0 l0 -58 l-287 0 l0 -82 l417 0 l0 -62 l-901 0 Z" /><glyph glyph-name="" unicode="&#x2f42;&#x6587;" d="M283 595 q76 -207 215 -349 q137 138 213 349 l-428 0 ZM42 -6 q241 70 397 198 q-151 159 -238 403 l-147 0 l0 73 l407 0 l0 169 l75 0 l0 -169 l415 0 l0 -73 l-154 0 q-89 -246 -242 -401 q169 -142 406 -198 q-30 -29 -53 -72 q-245 63 -413 214 q-158 -135 -406 -215 q-5 13 -20 35.5 q-15 22.5 -27 35.5 Z" /><glyph glyph-name="" unicode="&#x6599;&#xf9be;" d="M516 716 l38 50 q108 -66 157 -122 l-38 -57 q-50 60 -157 129 ZM465 465 l35 52 q116 -61 167 -112 l-37 -60 q-25 26 -73 61 q-46 33 -92 59 ZM313 552 q37 94 66 225 l64 -16 q-52 -163 -82 -225 l-48 16 ZM58 760 l54 13 q46 -109 59 -219 l-59 -15 q-8 98 -54 221 ZM36 122 q42 52 86 140 q42 86 69 171 l-140 0 l0 70 l160 0 l0 330 l69 0 l0 -330 l163 0 l0 -70 l-163 0 l0 -14 q21 -23 77 -97 q56 -74 73 -100 l-49 -58 q-26 53 -101 170 l0 -410 l-69 0 l0 411 q-64 -186 -138 -285 q-12 30 -37 72 ZM441 205 l322 57 l0 574 l70 0 l0 -561 l118 21 l11 -68 l-129 -23 l0 -281 l-70 0 l0 268 l-310 -56 l-12 69 Z" /><glyph glyph-name="" unicode="&#x659f;" d="M584 736 l52 35 q39 -34 74 -75 q37 -43 53 -76 l-56 -39 q-16 33 -51 77 q-35 44 -72 78 ZM568 487 l53 35 q40 -36 76 -78 q37 -45 54 -79 l-57 -40 q-16 36 -52 81 q-35 45 -74 81 ZM166 130 q40 20 57 57 q15 33 18 97 l-75 0 l0 -154 ZM209 347 l195 0 l0 72 l-195 0 l0 -72 ZM209 599 l195 0 l0 70 l-195 0 l0 -70 ZM209 473 l195 0 l0 72 l-195 0 l0 -72 ZM42 284 l0 63 l100 0 l0 322 l-89 0 l0 63 l89 0 l0 104 l67 0 l0 -104 l195 0 l0 104 l67 0 l0 -104 l82 0 l0 -63 l-82 0 l0 -322 l104 0 l0 -63 l-164 0 l0 -90 q0 -11 2.5 -14 q2.5 -3 12.5 -3 l45 0 q10 0 13 8 q4 9 5 43 q15 -12 50 -21 q-4 -49 -17 -65.5 q-13 -16.5 -44 -16.5 l-58 0 q-39 0 -52.5 13.5 q-13.5 13.5 -13.5 55.5 l0 90 l-59 0 q-5 -83 -25 -125 q-23 -49 -78 -76 q-7 21 -26 38 l0 -78 l395 0 l0 -65 l-395 0 l0 -51 l-66 0 l0 357 l-58 0 ZM552 206 l233 51 l0 577 l70 0 l0 -562 l88 19 l15 -66 l-103 -23 l0 -278 l-70 0 l0 263 l-218 -49 l-15 68 Z" /><glyph glyph-name="" unicode="&#x65b0;" d="M65 670 l0 62 l184 0 l0 101 l72 0 l0 -101 l182 0 l0 -62 l-438 0 ZM328 523 q37 82 50 145 l68 -16 q-3 -8 -9 -25 q-33 -87 -49 -117 l-60 13 ZM125 651 l58 15 q34 -73 43 -142 l-62 -17 q-7 68 -39 144 ZM32 50 q53 35 109 97 q54 61 92 128 l-179 0 l0 63 l195 0 l0 105 l-198 0 l0 63 l464 0 l0 -63 l-194 0 l0 -105 l186 0 l0 -63 l-186 0 l0 -24 q28 -20 85 -67 q55 -45 73 -61 l-44 -55 q-31 37 -114 112 l0 -254 l-72 0 l0 263 q-79 -124 -167 -193 q-22 31 -50 54 ZM410 -29 q85 83 118 213 q23 90 23 224 l0 348 l54 -17 q186 40 278 86 l60 -55 q-106 -47 -321 -90 l0 -178 l334 0 l0 -70 l-112 0 l0 -502 l-73 0 l0 502 l-149 0 l0 -25 q0 -143 -27 -248 q-38 -147 -132 -240 q-7 12 -23.5 28 q-16.5 16 -29.5 24 Z" /><glyph glyph-name="" unicode="&#x2f45;&#x65b9;" d="M46 -19 q129 58 202 163 q62 88 89 216 q18 88 26 234 l-307 0 l0 71 l403 0 l0 174 l75 0 l0 -174 l410 0 l0 -71 l-501 0 q-5 -98 -15 -164 l398 0 q-1 -18 -2 -36 q-15 -214 -32.5 -309.5 q-17.5 -95.5 -46.5 -125.5 q-29 -30 -85 -33 q-18 -1 -44 -1 q-56 0 -123 4 q-4 40 -26 72 q71 -7 167 -7 q36 0 47 11 q23 20 38 101 q15 82 28 254 l-330 0 q-29 -148 -96 -250 q-80 -122 -222 -190 q-20 35 -53 61 Z" /><glyph glyph-name="" unicode="&#x2f46;&#x65e0;" d="M44 -16 q187 57 280 168 q79 96 105 254 l-373 0 l0 70 l382 0 q8 82 10 224 l-330 0 l0 69 l771 0 l0 -69 l-366 0 q-2 -142 -10 -224 l433 0 l0 -70 l-442 0 q-27 -181 -112 -290 q-100 -129 -301 -194 q-15 34 -47 62 ZM539 -42 q-27 23 -27 90 l0 317 l76 0 l0 -318 q0 -25 11.5 -32.5 q11.5 -7.5 50.5 -7.5 l177 0 q37 0 47.5 28 q10.5 28 15.5 131 q23 -18 72 -32 q-8 -120 -33 -159 q-26 -40 -97 -40 l-188 0 q-78 0 -105 23 Z" /><glyph glyph-name="" unicode="&#x2f47;&#x65e5;" d="M255 73 l496 0 l0 279 l-496 0 l0 -279 ZM255 425 l496 0 l0 270 l-496 0 l0 -270 ZM180 -65 l0 833 l649 0 l0 -829 l-78 0 l0 61 l-496 0 l0 -65 l-75 0 Z" /><glyph glyph-name="" unicode="&#x65f6;" d="M155 468 l170 0 l0 218 l-170 0 l0 -218 ZM155 175 l170 0 l0 226 l-170 0 l0 -226 ZM85 28 l0 725 l310 0 l0 -646 l-240 0 l0 -79 l-70 0 ZM440 564 l0 73 l323 0 l0 194 l74 0 l0 -194 l121 0 l0 -73 l-121 0 l0 -530 q0 -39 -11.5 -59 q-11.5 -20 -38.5 -28 q-36 -13 -149 -13 q-20 0 -49 0 q-9 43 -27 74 q64 -2 122 -2 q37 0 51.5 1 q14.5 1 21 6.5 q6.5 5.5 6.5 20.5 l0 530 l-323 0 ZM474 452 l61 32 q119 -170 156 -238 l-65 -38 q-51 97 -152 244 Z" /><glyph glyph-name="" unicode="&#x660e;" d="M153 519 l187 0 l0 189 l-187 0 l0 -189 ZM153 252 l187 0 l0 199 l-187 0 l0 -199 ZM83 91 l0 684 l326 0 l0 -592 l-256 0 l0 -92 l-70 0 ZM567 310 l285 0 l0 175 l-279 0 l0 -45 q0 -76 -6 -130 ZM573 553 l279 0 l0 171 l-279 0 l0 -171 ZM316 -32 q113 87 156 226 q29 97 29 246 l0 354 l423 0 l0 -772 q0 -36 -9 -54.5 q-9 -18.5 -33 -28.5 q-38 -13 -172 -13 q-8 40 -28 72 q41 -1 90 -1 q17 0 41 0 q10 0 13 0 q14 1 20 6.5 q6 5.5 6 18.5 l0 220 l-295 0 q-39 -212 -186 -325 q-21 29 -55 51 Z" /><glyph glyph-name="" unicode="&#x6613;&#xf9e0;" d="M261 472 l491 0 l0 99 l-491 0 l0 -99 ZM261 630 l491 0 l0 99 l-491 0 l0 -99 ZM42 180 q162 92 256 229 l-110 0 l0 382 l639 0 l0 -382 l-443 0 q-16 -28 -58 -81 l-2 -3 l571 0 q-1 -17 -3 -34 q-14 -163 -30 -242 q-16 -74 -39 -98 q-25 -27 -67 -28 q-17 -1 -46 -1 q-37 0 -77 2 q-2 35 -20 65 q48 -5 112 -5 q26 0 36 11 q33 30 55 263 l-122 0 q-39 -104 -100 -193 q-60 -87 -132 -147 q-34 32 -60 46 q140 105 216 294 l-135 0 q-53 -94 -135 -178 q-77 -79 -165 -136 q-30 32 -57 53 q82 46 153 113 q73 69 122 148 l-139 0 q-78 -78 -162 -130 q-27 31 -58 52 Z" /><glyph glyph-name="" unicode="&#x662f;" d="M239 658 l517 0 l0 81 l-517 0 l0 -81 ZM239 523 l517 0 l0 81 l-517 0 l0 -81 ZM166 466 l0 330 l664 0 l0 -330 l-664 0 ZM40 -25 q152 98 194 325 l75 -10 q-9 -47 -26 -100 q53 -123 189 -159 l0 301 l-410 0 l0 67 l878 0 l0 -67 l-395 0 l0 -111 l330 0 l0 -66 l-330 0 l0 -136 q54 -6 118 -6 q244 0 295 1 q-19 -32 -26 -71 l-272 0 q-161 0 -249 33 q-102 38 -160 134 q-58 -115 -156 -188 q-21 28 -55 53 Z" /><glyph glyph-name="" unicode="&#x663e;" d="M245 626 l511 0 l0 102 l-511 0 l0 -102 ZM245 465 l511 0 l0 103 l-511 0 l0 -103 ZM172 404 l0 384 l658 0 l0 -384 l-658 0 ZM680 127 q84 98 138 202 l63 -29 q-69 -114 -144 -200 l-57 27 ZM126 297 l59 25 q78 -117 114 -198 l-61 -29 q-41 93 -112 202 ZM44 -31 l0 72 l309 0 l0 324 l71 0 l0 -324 l146 0 l0 324 l71 0 l0 -324 l315 0 l0 -72 l-912 0 Z" /><glyph glyph-name="" unicode="&#x6666;" d="M144 476 l126 0 l0 219 l-126 0 l0 -219 ZM144 182 l126 0 l0 229 l-126 0 l0 -229 ZM79 38 l0 723 l257 0 l0 -644 l-192 0 l0 -79 l-65 0 ZM345 539 q98 108 148 298 l71 -17 q-17 -57 -33 -99 l416 0 l0 -64 l-443 0 q-48 -100 -100 -164 q-32 29 -59 46 ZM597 478 l46 26 q63 -63 85 -107 l-48 -28 q-28 50 -83 109 ZM584 256 l47 26 q63 -56 96 -110 l-49 -31 q-28 54 -94 115 ZM488 130 l321 0 q6 67 12 165 l-312 0 q-12 -99 -21 -165 ZM516 358 l308 0 q3 74 6 158 l-298 0 q-1 -14 -4 -43 q-8 -76 -12 -115 ZM363 295 l0 63 l87 0 q15 129 22 218 l427 0 q0 -17 -1 -34 q-1 -24 -3 -69 q-3 -80 -5 -115 l71 0 l0 -63 l-74 0 q-4 -87 -11 -165 l70 0 l0 -60 l-77 0 q-11 -84 -31 -110 q-23 -30 -66 -34 q-16 -2 -41 -2 q-33 0 -75 3 q-4 35 -18 59 q50 -4 90 -4 q10 0 16 0 q3 0 6 0 q17 0 28 14 q13 16 23 74 l-321 0 l-6 -41 l-67 5 q14 79 36 261 l-80 0 Z" /><glyph glyph-name="" unicode="&#x66b4;&#xfa06;" d="M131 1 q115 32 297 94 l10 -52 q-151 -57 -275 -99 l-32 57 ZM269 165 l54 28 q53 -46 75 -80 l-57 -31 q-28 44 -72 83 ZM341 -21 q38 -1 67 -1 q30 0 38 1 q11 0 14.5 3 q3.5 3 3.5 12 l0 231 l69 0 l0 -233 q0 -27 -7 -40 q-7 -13 -27 -21 q-27 -9 -137 -9 q-5 28 -21 57 ZM544 46 l34 46 q145 -45 278 -99 l-35 -51 q-122 56 -277 104 ZM606 110 q46 50 75 92 l62 -31 q-51 -58 -88 -88 l-49 27 ZM377 319 l245 0 l0 76 l-245 0 l0 -76 ZM377 454 l245 0 l0 65 l-245 0 l0 -65 ZM241 572 l521 0 l0 64 l-521 0 l0 -64 ZM241 687 l521 0 l0 61 l-521 0 l0 -61 ZM42 141 q138 37 240 116 l-217 0 l0 62 l240 0 l0 76 l-191 0 l0 59 l191 0 l0 65 l-136 0 l0 282 l667 0 l0 -282 l-142 0 l0 -65 l197 0 l0 -59 l-197 0 l0 -76 l245 0 l0 -62 l-212 0 q101 -71 234 -108 q-18 -14 -44 -52 q-72 24 -148 67 q-78 44 -131 93 l-269 0 q-53 -53 -131 -99 q-77 -46 -152 -70 q-21 32 -44 53 Z" /><glyph glyph-name="" unicode="&#x66f4;&#xf901;" d="M230 310 l236 0 q2 20 2 61 l0 40 l-238 0 l0 -101 ZM230 470 l238 0 l0 100 l-238 0 l0 -100 ZM544 470 l252 0 l0 100 l-252 0 l0 -100 ZM542 310 l254 0 l0 101 l-252 0 l0 -41 q0 -22 -2 -60 ZM50 -12 q174 34 265 86 q-74 57 -123 141 l62 25 q51 -78 121 -124 q61 52 81 132 l-297 0 l0 384 l309 0 l0 84 l-400 0 l0 67 l864 0 l0 -67 l-388 0 l0 -84 l325 0 l0 -384 l-336 0 q-19 -99 -89 -170 q88 -40 224 -58 q111 -15 296 -20 q-24 -34 -31 -73 q-191 8 -310 29 q-144 24 -239 75 q-106 -70 -290 -108 q-17 36 -44 65 Z" /><glyph glyph-name="" unicode="&#x6700;" d="M251 683 l500 0 l0 69 l-500 0 l0 -69 ZM251 563 l500 0 l0 70 l-500 0 l0 -70 ZM181 510 l0 295 l643 0 l0 -295 l-643 0 ZM608 271 q34 -82 98 -147 q70 65 108 147 l-206 0 ZM216 63 q19 2 59 6 q81 8 122 13 l0 61 l-181 0 l0 -80 ZM216 199 l181 0 l0 70 l-181 0 l0 -70 ZM216 325 l181 0 l0 67 l-181 0 l0 -67 ZM53 47 q43 3 95 9 l0 336 l-86 0 l0 62 l874 0 l0 -62 l-468 0 l0 -405 q104 31 188 95 q-70 76 -110 176 l43 13 l-86 0 l0 59 l344 0 l13 2 l45 -18 q-44 -135 -147 -235 q88 -68 202 -96 q-27 -23 -45 -58 q-117 34 -209 110 q-86 -66 -199 -105 q-15 32 -39 56 l0 -62 l-71 0 l0 97 q-87 -11 -252 -30 q-59 -7 -85 -10 l-7 66 Z" /><glyph glyph-name="" unicode="&#x6709;" d="M330 354 l417 0 l0 101 l-417 0 l0 -101 ZM330 185 l417 0 l0 104 l-417 0 l0 -104 ZM43 305 q169 114 275 333 l-251 0 l0 70 l282 0 q27 69 44 129 l74 -18 q-1 -3 -3 -9 q-22 -69 -36 -102 l509 0 l0 -70 l-538 0 q-36 -74 -61 -116 l482 0 l0 -505 q0 -34 -9 -52 q-9 -18 -33 -27 q-36 -13 -174 -13 q-4 32 -24 73 q48 -2 105 -2 q11 0 28 0 q8 0 11 0 q23 1 23 21 l0 104 l-417 0 l0 -197 l-73 0 l0 482 q-75 -94 -167 -158 q-18 30 -47 57 Z" /><glyph glyph-name="" unicode="&#x671b;" d="M644 676 l209 0 l3 70 l-207 0 q-1 -24 -5 -70 ZM626 554 l220 0 q1 12 3 39 q1 20 2 31 l-213 0 q-5 -38 -12 -70 ZM450 382 q78 56 107 168 q22 82 26 252 l343 0 q0 -15 -1 -31 q-7 -199 -16 -281 q-9 -83 -28 -106.5 q-19 -23.5 -58 -26.5 q-17 -1 -45 -1 q-27 0 -59 1 q-2 32 -17 59 q40 -4 90 -4 q3 0 5 0 q16 0 25 12 q12 14 19 76 l-229 0 q-36 -109 -118 -167 q-19 33 -44 49 ZM42 668 l0 64 l206 0 l0 104 l70 0 l0 -104 l201 0 l0 -64 l-334 0 l0 -168 q0 -23 7 -32 q7 -9 27 -9 l170 0 q49 0 76 6 q1 -16 6 -55 q1 -6 1 -9 q-19 -6 -82 -6 l-170 0 q-60 0 -82 24 q-21 22 -21 82 l0 167 l-75 0 ZM60 -53 l0 63 l402 0 l0 87 l-292 0 l0 61 l292 0 l0 86 l-335 0 l0 63 l753 0 l0 -63 l-344 0 l0 -86 l296 0 l0 -61 l-296 0 l0 -87 l405 0 l0 -63 l-881 0 Z" /><glyph glyph-name="" unicode="&#x671f;" d="M207 232 l181 0 l0 100 l-181 0 l0 -100 ZM207 550 l181 0 l0 88 l-181 0 l0 -88 ZM207 392 l181 0 l0 98 l-181 0 l0 -98 ZM42 165 l0 67 l97 0 l0 406 l-84 0 l0 67 l84 0 l0 121 l68 0 l0 -121 l181 0 l0 121 l69 0 l0 -121 l73 0 l0 -67 l-73 0 l0 -406 l73 0 l0 -67 l-488 0 ZM43 -34 q89 73 137 178 l71 -19 q-56 -120 -148 -202 q-32 27 -60 43 ZM322 113 l58 31 q76 -86 105 -148 l-60 -35 q-30 66 -103 152 ZM647 327 l206 0 l0 166 l-204 0 l0 -67 q0 -31 -2 -99 ZM649 560 l204 0 l0 159 l-204 0 l0 -159 ZM488 -38 q55 88 77 228 q14 95 14 236 l0 361 l346 0 l0 -768 q0 -61 -38 -78 q-34 -14 -149 -14 q-6 39 -23 72 q40 -1 73 -1 q34 0 44 1 q21 0 21 21 l0 240 l-211 0 q-18 -220 -95 -342 q-9 11 -28 25 q-19 14 -31 19 Z" /><glyph glyph-name="" unicode="&#x672a;" d="M38 40 q105 47 209 133 q104 86 171 182 l-353 0 l0 73 l395 0 l0 172 l-323 0 l0 73 l323 0 l0 163 l77 0 l0 -163 l333 0 l0 -73 l-333 0 l0 -172 l402 0 l0 -73 l-359 0 q68 -96 173 -182 q105 -86 209 -132 q-28 -23 -54 -63 q-99 49 -198.5 136 q-99.5 87 -172.5 187 l0 -378 l-77 0 l0 374 q-72 -99 -171 -184 q-98 -84 -197 -134 q-29 41 -54 61 Z" /><glyph glyph-name="" unicode="&#x672c;" d="M34 141 q112 58 216 172 q101 110 165 240 l-347 0 l0 74 l393 0 l0 209 l77 0 l0 -209 l396 0 l0 -74 l-350 0 q63 -131 164 -239 q104 -111 220 -167 q-37 -31 -55 -65 q-111 61 -210 170 q-96 106 -165 238 l0 -306 l190 0 l0 -74 l-190 0 l0 -186 l-77 0 l0 186 l-195 0 l0 74 l195 0 l0 306 q-70 -131 -166 -237 q-99 -109 -208 -172 q-20 33 -53 60 Z" /><glyph glyph-name="" unicode="&#x672f;" d="M606 773 l54 45 q118 -81 180 -141 l-56 -53 q-58 62 -178 149 ZM40 101 q116 60 225.5 172.5 q109.5 112.5 175.5 238.5 l-371 0 l0 73 l392 0 l0 250 l80 0 l0 -250 l382 0 l0 -73 l-352 0 q69 -115 178 -227 q107 -112 208 -175 q-33 -25 -59 -64 q-90 65 -187 171 q-95 104 -170 219 l0 -513 l-80 0 l0 483 q-73 -116 -168 -212 q-97 -98 -199 -156 q-25 37 -55 63 Z" /><glyph glyph-name="" unicode="&#x673a;" d="M32 177 q52 63 102 167.5 q50 104.5 77 208.5 l-156 0 l0 70 l166 0 l0 214 l70 0 l0 -214 l148 0 l0 -70 l-148 0 l0 -88 q25 -24 82 -87 q52 -58 71 -82 l-46 -61 q-22 38 -107 147 l0 -457 l-70 0 l0 483 q-66 -194 -150 -299 q-8 22 -39 68 ZM350 -28 q90 92 124 239 q24 101 24 251 l0 318 l332 0 l0 -715 q0 -50 7 -57 q8 -6 18 -6 l28 0 q15 0 22 7.5 q7 7.5 10 37.5 q1 32 3 142 q23 -19 57 -31 q0 -105 -8 -155 q-6 -39 -27 -56 q-20 -12 -54 -12 l-50 0 q-36 0 -57 18 q-12 11 -16 32 q-5 25 -5 86 l0 639 l-188 0 l0 -249 q0 -368 -164 -537 q-25 30 -56 48 Z" /><glyph glyph-name="" unicode="&#x6740;" d="M66 485 q185 57 367 145 q-173 83 -288 129 l46 49 q125 -48 318 -137 q151 83 248 168 l62 -42 q-95 -82 -234 -163 q178 -87 279 -150 l-51 -59 q-99 66 -303 168 q-184 -97 -390 -169 q-31 42 -54 61 ZM46 29 q61 38 121.5 94 q60.5 56 102.5 112 l70 -25 q-99 -133 -239 -236 q-26 33 -55 55 ZM61 288 l0 68 l403 0 l0 116 l76 0 l0 -116 l398 0 l0 -68 l-398 0 l0 -277 q0 -33 -8.5 -49.5 q-8.5 -16.5 -30.5 -25.5 q-31 -13 -143 -13 q-6 34 -27 73 q44 -3 86 -3 q20 0 28 1 q19 1 19 17 l0 277 l-403 0 ZM656 197 l58 35 q157 -119 229 -210 l-63 -40 q-33 44 -99 106 q-62 59 -125 109 Z" /><glyph glyph-name="" unicode="&#x6743;" d="M35 169 q53 65 102 175 q47 105 74 213 l-157 0 l0 68 l166 0 l0 212 l72 0 l0 -212 l137 0 l0 -68 l-137 0 l0 -105 q60 -49 158 -142 l-41 -68 q-34 46 -117 133 l0 -450 l-72 0 l0 463 q-66 -188 -143 -285 q-11 28 -42 66 ZM368 -14 q154 65 265 197 q-115 169 -170 462 l66 14 q51 -264 151 -415 q124 177 172 429 l-428 0 l0 72 l449 0 l13 3 l48 -15 q-49 -337 -207 -552 q92 -112 241 -197 q-35 -26 -52 -63 q-145 90 -237 200 q-110 -126 -264 -198 q-24 42 -47 63 Z" /><glyph glyph-name="" unicode="&#x6750;" d="M30 176 q56 61 109 167 q52 104 80 209 l-155 0 l0 71 l166 0 l0 214 l74 0 l0 -214 l136 0 l0 -71 l-136 0 l0 -26 q31 -34 145 -166 q13 -15 17 -20 l-47 -64 q-27 44 -115 160 l0 -511 l-74 0 l0 480 q-74 -201 -159 -299 q-13 34 -41 70 ZM420 142 q92 63 184 178 q90 111 146 231 l-272 0 l0 71 l298 0 l0 213 l76 0 l0 -213 l103 0 l0 -71 l-103 0 l0 -526 q0 -38 -10.5 -57.5 q-10.5 -19.5 -35.5 -27.5 q-38 -15 -176 -15 q-7 38 -27 76 q41 -1 91 -1 q17 0 42 0 q11 0 15 0 q14 1 19.5 6 q5.5 5 5.5 18 l0 426 q-60 -109 -140 -207 q-81 -99 -163 -161 q-25 37 -53 60 Z" /><glyph glyph-name="" unicode="&#x6761;" d="M344 676 q62 -78 159 -136 q99 62 159 141 l-313 0 l-5 -5 ZM62 382 q208 34 375 119 q-85 58 -143 130 q-71 -62 -163 -111 q-30 40 -53 53 q105 51 187 126 q73 67 114 139 l82 -15 q-27 -43 -55 -77 l305 0 l13 3 l49 -30 q-66 -124 -200 -217 q165 -77 380 -103 q-30 -32 -44 -67 q-235 36 -404 127 q-171 -97 -409 -143 q-12 40 -34 66 ZM41 2 q97 31 192 89 q98 59 162 128 l-335 0 l0 66 l401 0 l0 107 l74 0 l0 -107 l406 0 l0 -66 l-339 0 q64 -68 163 -125 q95 -56 195 -86 q-32 -28 -50 -63 q-104 37 -204 103 q-102 68 -171 148 l0 -272 l-74 0 l0 273 q-68 -81 -171 -150 q-99 -68 -201 -106 q-14 27 -48 61 Z" /><glyph glyph-name="" unicode="&#x6765;" d="M39 28 q101 44 202.5 125 q101.5 81 169.5 172 l-351 0 l0 71 l401 0 l0 249 l-354 0 l0 71 l354 0 l0 120 l77 0 l0 -120 l362 0 l0 -71 l-362 0 l0 -249 l404 0 l0 -71 l-353 0 q68 -92 170.5 -174 q102.5 -82 203.5 -125 q-32 -30 -52 -63 q-99 49 -199.5 136 q-100.5 87 -173.5 187 l0 -362 l-77 0 l0 360 q-72 -98 -172 -184 q-99 -84 -198 -133 q-22 33 -52 61 ZM188 597 l65 25 q73 -106 95 -187 l-70 -27 q-10 38 -35.5 92 q-25.5 54 -54.5 97 ZM654 427 q59 93 101 199 l76 -24 q-68 -132 -115 -196 l-62 21 Z" /><glyph glyph-name="" unicode="&#x6784;" d="M381 195 q18 2 60 6 q13 1 20 2 q53 140 91 325 l72 -16 q-45 -168 -94 -301 q15 2 45 5 q78 10 118 14 q-28 67 -53 110 l57 19 q75 -131 102 -233 l-62 -23 q-10 39 -22 72 q-150 -25 -317 -48 l-17 68 ZM26 186 q50 60 98 165 q47 101 73 203 l-145 0 l0 69 l154 0 l0 214 l72 0 l0 -214 l132 0 l0 -66 q71 115 113 280 l73 -17 q-23 -84 -49 -147 l389 0 q0 -19 -1 -38 q-11 -357 -24 -491 q-14 -142 -42 -177 q-13 -20 -32 -29 q-14 -8 -41 -11 q-19 -3 -52 -3 q-33 0 -76 3 q-2 42 -24 73 q54 -5 123 -5 q2 0 5 0 q20 0 32 16 q22 26 35 157 q13 135 22 437 l-342 0 q-49 -108 -109 -181 q-41 35 -62 48 q34 39 60 82 l-130 0 l0 -79 q48 -53 142 -168 l-47 -61 q-25 46 -95 142 l0 -463 l-72 0 l0 482 q-67 -193 -141 -288 q-15 36 -39 67 Z" /><glyph glyph-name="" unicode="&#x679c;" d="M237 458 l225 0 l0 103 l-225 0 l0 -103 ZM237 622 l225 0 l0 102 l-225 0 l0 -102 ZM539 622 l227 0 l0 102 l-227 0 l0 -102 ZM539 458 l227 0 l0 103 l-227 0 l0 -103 ZM40 18 q99 32 196 92 q99 61 164 131 l-335 0 l0 69 l397 0 l0 84 l-300 0 l0 395 l683 0 l0 -395 l-306 0 l0 -84 l397 0 l0 -69 l-335 0 q68 -68 168 -128 q97 -58 193 -90 q-28 -25 -51 -62 q-97 39 -197 106 q-103 70 -175 148 l0 -292 l-77 0 l0 287 q-70 -80 -173 -149 q-99 -66 -199 -104 q-19 31 -50 61 Z" /><glyph glyph-name="" unicode="&#x6837;" d="M441 808 l65 24 q66 -90 89 -156 l-69 -29 q-24 74 -85 161 ZM35 197 q44 61 87 170 q40 102 63 208 l-126 0 l0 70 l126 0 l0 192 l71 0 l0 -192 l106 0 l0 -70 l-106 0 l0 -40 q19 -26 62 -93 q42 -65 56 -88 l-46 -54 q-17 40 -72 142 l0 -518 l-71 0 l0 458 q-51 -164 -111 -256 q-15 40 -39 71 ZM362 162 l0 69 l262 0 l0 141 l-193 0 l0 69 l193 0 l0 136 l-225 0 l0 69 l327 0 q56 90 94 193 l74 -25 q-40 -87 -89 -168 l118 0 l0 -69 l-226 0 l0 -136 l195 0 l0 -69 l-195 0 l0 -141 l247 0 l0 -69 l-247 0 l0 -238 l-73 0 l0 238 l-262 0 Z" /><glyph glyph-name="" unicode="&#x6839;" d="M32 177 q48 62 94 169 q45 104 69 208 l-140 0 l0 69 l149 0 l0 214 l71 0 l0 -214 l131 0 l0 -69 l-131 0 l0 -87 q59 -66 137 -172 l-46 -59 q-26 50 -91 144 l0 -455 l-71 0 l0 472 q-61 -191 -134 -287 q-12 30 -38 67 ZM530 428 l292 0 l0 113 l-292 0 l0 -113 ZM530 607 l292 0 l0 111 l-292 0 l0 -111 ZM379 14 q36 6 81 15 l0 755 l434 0 l0 -421 l-210 0 q23 -90 61 -161 q95 69 151 127 l51 -54 q-83 -66 -173 -123 q78 -119 191 -168 q-33 -31 -49 -63 q-216 109 -298 442 l-88 0 l0 -321 q29 6 92 18 q66 13 99 20 l6 -66 q-79 -19 -236 -52 q-63 -14 -91 -20 l-21 72 Z" /><glyph glyph-name="" unicode="&#x683c;" d="M512 288 l332 0 q-90 43 -169 113 q-72 -64 -163 -113 ZM531 32 l279 0 l0 192 l-279 0 l0 -192 ZM562 647 q45 -85 112 -152 q76 80 118 170 l-218 0 l-12 -18 ZM32 177 q49 62 95 169 q45 104 69 208 l-141 0 l0 69 l149 0 l0 214 l71 0 l0 -214 l129 0 l0 -55 q117 112 177 270 l72 -20 q-15 -39 -41 -88 l214 0 l13 3 l46 -22 q-49 -146 -161 -262 q112 -93 249 -133 q-27 -27 -46 -63 q-32 12 -47 18 l0 -344 l-70 0 l0 40 l-279 0 l0 -44 l-68 0 l0 341 q-29 -14 -79 -33 q-14 34 -42 60 q157 50 283 158 q-61 66 -104 140 q-48 -62 -98 -106 q-28 30 -59 50 q4 4 12.5 11 q8.5 7 12.5 10 l-114 0 l0 -44 q74 -85 126 -153 l-44 -58 q-26 48 -82 125 l0 -499 l-71 0 l0 472 q-61 -188 -133 -286 q-13 31 -39 66 Z" /><glyph glyph-name="" unicode="&#x6b22;" d="M428 463 q84 117 119 372 l70 -9 q-12 -83 -26 -140 l290 0 l13 3 l49 -15 q-34 -143 -67 -219 l-59 20 q20 52 43 143 l-287 0 q-32 -117 -85 -197 q-20 18 -60 42 ZM29 45 q117 78 205 245 q-88 143 -178 258 l53 40 q77 -97 160 -221 q57 130 82 288 l-297 0 l0 67 l317 0 l12 3 l45 -15 q-29 -232 -113 -413 q60 -94 96 -172 l-60 -49 q-32 72 -75 144 q-86 -150 -197 -230 q-22 34 -50 55 ZM358 -28 q168 104 232 262 q41 103 41 254 l0 70 l70 0 l0 -71 q0 -43 -2 -66 q62 -342 268 -435 q-31 -28 -49 -63 q-168 87 -245 335 q-59 -208 -262 -337 q-16 23 -53 51 Z" /><glyph glyph-name="" unicode="&#x6b23;" d="M31 -8 q46 85 63 212 q12 87 12 215 l0 354 l72 -22 q171 43 251 84 l61 -52 q-106 -49 -314 -93 l0 -153 l321 0 l0 -23 q49 121 75 321 l73 -11 q-12 -87 -30 -167 l278 0 l13 4 l48 -17 q-29 -174 -64 -264 l-56 25 q22 65 40 183 l-129 0 l0 -144 q-1 -99 39 -212 q58 -165 182 -247 q-2 -3 -7 -9 q-30 -40 -39 -54 q-97 66 -157 193 q-43 91 -55 179 q-11 -87 -61 -178 q-68 -125 -179 -194 q-20 34 -43 60 q140 84 205 249 q43 110 42 213 l0 144 l-75 0 q-34 -126 -85 -212 q-36 31 -63 45 q13 19 28 48 l-81 0 l0 -517 l-70 0 l0 517 l-150 0 l0 -50 q0 -317 -91 -476 q-8 12 -24.5 27.5 q-16.5 15.5 -29.5 21.5 Z" /><glyph glyph-name="" unicode="&#x6b49;" d="M392 416 l83 0 l0 74 l-83 0 l0 -74 ZM392 274 l83 0 l0 84 l-83 0 l0 -84 ZM247 274 l83 0 l0 84 l-83 0 l0 -84 ZM247 416 l83 0 l0 74 l-83 0 l0 -74 ZM247 546 l83 0 l0 58 l-83 0 l0 -58 ZM35 24 q37 32 76 85.5 q39 53.5 65 107.5 l-108 0 l0 57 l117 0 l0 84 l-142 0 l0 58 l142 0 l0 74 l-117 0 l0 56 l117 0 l0 58 l-130 0 l0 58 l130 0 l0 70 q-60 -16 -114 -26 q-9 26 -21 46 q160 35 229 77 l54 -42 q-37 -19 -86 -36 l0 -89 l83 0 l0 50 l-16 -4 q-5 22 -21 47 q133 36 194 79 l56 -43 q-55 -32 -151 -62 l0 -67 l174 0 l0 -58 l-174 0 l0 -58 l142 0 l0 -78 q76 125 104 370 l70 -11 q-14 -92 -28 -156 l215 0 l12 3 l47 -13 q-24 -163 -50 -254 l-58 16 q18 70 32 182 l-98 0 l0 -151 q-1 -100 32 -214 q49 -169 153 -256 q-35 -42 -46 -62 q-80 69 -129 197 q-35 90 -45 177 q-10 -86 -49 -177 q-55 -125 -148 -198 q-22 37 -42 60 q118 89 171 258 q34 110 34 215 l0 151 l-48 0 q-30 -110 -73 -182 q-34 28 -56 42 l0 -49 l59 0 l0 -58 l-59 0 l0 -141 l-142 0 l0 -5 q25 -21 79 -73 q54 -51 70 -69 l-42 -60 q-28 43 -107 128 l0 -214 l-62 0 l0 293 l-83 0 l0 -293 l-62 0 l0 199 q-56 -108 -118 -165 q-10 29 -32 66 Z" /><glyph glyph-name="" unicode="&#x6b63;" d="M56 -33 l0 73 l136 0 l0 468 l75 0 l0 -468 l220 0 l0 651 l-393 0 l0 72 l819 0 l0 -72 l-350 0 l0 -266 l312 0 l0 -73 l-312 0 l0 -312 l383 0 l0 -73 l-890 0 Z" /><glyph glyph-name="" unicode="&#x6b64;" d="M48 15 q10 2 31 5 q32 5 49 8 l0 607 l72 0 l0 -594 l114 19 l0 776 l74 0 l0 -306 l143 0 l0 -72 l-143 0 l0 -384 l143 25 l6 -74 q-79 -15 -238 -44 q-172 -32 -239 -45 l-12 79 ZM605 -17 q-24 28 -24 109 l0 744 l77 0 l0 -363 q140 78 214 146 l61 -59 q-105 -79 -275 -162 l0 -308 q0 -40 9 -51.5 q9 -11.5 40 -11.5 l136 0 q31 0 40 36 q9 31 13 141 q31 -21 71 -33 q-7 -125 -29 -168 q-24 -48 -89 -48 l-151 0 q-69 0 -93 28 Z" /><glyph glyph-name="" unicode="&#x6b8a;" d="M156 407 q77 -46 127 -92 q32 99 46 205 l-130 0 q-20 -60 -43 -113 ZM26 326 q101 129 151 397 l-125 0 l0 68 l386 0 l0 -68 l-189 0 q-9 -50 -30 -136 l130 0 l13 3 l43 -15 q-7 -58 -13 -90 q74 98 111 301 l69 -11 q-12 -62 -29 -123 l100 0 l0 179 l71 0 l0 -179 l196 0 l0 -68 l-196 0 l0 -174 l234 0 l0 -68 l-196 0 q41 -83 100 -156 q61 -75 123 -116 q-31 -26 -52 -57 q-57 46 -112.5 121 q-55.5 75 -96.5 160 l0 -375 l-71 0 l0 361 q-49 -87 -117 -161 q-68 -74 -140 -120 q-18 30 -51 57 q77 42 151 121 q72 76 120 165 l-200 0 l0 68 l237 0 l0 174 l-123 0 q-31 -84 -71 -140 q-24 20 -58 36 q-68 -395 -281 -556 q-26 35 -52 52 q126 91 200 268 q-52 52 -130 105 q-21 -39 -45 -72 q-20 23 -57 49 Z" /><glyph glyph-name="" unicode="&#x6bb5;" d="M425 461 q60 37 84 92 q17 41 17 101 l0 141 l295 0 l0 -245 q0 -28 5.5 -32.5 q5.5 -4.5 16.5 -4.5 l29 0 q15 0 21 3 q8 5 11 21.5 q3 16.5 5 85.5 q20 -19 56 -28 q-4 -81 -10 -100 q-8 -24 -30 -33 q-16 -10 -47 -10 l-51 0 q-37 0 -55 18 q-11 9 -15 26 q-5 18 -5 58 l0 175 l-157 0 l0 -77 q0 -166 -120 -242 q-7 10 -23 26.5 q-16 16.5 -27 24.5 ZM37 142 l82 13 l0 607 l40 -14 q156 42 236 88 l64 -53 q-99 -48 -270 -90 l0 -115 l230 0 l0 -68 l-230 0 l0 -122 l238 0 l0 -69 l-238 0 l0 -152 q100 16 264 45 l4 -69 l-268 -48 l0 -170 l-70 0 l0 157 l-69 -12 l-13 72 ZM576 328 q41 -105 116 -183 q83 80 126 183 l-242 0 ZM392 -13 q143 37 245 113 q-79 88 -127 215 l49 13 l-90 0 l0 68 l383 0 l14 3 l47 -19 q-50 -169 -167 -283 q92 -73 219 -108 q-28 -22 -49 -64 q-132 41 -226 123 q-109 -82 -257 -126 q-16 39 -41 65 Z" /><glyph glyph-name="" unicode="&#x6bcf;" d="M44 509 q67 58 129 149 q60 88 100 184 l76 -22 q-28 -62 -49 -99 l618 0 l0 -67 l-657 0 q-71 -114 -148 -191 q-40 30 -69 46 ZM237 120 l308 0 q-69 64 -179 120 l42 41 q53 -25 105 -59 q56 -36 85 -65 l-34 -37 l164 0 q6 63 12 161 l-479 0 q-15 -103 -24 -161 ZM270 345 l299 0 q-30 28 -79 59 q-51 33 -99 54 l42 42 q49 -21 100.5 -52.5 q51.5 -31.5 81.5 -58.5 l-42 -44 l170 0 q3 74 6 158 l-458 0 q-4 -31 -12 -94 q-6 -43 -9 -64 ZM46 279 l0 68 l152 0 q19 131 28 222 l597 0 q0 -18 -1 -37 q-3 -121 -7 -185 l141 0 l0 -68 l-144 0 q-4 -84 -11 -159 l120 0 l0 -67 l-128 0 q-11 -70 -29 -92 q-24 -31 -70 -36 q-15 -1 -38 -1 q-40 0 -90 3 q-2 31 -19 58 q57 -3 97 -3 q12 0 19 0 q25 0 37 13 q10 13 19 58 l-493 0 l-7 -38 l-75 5 q23 113 44 259 l-142 0 Z" /><glyph glyph-name="" unicode="&#x2f50;&#x6bd4;" d="M42 23 q68 12 134 27 l0 781 l75 0 l0 -302 l224 0 l0 -71 l-224 0 l0 -392 q79 17 245 56 q7 2 11 3 l7 -71 q-188 -47 -448 -108 l-24 77 ZM575 -27 q-25 28 -25 109 l0 749 l75 0 l0 -356 q160 77 246 145 l55 -63 q-113 -73 -301 -154 l0 -322 q0 -41 10 -53 q10 -12 46 -12 l155 0 q34 0 45 36 q9 32 14 144 q28 -22 70 -32 q-8 -127 -31 -171 q-25 -48 -94 -48 l-167 0 q-73 0 -98 28 Z" /><glyph glyph-name="" unicode="&#x2f54;&#x6c34;" d="M34 79 q100 62 173 170 q76 113 111 259 l-260 0 l0 74 l288 0 l15 3 l49 -19 q-36 -190 -122 -334 q-81 -135 -195 -212 q-22 33 -59 59 ZM280 4 q52 -2 113 -2 q12 0 31 0 q9 0 12 0 q15 1 21 6.5 q6 5.5 6 20.5 l0 805 l77 0 l0 -181 q32 -121 84 -226 q146 128 237 248 l67 -48 q-144 -158 -273 -259 q126 -220 313 -301 q-36 -30 -56 -67 q-241 118 -372 458 l0 -429 q0 -39 -11 -59.5 q-11 -20.5 -36 -31.5 q-38 -15 -183 -15 q-5 35 -30 81 Z" /><glyph glyph-name="" unicode="&#x6c38;" d="M280 774 l36 61 q96 -23 198 -58 q109 -38 170 -71 l-38 -69 q-61 34 -167 74 q-106 40 -199 63 ZM39 42 q85 50 152 133 q69 86 106 193 l-238 0 l0 71 l270 0 l13 3 l49 -22 q-37 -147 -118 -263 q-75 -106 -176 -171 q-20 29 -58 56 ZM189 560 l0 72 l353 0 l0 -74 q35 -117 86 -208 q135 103 231 210 l67 -48 q-140 -131 -263 -217 q117 -174 297 -242 q-33 -31 -51 -65 q-242 105 -367 385 l0 -354 q0 -34 -9.5 -52.5 q-9.5 -18.5 -33.5 -27.5 q-35 -13 -168 -13 q-5 36 -27 74 q53 -3 103 -3 q23 0 33 1 q14 1 19 5.5 q5 4.5 5 16.5 l0 540 l-275 0 Z" /><glyph glyph-name="" unicode="&#x6c42;" d="M41 86 q121 63 336 186 l23 -66 q-174 -108 -314 -186 l-45 66 ZM122 501 l57 38 q119 -105 162 -181 l-60 -43 q-21 38 -67 92 q-44 51 -92 94 ZM630 786 l44 47 q122 -61 185 -112 l-47 -52 q-66 56 -182 117 ZM68 598 l0 71 l393 0 l0 165 l75 0 l0 -165 l400 0 l0 -71 l-400 0 l0 -13 q42 -125 107 -228 q107 95 185 200 l64 -45 q-97 -112 -211 -211 q121 -169 284 -239 q-37 -33 -54 -65 q-233 114 -375 422 l0 -394 q0 -39 -10.5 -59 q-10.5 -20 -36.5 -30 q-38 -14 -180 -14 q-7 39 -27 78 q57 -2 109 -2 q32 0 44 1 q15 1 20.5 6 q5.5 5 5.5 20 l0 573 l-393 0 Z" /><glyph glyph-name="" unicode="&#x6c49;" d="M94 768 l38 52 q124 -53 188 -108 l-39 -57 q-29 26 -83 58 q-53 32 -104 55 ZM45 497 l36 53 q120 -51 186 -103 l-36 -60 q-30 26 -83.5 57.5 q-53.5 31.5 -102.5 52.5 ZM73 -14 q95 134 189 320 l49 -47 q-83 -170 -180 -322 l-58 49 ZM473 689 q59 -262 174 -432 q131 179 178 432 l-352 0 ZM284 -15 q184 67 316 213 q-128 185 -197 491 l-42 0 l0 71 l485 0 l12 4 l47 -16 q-52 -340 -215 -552 q115 -143 276 -210 q-21 -16 -49 -59 q-161 71 -274 212 q-127 -138 -317 -215 q-20 41 -42 61 Z" /><glyph glyph-name="" unicode="&#x6c89;" d="M348 574 l0 200 l587 0 l0 -200 l-73 0 l0 129 l-444 0 l0 -129 l-70 0 ZM93 773 l44 50 q104 -56 182 -109 l-46 -58 q-63 47 -180 117 ZM42 505 l41 52 q113 -47 191 -96 l-43 -60 q-63 42 -189 104 ZM72 -14 q99 146 193 330 l55 -48 q-87 -171 -186 -332 l-62 50 ZM287 -21 q105 65 146 166 q29 72 29 177 l0 210 l340 0 l0 -485 q0 -22 4 -28.5 q4 -6.5 17 -6.5 l56 0 q16 0 20 31 q4 30 6 140 q25 -20 67 -31 q-5 -124 -21 -166 q-18 -43 -66 -43 l-73 0 q-48 0 -65.5 21.5 q-17.5 21.5 -17.5 82.5 l0 415 l-195 0 l0 -142 q0 -274 -199 -398 q-7 14 -22 31 q-15 20 -26 26 Z" /><glyph glyph-name="" unicode="&#x6ca1;" d="M294 462 q79 43 112 108 q24 48 24 116 l0 115 l355 0 l0 -244 q0 -32 7 -36 q7 -4 23 -4 l38 0 q20 0 27 4 q11 2 14 23 q3 18 5 92 q18 -17 61 -32 q-2 -84 -11 -106 q-9 -23 -34 -35 q-20 -10 -56 -10 l-61 0 q-39 0 -64 19 q-12 10 -17 27 q-5 20 -5 62 l0 170 l-210 0 l0 -46 q0 -188 -157 -277 q-7 12 -23 29 q-16 17 -28 25 ZM95 775 l41 53 q50 -21 101 -51 q53 -31 82 -58 l-44 -59 q-28 27 -80 60 q-51 32 -100 55 ZM42 507 l40 54 q49 -19 102 -47 q54 -30 83 -54 l-41 -62 q-67 57 -184 109 ZM74 -14 q87 133 178 320 l55 -47 q-78 -167 -170 -321 l-63 48 ZM485 328 q49 -102 141 -182 q99 79 151 182 l-292 0 ZM266 -11 q170 33 300 115 q-93 87 -149 208 l47 16 l-122 0 l0 70 l475 0 l14 3 l49 -22 q-59 -167 -194 -278 q122 -82 281 -113 q-26 -25 -49 -66 q-170 39 -294 133 q-132 -89 -320 -133 q-14 39 -38 67 Z" /><glyph glyph-name="" unicode="&#x6cd5;" d="M95 775 l40 55 q55 -20 108 -47 q58 -30 88 -56 l-42 -61 q-31 26 -86.5 57.5 q-55.5 31.5 -107.5 51.5 ZM42 501 l39 57 q130 -43 198 -92 l-40 -63 q-31 24 -88 52 q-56 28 -109 46 ZM77 -16 q98 150 179 321 l56 -48 q-80 -169 -172 -321 l-63 48 ZM309 349 l0 71 l278 0 l0 183 l-228 0 l0 70 l228 0 l0 163 l76 0 l0 -163 l237 0 l0 -70 l-237 0 l0 -183 l284 0 l0 -71 l-346 0 q-73 -187 -128 -296 q158 8 340 20 q-51 78 -103 142 l63 33 q58 -68 111 -147 q55 -82 80 -140 l-69 -39 q-16 41 -42 85 q-185 -14 -515 -36 q-11 -1 -17 -1 l-11 74 l83 4 q69 140 120 301 l-204 0 Z" /><glyph glyph-name="" unicode="&#x6ce8;" d="M99 774 l40 55 q52 -19 105 -48 q55 -31 85 -57 l-43 -61 q-29 27 -83 59 q-53 31 -104 52 ZM42 504 l39 56 q126 -42 195 -92 l-41 -63 q-31 24 -87 52 q-54 28 -106 47 ZM79 -13 q100 143 189 320 l54 -49 q-81 -163 -181 -321 l-62 50 ZM306 -46 l0 71 l288 0 l0 242 l-218 0 l0 70 l218 0 l0 215 l-256 0 l0 70 l353 0 q-35 38 -99.5 84 q-64.5 46 -125.5 77 l48 56 q63 -32 128 -75 q67 -45 103 -81 l-50 -61 l242 0 l0 -70 l-267 0 l0 -215 l231 0 l0 -70 l-231 0 l0 -242 l288 0 l0 -71 l-652 0 Z" /><glyph glyph-name="" unicode="&#x6d3b;" d="M94 771 l41 53 q113 -54 187 -103 l-43 -60 q-60 42 -185 110 ZM45 498 l41 54 q123 -61 185 -101 l-42 -61 q-72 49 -184 108 ZM69 -13 q86 120 189 320 l54 -49 q-84 -170 -181 -321 l-62 50 ZM461 35 l356 0 l0 206 l-356 0 l0 -206 ZM320 474 l0 72 l288 0 l0 162 q-102 -15 -220 -27 q-4 24 -20 63 q334 35 484 89 l59 -58 q-95 -32 -232 -56 l0 -173 l274 0 l0 -72 l-274 0 l0 -164 l209 0 l0 -381 l-71 0 l0 37 l-356 0 l0 -42 l-68 0 l0 386 l215 0 l0 164 l-288 0 Z" /><glyph glyph-name="" unicode="&#x6d4f;" d="M86 770 l49 38 q87 -72 128 -130 l-52 -44 q-42 64 -125 136 ZM45 500 l47 43 q93 -63 139 -118 l-48 -48 q-45 56 -138 123 ZM66 -7 q71 131 135 299 l56 -40 q-67 -175 -129 -298 l-62 39 ZM241 -5 q124 103 193 289 q-70 113 -135 198 l53 35 q57 -74 109 -151 q31 112 49 233 l-230 0 l0 67 l168 0 q-29 73 -67 137 l61 25 q49 -77 71 -134 l-63 -28 l194 0 l0 -67 l-65 0 q-26 -170 -70 -306 q81 -131 112 -215 l-60 -42 q-29 80 -84 173 q-70 -166 -184 -268 q-20 28 -52 54 ZM685 140 l0 590 l65 0 l0 -590 l-65 0 ZM731 -12 q34 -1 61 -1 q28 0 37 1 q18 0 18 18 l0 831 l68 0 l0 -830 q0 -30 -8 -46.5 q-8 -16.5 -26 -25.5 q-30 -13 -128 -13 q-5 30 -22 66 Z" /><glyph glyph-name="" unicode="&#x6d88;" d="M754 620 q67 95 106 189 l71 -29 q-60 -115 -113 -187 l-64 27 ZM42 510 l42 52 q119 -59 177 -113 l-44 -59 q-61 59 -175 120 ZM72 -19 q89 144 169 322 l55 -45 q-72 -168 -160 -324 l-64 47 ZM89 775 l43 51 q46 -23 96 -55.5 q50 -32.5 77 -58.5 l-46 -58 q-25 27 -75 62 q-47 33 -95 59 ZM352 775 l63 29 q34 -44 62 -93 q30 -53 42 -90 l-67 -33 q-11 38 -40 91 q-28 53 -60 96 ZM453 205 l367 0 l0 107 l-367 0 l0 -107 ZM453 377 l367 0 l0 106 l-367 0 l0 -106 ZM380 -77 l0 630 l223 0 l0 284 l73 0 l0 -284 l216 0 l0 -536 q0 -32 -8.5 -49 q-8.5 -17 -29.5 -27 q-21 -8 -61 -11 q-26 -1 -95 -1 q-5 30 -24 71 q57 -2 125 -2 q21 1 21 20 l0 123 l-367 0 l0 -218 l-73 0 Z" /><glyph glyph-name="" unicode="&#x6d89;" d="M94 774 l40 54 q51 -21 100 -50 q53 -31 80 -57 l-43 -59 q-27 26 -79 59 q-49 30 -98 53 ZM41 505 l41 56 q49 -20 100 -47 q54 -29 83 -53 l-42 -62 q-29 25 -81 55.5 q-52 30.5 -101 50.5 ZM63 -17 q85 134 172 319 l56 -45 q-74 -166 -163 -320 l-65 46 ZM322 -16 q226 35 347.5 128.5 q121.5 93.5 169.5 268.5 l72 -20 q-53 -190 -182.5 -294.5 q-129.5 -104.5 -367.5 -148.5 q-15 38 -39 66 ZM300 220 q92 78 146 187 l68 -20 q-29 -56 -72 -114 q-42 -56 -84 -95 q-24 22 -58 42 ZM296 445 l0 69 l118 0 l0 239 l68 0 l0 -239 l122 0 l0 323 l72 0 l0 -129 l232 0 l0 -67 l-232 0 l0 -127 l280 0 l0 -69 l-280 0 l0 -232 q0 -29 -6 -43 q-8 -16 -28 -24 q-18 -8 -52 -10 q-22 -2 -78 -2 q-5 33 -22 67 q46 -1 99 -1 q16 0 16 14 l0 231 l-309 0 Z" /><glyph glyph-name="" unicode="&#x6da9;" d="M344 420 q248 103 251 309 l-228 0 l0 68 l498 0 l0 -3 l51 0 q-1 -15 -3 -31 q-10 -160 -21.5 -230 q-11.5 -70 -31.5 -92 q-21 -24 -64 -27 q-17 -1 -46 -1 q-37 0 -76 2 q-2 33 -21 65 q63 -5 115 -5 q24 0 35 11 q26 26 41 243 l-179 0 q0 -244 -272 -358 q-23 29 -49 49 ZM323 542 q56 49 91 145 l53 -23 q-43 -105 -91 -153 l-53 31 ZM94 773 l46 49 q110 -69 158 -115 l-48 -55 q-47 47 -156 121 ZM43 507 l45 50 q107 -65 158 -111 l-47 -56 q-55 54 -156 117 ZM69 -17 q76 126 151 295 l57 -43 q-70 -163 -142 -298 l-66 46 ZM272 -48 l0 65 l126 0 l0 281 l70 0 l0 -281 l126 0 l0 368 l71 0 l0 -136 l231 0 l0 -67 l-231 0 l0 -165 l287 0 l0 -65 l-680 0 Z" /><glyph glyph-name="" unicode="&#x6de1;" d="M724 600 q60 77 106 174 l74 -26 q-68 -107 -122 -173 l-58 25 ZM333 598 q58 60 91 173 l64 -13 q-31 -117 -92 -186 l-63 26 ZM317 428 q120 27 179 74 q56 45 78 129 q17 65 21 205 l73 0 q-5 -149 -25 -224 q188 -98 294 -181 l-46 -58 q-84 72 -269 176 q-31 -68 -93 -111 q-63 -43 -172 -70 q-13 30 -40 60 ZM725 158 q29 36 62 91 q32 53 52 97 l76 -26 q-68 -113 -130 -186 l-60 24 ZM319 151 q30 31 56 84 q24 50 38 105 l67 -14 q-32 -131 -98 -207 l-63 32 ZM92 769 l45 51 q117 -56 177 -111 l-47 -57 q-60 57 -175 117 ZM40 501 l46 50 q46 -21 96 -51 q52 -30 80 -54 l-48 -58 q-58 55 -174 113 ZM66 -6 q84 131 166 315 l59 -49 q-72 -161 -159 -315 l-66 49 ZM272 -13 q137 28 205 80 q64 49 88 139 q19 69 25 218 l73 0 q-3 -86 -10 -142 q60 -252 313 -291 q-27 -26 -46 -65 q-208 45 -293 231 q-31 -91 -101 -145 q-75 -57 -213 -89 q-12 33 -41 64 Z" /><glyph glyph-name="" unicode="&#x6df1;" d="M315 473 q116 29 159 88 q37 51 44 168 l-122 0 l0 -119 l-66 0 l0 183 l609 0 l0 -166 l-68 0 l0 102 l-120 0 l0 -188 q0 -16 5 -20.5 q5 -4.5 24 -4.5 l85 0 q15 0 20 13 q6 14 7 64 q21 -16 61 -24 q-5 -67 -22 -90.5 q-17 -23.5 -59 -23.5 l-101 0 q-54 0 -71.5 17 q-17.5 17 -17.5 68 l0 189 l-95 0 q-9 -138 -53 -201 q-51 -75 -182 -109 q-9 28 -37 54 ZM89 771 l43 53 q48 -21 97 -51 q52 -31 79 -57 l-45 -60 q-27 27 -76.5 59.5 q-49.5 32.5 -97.5 55.5 ZM43 499 l38 58 q49 -16 100 -41 q54 -25 82 -47 l-39 -65 q-61 50 -181 95 ZM69 -19 q84 131 166 315 l57 -44 q-73 -164 -159 -317 l-64 46 ZM268 23 q78 36 151 100.5 q73 64.5 121 141.5 l-224 0 l0 67 l270 0 l0 112 l73 0 l0 -112 l287 0 l0 -67 l-238 0 q46 -72 115 -135 q69 -64 139 -97 q-30 -22 -53 -59 q-68 38 -136 110 q-66 68 -114 150 l0 -309 l-73 0 l0 297 q-51 -80 -123 -148 q-72 -68 -148 -108 q-16 26 -47 57 Z" /><glyph glyph-name="" unicode="&#x6df7;" d="M424 642 l389 0 l0 91 l-389 0 l0 -91 ZM424 490 l389 0 l0 93 l-389 0 l0 -93 ZM354 428 l0 367 l531 0 l0 -367 l-531 0 ZM92 774 l42 54 q116 -52 171 -107 l-44 -59 q-26 26 -74.5 58 q-48.5 32 -94.5 54 ZM41 507 l42 55 q114 -48 172 -99 l-43 -61 q-25 24 -75 54 q-48 29 -96 51 ZM68 -17 q79 128 162 319 l58 -44 q-75 -176 -155 -321 l-65 46 ZM268 12 q19 3 61 10 q22 4 33 6 l0 355 l71 0 l0 -121 l181 0 l0 -66 l-181 0 l0 -155 l180 32 l4 -66 q-17 -3 -50 -10 q-203 -39 -283 -54 l-16 69 ZM665 -39.5 q-20 20.5 -20 78.5 l0 344 l71 0 l0 -164 q111 53 172 102 l53 -55 q-79 -51 -225 -112 l0 -114 q0 -22 6.5 -28 q6.5 -6 31.5 -6 l106 0 q22 0 28.5 21 q6.5 21 8.5 98 q23 -19 64 -29 q-5 -92 -24.5 -124 q-19.5 -32 -69.5 -32 l-123 0 q-59 0 -79 20.5 Z" /><glyph glyph-name="" unicode="&#x6e6e;" d="M577 628 l105 0 l0 93 l-105 0 l0 -93 ZM746 411 l110 0 l0 155 l-110 0 l0 -155 ZM410 411 l103 0 l0 155 l-103 0 l0 -155 ZM576 411 l108 0 l0 155 l-108 0 l0 -155 ZM319 721 l0 66 l626 0 l0 -66 l-189 0 l0 -93 l169 0 l0 -279 l-581 0 l0 279 l160 0 l0 93 l-185 0 ZM92 771 l40 54 q110 -50 167 -93 l-41 -60 q-62 47 -166 99 ZM45 497 l39 55 q105 -46 164 -90 l-39 -62 q-59 47 -164 97 ZM75 -14 q81 132 160 319 l58 -47 q-76 -179 -153 -320 l-65 48 ZM290 -46 l0 65 l303 0 l0 142 l-236 0 l0 65 l236 0 l0 104 l73 0 l0 -104 l247 0 l0 -65 l-247 0 l0 -142 l292 0 l0 -65 l-668 0 Z" /><glyph glyph-name="" unicode="&#x6e90;" d="M90 774 l42 53 q118 -56 167 -108 l-44 -58 q-25 26 -73 58 q-46 32 -92 55 ZM41 507 l42 54 q115 -51 169 -100 l-43 -60 q-25 24 -74 55 q-47 29 -94 51 ZM62 -20 q81 142 152 320 l59 -41 q-69 -173 -144 -321 l-67 42 ZM384 20 q75 77 121 193 l67 -16 q-53 -133 -130 -216 q-2 1 -7 5 q-36 26 -51 34 ZM536 326 l304 0 l0 88 l-304 0 l0 -88 ZM536 468 l304 0 l0 87 l-304 0 l0 -87 ZM216 -33 q75 107 104 273 q19 111 19 276 l0 272 l608 0 l0 -68 l-220 0 l5 -1 q-2 -6 -5 -18 q-18 -61 -26 -89 l208 0 l0 -343 l-190 0 l0 -268 q0 -29 -6 -43 q-8 -16 -28 -23 q-26 -10 -93 -10 q-16 0 -43 0 q-5 31 -21 63 q30 -1 65 -1 q12 0 29 0 q7 0 9 0 q17 1 17 15 l0 267 l-178 0 l0 343 l159 0 q13 55 21 108 l-238 0 l0 -204 q0 -398 -134 -588 q-26 24 -62 39 ZM786 195 l63 27 q88 -114 117 -198 l-66 -31 q-15 40 -47 97.5 q-32 57.5 -67 104.5 Z" /><glyph glyph-name="" unicode="&#x6f14;" d="M325 581 l0 160 l266 0 l0 95 l75 0 l0 -95 l276 0 l0 -160 l-72 0 l0 98 l-478 0 l0 -98 l-67 0 ZM664 312 l162 0 l0 84 l-162 0 l0 -84 ZM664 172 l162 0 l0 85 l-162 0 l0 -85 ZM437 172 l156 0 l0 85 l-156 0 l0 -85 ZM437 312 l156 0 l0 84 l-156 0 l0 -84 ZM371 114 l0 340 l222 0 l0 74 l-192 0 l0 61 l466 0 l0 -61 l-203 0 l0 -74 l231 0 l0 -340 l-524 0 ZM91 774 l41 55 q120 -52 177 -105 l-43 -60 q-27 26 -78 58 q-50 31 -97 52 ZM41 506 l42 55 q47 -18 97 -45 q52 -28 80 -52 l-42 -62 q-27 24 -79 54 q-49 29 -98 50 ZM69 -17 q83 130 170 323 l57 -45 q-73 -166 -162 -324 l-65 46 ZM276 -25 q145 53 225 122 l71 -26 q-46 -41 -114 -83 q-64 -40 -127 -67 q-24 31 -55 54 ZM688 65 l56 38 q128 -70 210 -136 l-58 -45 q-76 66 -208 143 Z" /><glyph glyph-name="" unicode="&#x704c;" d="M302 712 l0 58 l164 0 l0 66 l69 0 l0 -66 l177 0 l0 66 l70 0 l0 -66 l164 0 l0 -58 l-164 0 l0 -65 l-70 0 l0 65 l-177 0 l0 -65 l-69 0 l0 65 l-164 0 ZM716 485 l130 0 l0 90 l-130 0 l0 -90 ZM655 434 l0 192 l254 0 l0 -192 l-254 0 ZM89 774 l43 53 q109 -51 160 -103 l-44 -58 q-24 25 -70 56 q-45 31 -89 52 ZM41 506 l42 54 q110 -45 167 -94 l-42 -61 q-56 51 -167 101 ZM439 12 l168 0 l0 62 l-168 0 l0 -62 ZM439 237 l168 0 l0 60 l-168 0 l0 -60 ZM439 125 l168 0 l0 60 l-168 0 l0 -60 ZM399 485 l126 0 l0 90 l-126 0 l0 -90 ZM63 -21 q78 141 144 317 l60 -42 l-11 -30 q105 83 171 210 l-88 0 l0 192 l248 0 l0 -192 l-110 0 l23 -7 q-24 -46 -42 -75 l148 0 q26 52 35 83 l75 -17 q-19 -34 -39 -66 l240 0 l0 -55 l-242 0 l0 -60 l210 0 l0 -52 l-210 0 l0 -60 l210 0 l0 -51 l-210 0 l0 -62 l274 0 l0 -57 l-510 0 l0 -30 l-68 0 l0 313 q-34 -39 -75 -74 q-19 23 -45 47 q-64 -162 -121 -275 l-67 43 Z" /><glyph glyph-name="" unicode="&#x7075;" d="M69 599 l0 63 l658 0 l0 79 l-546 0 l0 62 l620 0 l0 -141 l128 0 l0 -63 l-128 0 l0 -174 l-74 0 l0 27 l-556 0 l0 62 l556 0 l0 85 l-658 0 ZM661 188 q78 90 134 192 l72 -30 q-83 -122 -147 -190 l-59 28 ZM100 186 q106 54 136 189 l66 -21 q-19 -74 -49 -121 q-36 -59 -94 -90 l-59 43 ZM44 -16 q166 31 256 92 q82 56 118 149 q28 72 39 206 l73 0 q-2 -26 -4 -39 q32 -189 126 -281 q101 -97 308 -122 q-23 -22 -43 -66 q-176 27 -275 102 q-97 73 -145 210 q-37 -123 -125 -194 q-100 -80 -290 -118 q-12 31 -38 61 Z" /><glyph glyph-name="" unicode="&#x70b9;" d="M239 286 l519 0 l0 178 l-519 0 l0 -178 ZM168 216 l0 318 l287 0 l0 303 l74 0 l0 -107 l378 0 l0 -70 l-378 0 l0 -126 l304 0 l0 -318 l-665 0 ZM45 -43 q38 32 76 89 q35 52 60 110 l70 -18 q-58 -137 -138 -214 l-68 33 ZM341 129 l71 6 q23 -113 25 -193 l-74 -10 q0 89 -22 197 ZM546 128 l67 15 q54 -105 75 -191 l-72 -17 q-18 87 -70 193 ZM749 137 l65 25 q95 -118 133 -202 l-70 -28 q-37 89 -128 205 Z" /><glyph glyph-name="" unicode="&#x711a;" d="M442 445 q52 30 102 85 q50 55 83 118 l-130 0 l0 66 l169 0 l0 122 l70 0 l0 -122 l206 0 l0 -66 l-163 0 q33 -64 83 -119.5 q50 -55.5 102 -85.5 q-33 -27 -48 -54 q-103 73 -180 222 l0 -266 l-70 0 l0 260 q-76 -143 -178 -212 q-22 34 -46 52 ZM662 132 q74 82 124 178 l72 -27 q-71 -108 -135 -176 l-61 25 ZM36 428 q48 33 96 94 q47 60 79 126 l-151 0 l0 66 l180 0 l0 122 l69 0 l0 -122 l153 0 l0 -66 l-153 0 l0 -29 q72 -45 149 -105 l-41 -54 q-29 32 -108 99 l0 -214 l-69 0 l0 241 q-70 -136 -157 -208 q-20 28 -47 50 ZM101 130 q98 48 129 176 l60 -19 q-36 -148 -137 -200 l-52 43 ZM42 -15 q163 23 251 71 q82 44 120 119 q30 62 43 175 l76 0 q0 -6 -1.5 -18 q-1.5 -12 -2.5 -18 q34 -156 133 -231 q100 -77 300 -95 q-24 -22 -43 -67 q-173 21 -271 84 q-98 63 -148 184 q-38 -108 -129 -169 q-101 -67 -293 -97 q-9 32 -35 62 Z" /><glyph glyph-name="" unicode="&#x7136;" d="M769 790 l53 30 q80 -76 113 -136 l-56 -36 q-33 61 -110 142 ZM55 -48 q36 31 68 84 q30 50 49 105 l69 -17 q-18 -58 -48 -110 q-32 -56 -70 -91 l-68 29 ZM157 527 q92 -53 156 -107 q29 41 50 82 q-61 46 -153 95 q-34 -48 -53 -70 ZM239 643 q95 -47 150 -87 q24 54 44 131 l-168 0 q-11 -21 -26 -44 ZM25 491 q77 63 141 164 q59 92 91 189 l71 -19 q-13 -35 -32 -77 l162 0 l14 3 l46 -20 q-45 -214 -155 -364 q-102 -137 -251 -211 q-19 32 -52 57 q124 57 213 158 q-60 55 -154 114 q-18 -20 -43 -41 q-15 16 -51 47 ZM347 116 l68 7 q22 -110 24 -180 l-71 -10 q-2 88 -21 183 ZM549 115 l69 13 q46 -98 64 -181 l-72 -15 q-17 78 -61 183 ZM753 122 l69 23 q95 -117 135 -196 l-74 -27 q-40 88 -130 200 ZM416 224 q218 114 243 331 l-158 0 l0 70 l162 0 l0 7 l0 193 l70 0 l0 -193 l0 -7 l206 0 l0 -70 l-194 0 q61 -249 222 -327 q-32 -30 -50 -63 q-142 82 -208 279 q-54 -173 -241 -272 q-18 24 -52 52 Z" /><glyph glyph-name="" unicode="&#x2f57;&#x7236;" d="M603 781 l64 43 q83 -69 160 -145 q85 -85 127 -144 l-68 -51 q-41 60 -123 146 q-80 83 -160 151 ZM43 529 q79 54 151 131 q75 79 122 160 l79 -27 q-52 -89 -133 -178 q-74 -82 -154 -145 q-32 36 -65 59 ZM39 -9 q255 71 407 207 q-114 131 -185 323 l72 21 q59 -164 169 -288 q108 120 168 297 l80 -24 q-69 -194 -192 -329 q163 -149 402 -203 q-31 -30 -53 -73 q-241 61 -407 219 q-156 -141 -407 -219 q-24 41 -54 69 Z" /><glyph glyph-name="" unicode="&#x7248;" d="M30 -33 q47 85 65 219 q13 95 13 237 l0 393 l67 0 l0 -254 l109 0 l0 277 l68 0 l0 -277 l87 0 l0 -67 l-264 0 l0 -72 q0 -48 -1 -72 l205 0 l0 -426 l-68 0 l0 359 l-139 0 q-13 -233 -90 -361 q-25 27 -52 44 ZM632 467 q37 -161 107 -276 q77 119 109 276 l-216 0 ZM391 -39 q58 107 80 273 q14 110 14 273 l0 285 l452 0 l0 -68 l-382 0 l0 -190 l315 0 l13 3 l45 -15 q-36 -232 -144 -395 q78 -96 184 -143 q-26 -24 -51 -61 q-103 51 -178 145 q-71 -87 -173 -144 q-20 37 -47 60 q99 49 177 146 q-83 132 -127 337 l-14 0 q-4 -359 -103 -542 q-33 26 -61 36 Z" /><glyph glyph-name="" unicode="&#x7269;" d="M32 446 q46 104 69 333 l65 -11 q-6 -52 -19 -135 l77 0 l0 203 l69 0 l0 -203 l103 0 l0 -72 l-103 0 l0 -204 l116 36 l10 -66 l-126 -40 l0 -364 l-69 0 l0 342 q-32 -10 -94 -29 q-49 -15 -71 -22 l-20 71 q7 2 22 6 q103 28 163 47 l0 223 l-91 0 q-20 -93 -44 -148 q-37 25 -57 33 ZM359 453 q60 65 106 169 q43 97 69 215 l68 -14 q-19 -82 -45 -154 l320 0 l0 1 l70 -1 q0 -18 -1 -37 q-16 -334 -35 -480 q-18 -140 -49 -178 q-25 -34 -69 -38 q-18 -3 -47 -3 q-28 0 -67 3 q-2 44 -21 73 q56 -5 105 -5 q23 0 37 17 q25 27 42 154 q17 136 32 425 l-48 0 q-40 -210 -119 -379 q-89 -187 -207 -281 q-22 25 -62 45 q117 84 204 258 q78 156 120 357 l-82 0 q-35 -135 -99 -255 q-68 -129 -147 -198 q-22 24 -59 43 q77 60 143 176 q62 108 98 234 l-86 0 q-53 -118 -114 -190 q-15 15 -57 43 Z" /><glyph glyph-name="" unicode="&#x7275;" d="M78 357 l0 153 l722 0 q-158 75 -317 129 q-45 -49 -126 -79 q-82 -30 -216 -46 q-7 23 -31 57 q138 14 213.5 42.5 q75.5 28.5 112.5 78.5 l-326 0 l0 61 l355 0 q11 32 18 83 l75 0 q-7 -51 -17 -83 l358 0 l0 -61 l-380 0 l-1 -1 q176 -60 351 -137 l-44 -44 l103 0 l0 -153 l-72 0 l0 95 l-710 0 l0 -95 l-68 0 ZM58 89 l0 64 l409 0 l0 116 l-239 0 q-34 -43 -73 -77 q-17 13 -64 36 q100 76 153 193 l70 -18 q-21 -41 -40 -71 l193 0 l0 95 l73 0 l0 -95 l309 0 l0 -63 l-309 0 l0 -116 l401 0 l0 -64 l-401 0 l0 -165 l-73 0 l0 165 l-409 0 Z" /><glyph glyph-name="" unicode="&#x7279;" d="M450 214 l56 34 q91 -88 127 -159 l-60 -38 q-32 70 -123 163 ZM33 451 q45 103 68 332 l65 -11 q-5 -49 -19 -137 l78 0 l0 201 l68 0 l0 -201 l103 0 l0 -70 l-103 0 l0 -196 l116 35 l9 -59 l341 0 l0 120 l-378 0 l0 69 l254 0 l0 127 l-195 0 l0 68 l195 0 l0 108 l74 0 l0 -108 l200 0 l0 -68 l-200 0 l0 -127 l246 0 l0 -69 l-123 0 l0 -120 l117 0 l0 -68 l-117 0 l0 -262 q0 -34 -9 -51.5 q-9 -17.5 -32 -27.5 q-34 -12 -161 -12 q-6 43 -24 74 q51 -2 94 -2 q27 0 38 1 q13 1 17 4.5 q4 3.5 4 14.5 l0 261 l-361 0 l0 54 l-105 -33 l0 -374 l-68 0 l0 353 l-166 -51 l-20 70 q110 30 186 53 l0 216 l-92 0 q-20 -93 -44 -147 q-24 18 -56 33 Z" /><glyph glyph-name="" unicode="&#x72af;" d="M33 214 q65 38 133 107.5 q68 69.5 109 140.5 q-15 77 -43 131 q-63 -57 -141 -111 q-25 32 -50 51 q81 53 154 122 q-47 68 -132 132 l52 43 q80 -59 131 -124 q61 68 98 127 l61 -44 q-46 -70 -118 -144 q43 -76 60 -170 q13 -73 13 -177 q0 -254 -57 -331 q-23 -28 -63 -36 q-36 -7 -84 -7 q-25 0 -56 2 q-2 40 -26 74 q44 -4 84 -4 q30 0 52 2 q23 4 37 21 q40 53 40 280 q0 40 -1 58 q-98 -132 -202 -201 q-24 38 -51 58 ZM494.5 -40.5 q-29.5 28.5 -29.5 109.5 l0 690 l432 0 l0 -358 q0 -34 -9.5 -51.5 q-9.5 -17.5 -33.5 -27.5 q-37 -12 -185 -12 q-4 29 -23 74 q59 -2 110 -2 q32 0 44 1 q14 0 19 4 q5 4 5 16 l0 284 l-285 0 l0 -619 q0 -41 13 -53.5 q13 -12.5 58 -12.5 l211 0 q41 0 55 33 q13 31 18 135 q27 -20 70 -32 q-9 -120 -34 -161 q-28 -46 -104 -46 l-221 0 q-81 0 -110.5 28.5 Z" /><glyph glyph-name="" unicode="&#x72b6;" d="M739 771 l56 32 q84 -99 122 -172 l-59 -37 q-43 82 -119 177 ZM52 671 l58 36 q91 -106 129 -181 l-61 -40 q-37 77 -126 185 ZM36 195 q109 89 213 187 l0 456 l73 0 l0 -913 l-73 0 l0 367 q-90 -87 -171 -160 l-42 63 ZM328 -28 q224 184 255 498 l-227 0 l0 73 l232 0 q1 21 1 61 l0 231 l73 0 l0 -231 q0 -40 -1 -61 l287 0 l0 -73 l-275 0 q80 -365 296 -483 q-34 -28 -54 -62 q-188 117 -277 420 q-52 -256 -250 -420 q-19 20 -60 47 Z" /><glyph glyph-name="" unicode="&#x731c;" d="M34 224 q57 37 116 102.5 q59 65.5 96 132.5 q-13 75 -39 136 q-57 -57 -119 -104 q-16 22 -51 48 q69 50 135 119 q-42 68 -116 130 l51 40 q68 -56 112 -117 q49 60 83 121 l65 -33 q-46 -78 -109 -150 q40 -77 56 -171 q12 -73 12 -179 q0 -263 -52 -335 q-21 -27 -59 -33 q-36 -7 -85 -7 q-18 0 -38 1 q-2 39 -22 72 q39 -3 72 -3 q27 0 43 2 q23 3 35 19 q36 47 36 285 q0 35 -1 52 q-81 -115 -172 -184 q-22 33 -49 56 ZM688 208 l130 0 l0 127 l-130 0 l0 -127 ZM503 208 l120 0 l0 127 l-120 0 l0 -127 ZM433 -74 l0 470 l455 0 l0 -392 q0 -29 -7.5 -44.5 q-7.5 -15.5 -26.5 -24.5 q-27 -10 -133 -10 q-3 29 -21 65 q37 -2 71 -2 q21 0 30 1 q17 0 17 15 l0 143 l-315 0 l0 -221 l-70 0 ZM353 458 l0 61 l259 0 l0 69 l-200 0 l0 56 l200 0 l0 60 l-221 0 l0 58 l221 0 l0 75 l75 0 l0 -75 l228 0 l0 -58 l-228 0 l0 -60 l208 0 l0 -56 l-208 0 l0 -69 l264 0 l0 -61 l-598 0 Z" /><glyph glyph-name="" unicode="&#x73b0;" d="M432 260 l0 528 l446 0 l0 -528 l-73 0 l0 462 l-302 0 l0 -462 l-71 0 ZM47 102 q14 4 46 12 q63 17 98 27 l0 272 l-118 0 l0 69 l118 0 l0 217 l-132 0 l0 70 l328 0 l0 -70 l-124 0 l0 -217 l104 0 l0 -69 l-104 0 l0 -251 q33 9 100 29 q19 6 29 9 l10 -69 l-339 -101 l-16 72 ZM333 -25 q169 86 235 225 q47 99 47 246 l0 192 l70 0 l0 -194 q0 -93 -18 -168 l61 0 l0 -235 q0 -21 7.5 -28 q7.5 -7 28.5 -7 l81 0 q26 0 35 31 q7 29 11 137 q30 -22 60 -28 q-5 -85 -12 -121 q-9 -43 -29.5 -59 q-20.5 -16 -64.5 -16 l-91 0 q-52 0 -73 17 q-22 19 -22 67 l0 210 q-62 -211 -279 -323 q-24 37 -47 54 Z" /><glyph glyph-name="" unicode="&#x7406;&#xf9e4;" d="M39 101 q74 22 134 42 l0 269 l-114 0 l0 70 l114 0 l0 217 l-124 0 l0 70 l310 0 l0 -70 l-115 0 l0 -217 l101 0 l0 -70 l-101 0 l0 -247 l109 36 l13 -71 q-31 -10 -94 -32 q-153 -51 -216 -72 l-17 75 ZM476 411 l152 0 l0 128 l-152 0 l0 -128 ZM476 600 l152 0 l0 126 l-152 0 l0 -126 ZM692 600 l153 0 l0 126 l-153 0 l0 -126 ZM692 411 l153 0 l0 128 l-153 0 l0 -128 ZM319 -44 l0 68 l304 0 l0 137 l-227 0 l0 68 l227 0 l0 117 l-215 0 l0 445 l508 0 l0 -445 l-218 0 l0 -117 l233 0 l0 -68 l-233 0 l0 -137 l265 0 l0 -68 l-644 0 Z" /><glyph glyph-name="" unicode="&#x2f63;&#x751f;" d="M57 452 q119 128 185 368 l75 -16 q-27 -93 -56 -160 l203 0 l0 192 l76 0 l0 -192 l358 0 l0 -73 l-358 0 l0 -218 l321 0 l0 -72 l-321 0 l0 -254 l405 0 l0 -72 l-886 0 l0 72 l405 0 l0 254 l-297 0 l0 72 l297 0 l0 218 l-235 0 q-49 -97 -105 -163 q-29 25 -67 44 Z" /><glyph glyph-name="" unicode="&#x2f64;&#x7528;" d="M542 299 l269 0 l0 166 l-269 0 l0 -166 ZM225 299 l243 0 l0 166 l-239 0 l0 -59 q0 -58 -4 -107 ZM229 535 l239 0 l0 160 l-239 0 l0 -160 ZM542 535 l269 0 l0 160 l-269 0 l0 -160 ZM36 -33 q74 83 101 214 q19 89 19 225 l0 360 l728 0 l0 -742 q0 -36 -10.5 -54.5 q-10.5 -18.5 -34.5 -28.5 q-35 -12 -139 -12 q-19 0 -47 0 q-5 31 -25 72 q50 -2 113 -2 q13 0 32 0 q8 0 11 0 q15 1 21 6.5 q6 5.5 6 19.5 l0 203 l-269 0 l0 -295 l-74 0 l0 295 l-250 0 q-27 -201 -125 -310 q-8 11 -26.5 26.5 q-18.5 15.5 -30.5 22.5 Z" /><glyph glyph-name="" unicode="&#x7531;" d="M534 58 l275 0 l0 222 l-275 0 l0 -222 ZM191 58 l269 0 l0 222 l-269 0 l0 -222 ZM191 353 l269 0 l0 216 l-269 0 l0 -216 ZM534 353 l275 0 l0 216 l-275 0 l0 -216 ZM117 -77 l0 720 l343 0 l0 192 l74 0 l0 -192 l350 0 l0 -715 l-75 0 l0 57 l-618 0 l0 -62 l-74 0 Z" /><glyph glyph-name="" unicode="&#x7532;" d="M542 307 l250 0 l0 159 l-250 0 l0 -159 ZM208 307 l253 0 l0 159 l-253 0 l0 -159 ZM208 539 l253 0 l0 162 l-253 0 l0 -162 ZM542 539 l250 0 l0 162 l-250 0 l0 -162 ZM129 179 l0 595 l745 0 l0 -592 l-82 0 l0 51 l-250 0 l0 -310 l-81 0 l0 310 l-253 0 l0 -54 l-79 0 Z" /><glyph glyph-name="" unicode="&#x7559;&#xf9cd;" d="M44 451 q52 12 88 21 l-10 303 l64 -18 q153 39 229 76 l51 -54 q-109 -45 -270 -78 l9 -212 q108 27 165 41 q-29 43 -73 91 l59 31 q44 -45 82 -98 q39 -55 55 -97 l-65 -34 q-6 19 -23 49 q-193 -53 -341 -92 l-20 71 ZM246 181 l217 0 l0 98 l-217 0 l0 -98 ZM533 181 l226 0 l0 98 l-226 0 l0 -98 ZM533 22 l226 0 l0 102 l-226 0 l0 -102 ZM246 22 l217 0 l0 102 l-217 0 l0 -102 ZM176 -76 l0 416 l656 0 l0 -412 l-73 0 l0 32 l-513 0 l0 -36 l-70 0 ZM436 422 q92 40 135 119 q35 65 47 177 l-117 0 l0 63 l413 0 q0 -15 -1 -31 q-8 -167 -16 -233 q-10 -70 -28 -91 q-20 -23 -59 -28 q-13 -1 -35 -1 q-31 0 -77 2 q-4 39 -20 66 q43 -4 99 -4 q5 0 8 0 q16 0 24 10 q20 23 31 247 l-152 0 q-14 -132 -55 -209 q-50 -92 -154 -140 q-14 31 -43 53 Z" /><glyph glyph-name="" unicode="&#x75d5;" d="M42 621 l55 27 q63 -103 81 -182 l-60 -31 q-8 37 -29.5 90 q-21.5 53 -46.5 96 ZM27 260 q32 13 114 56 q33 17 51 26 q0 1 0 3 q2 59 2 86 l0 297 l317 0 l0 108 l77 0 l0 -108 l360 0 l0 -66 l-683 0 l0 -232 q0 -346 -158 -504 q-20 26 -53 50 q104 105 131 292 q-80 -47 -133 -76 l-25 68 ZM439 298 l331 0 l0 88 l-331 0 l0 -88 ZM439 441 l331 0 l0 83 l-331 0 l0 -83 ZM279 3 l92 14 l0 567 l470 0 l0 -345 l-208 0 q28 -69 73 -118 q105 64 175 126 l50 -42 q-82 -64 -186 -123 q86 -71 220 -98 q-24 -21 -45 -61 q-266 65 -355 316 l-126 0 l0 -211 q65 11 205 35 l5 -65 q-69 -12 -205 -36 q-108 -19 -153 -27 l-12 68 Z" /><glyph glyph-name="" unicode="&#x2f69;&#x767d;" d="M220 70 l558 0 l0 233 l-558 0 l0 -233 ZM220 376 l558 0 l0 227 l-558 0 l0 -227 ZM147 -77 l0 754 l244 0 q33 76 55 163 l92 -17 q-30 -76 -66 -146 l383 0 l0 -749 l-77 0 l0 68 l-558 0 l0 -73 l-73 0 Z" /><glyph glyph-name="" unicode="&#x7684;" d="M158 401 l210 0 l0 209 l-210 0 l0 -209 ZM158 95 l210 0 l0 240 l-210 0 l0 -240 ZM90 -51 l0 728 l112 0 q30 97 40 162 l80 -15 q-4 -12 -13 -38 q-26 -77 -39 -109 l166 0 l0 -649 l-278 0 l0 -79 l-68 0 ZM445 478 q98 129 153 363 l71 -17 q-19 -78 -43 -144 l299 0 l0 -38 q-12 -352 -25 -482 q-15 -141 -44 -177 q-28 -35 -79 -40 q-20 -2 -51 -2 q-37 0 -97 3 q-4 41 -25 73 q65 -6 148 -6 q29 0 41 15 q25 26 38 156 q13 128 23 429 l-254 0 q-46 -111 -94 -175 q-13 12 -61 42 ZM552 422 l58 34 q110 -140 157 -226 l-63 -39 q-46 93 -152 231 Z" /><glyph glyph-name="" unicode="&#x2f6c;&#x76ee;" d="M234 70 l523 0 l0 164 l-523 0 l0 -164 ZM234 305 l523 0 l0 164 l-523 0 l0 -164 ZM234 540 l523 0 l0 162 l-523 0 l0 -162 ZM161 -71 l0 845 l673 0 l0 -845 l-77 0 l0 68 l-523 0 l0 -68 l-73 0 Z" /><glyph glyph-name="" unicode="&#x76f8;" d="M33 177 q51 62 100 167 q49 105 75 209 l-153 0 l0 70 l162 0 l0 214 l71 0 l0 -214 l142 0 l0 -70 l-142 0 l0 -89 q27 -28 79.5 -88 q52.5 -60 67.5 -80 l-46 -61 q-25 46 -101 144 l0 -454 l-71 0 l0 478 q-66 -194 -145 -294 q-8 22 -39 68 ZM545 60 l303 0 l0 173 l-303 0 l0 -173 ZM545 541 l303 0 l0 167 l-303 0 l0 -167 ZM545 301 l303 0 l0 172 l-303 0 l0 -172 ZM474 -69 l0 847 l447 0 l0 -844 l-73 0 l0 57 l-303 0 l0 -60 l-71 0 Z" /><glyph glyph-name="" unicode="&#x771f;" d="M281 509 l454 0 l0 65 l-454 0 l0 -65 ZM281 395 l454 0 l0 67 l-454 0 l0 -67 ZM281 280 l454 0 l0 67 l-454 0 l0 -67 ZM89 690 l0 64 l371 0 l0 83 l76 0 l0 -83 l380 0 l0 -64 l-380 0 l0 -67 l274 0 l0 -393 l-600 0 l0 393 l250 0 l0 67 l-371 0 ZM60 110 l0 63 l881 0 l0 -63 l-881 0 ZM60 -26 q76 20 157 52 q84 34 130 64 l66 -42 q-59 -36 -144 -71 q-82 -34 -158 -55 q-25 29 -51 52 ZM592 44 l48 47 q182 -61 307 -119 l-62 -50 q-120 62 -293 122 Z" /><glyph glyph-name="" unicode="&#x773c;" d="M146 572 l149 0 l0 144 l-149 0 l0 -144 ZM146 152 l149 0 l0 146 l-149 0 l0 -146 ZM146 363 l149 0 l0 145 l-149 0 l0 -145 ZM78 3 l0 778 l287 0 l0 -696 l-219 0 l0 -82 l-68 0 ZM529 422 l301 0 l0 123 l-301 0 l0 -123 ZM529 607 l301 0 l0 120 l-301 0 l0 -120 ZM366 4 l91 19 l0 770 l446 0 l0 -436 l-203 0 q20 -81 52 -146 q100 67 153 117 l49 -51 q-71 -61 -172 -121 q75 -119 187 -169 q-28 -24 -51 -63 q-208 107 -283 433 l-106 0 l0 -319 q11 2 33 7 q109 23 164 35 l6 -65 q-151 -37 -347 -80 l-19 69 Z" /><glyph glyph-name="" unicode="&#x77e5;" d="M36 520 q82 108 124 317 l72 -14 q-10 -55 -31 -120 l285 0 l0 -69 l-158 0 l0 -165 q0 -22 -1 -34 l188 0 l0 -71 l-192 0 q-2 -24 -10 -67 q60 -59 199 -217 l-50 -63 q-53 76 -166 204 q-57 -188 -207 -295 q-8 12 -24 29.5 q-16 17.5 -28 25.5 q187 133 212 383 l-201 0 l0 71 l206 0 q0 18 0 35 l0 164 l-76 0 q-40 -100 -81 -157 q-17 17 -61 43 ZM619 101 l211 0 l0 579 l-211 0 l0 -579 ZM547 -48 l0 798 l357 0 l0 -788 l-74 0 l0 69 l-211 0 l0 -79 l-72 0 Z" /><glyph glyph-name="" unicode="&#x7801;" d="M184 116 l117 0 l0 295 l-117 0 l0 -295 ZM33 328 q98 131 143 387 l-122 0 l0 69 l341 0 l0 -69 l-149 0 q-23 -127 -62 -238 l183 0 l0 -428 l-183 0 l0 -81 l-65 0 l0 361 q-26 -47 -52 -80 q-12 45 -34 79 ZM411 139 l0 67 l380 0 l0 -67 l-380 0 ZM444 709 l0 68 l346 0 l11 4 l52 -6 q-15 -193 -40 -374 l123 0 q-1 -16 -2 -33 q-16 -197 -35 -291 q-18 -89 -45 -117.5 q-27 -28.5 -68 -29.5 q-16 -2 -45 -2 q-29 0 -74 2 q-4 40 -21 69 q49 -6 111 -6 q26 0 38 12 q41 39 66 332 l-403 0 q19 120 33 310 l69 -4 q-6 -97 -24 -242 l208 0 q20 167 33 308 l-333 0 Z" /><glyph glyph-name="" unicode="&#x7840;" d="M182 116 l124 0 l0 295 l-124 0 l0 -295 ZM33 328 q98 131 143 387 l-122 0 l0 69 l340 0 l0 -69 l-148 0 q-23 -127 -62 -238 l186 0 l0 -428 l-188 0 l0 -80 l-63 0 l0 360 q-26 -47 -52 -80 q-13 44 -34 79 ZM424 -14 l0 364 l74 0 l0 -292 l141 0 l0 362 l-193 0 l0 323 l68 0 l0 -256 l125 0 l0 343 l73 0 l0 -343 l118 0 l0 256 l71 0 l0 -323 l-189 0 l0 -362 l144 0 l0 291 l72 1 l0 -416 l-72 0 l0 52 l-432 0 Z" /><glyph glyph-name="" unicode="&#x2f70;&#x793a;" d="M152 689 l0 73 l698 0 l0 -73 l-698 0 ZM39 59 q60 52 112.5 129.5 q52.5 77.5 85.5 162.5 l76 -20 q-37 -91 -92 -175.5 q-55 -84.5 -115 -141.5 q-29 25 -67 45 ZM682 322 l68 28 q57 -72 107 -155 q52 -88 73 -149 l-73 -32 q-21 61 -71 148 q-49 87 -104 160 ZM63 448 l0 73 l875 0 l0 -73 l-397 0 l0 -428 q0 -36 -10.5 -54.5 q-10.5 -18.5 -36.5 -27.5 q-38 -13 -181 -13 q-7 36 -27 77 q56 -2 108 -2 q31 0 43 1 q14 0 19.5 4.5 q5.5 4.5 5.5 16.5 l0 426 l-399 0 Z" /><glyph glyph-name="" unicode="&#x793c;" d="M24 250 q97 54 185 141 q91 91 144 191 l-294 0 l0 68 l169 0 l0 186 l72 0 l0 -186 l94 0 l13 3 l42 -28 q-45 -107 -130 -213 q92 -77 163 -142 l-46 -61 q-40 49 -136 139 l0 -424 l-72 0 l0 389 q-75 -74 -165 -131 q-17 42 -39 68 ZM563 -36.5 q-26 28.5 -26 109.5 l0 745 l76 0 l0 -747 q0 -40 10.5 -52 q10.5 -12 46.5 -12 l161 0 q35 0 47 38 q11 35 16 152 q35 -26 70 -32 q-9 -134 -32 -179 q-26 -51 -96 -51 l-174 0 q-73 0 -99 28.5 Z" /><glyph glyph-name="" unicode="&#x793e;" d="M24 254 q91 53 175 140 q87 90 138 188 l-278 0 l0 68 l157 0 l0 186 l73 0 l0 -186 l87 0 l13 3 l42 -28 q-43 -108 -129 -218 q52 -42 159 -136 l-46 -60 q-52 58 -126 127 l0 -414 l-73 0 l0 387 q-75 -74 -153 -124 q-18 42 -39 67 ZM406 -48 l0 73 l253 0 l0 415 l-214 0 l0 72 l214 0 l0 317 l74 0 l0 -317 l213 0 l0 -72 l-213 0 l0 -415 l233 0 l0 -73 l-560 0 Z" /><glyph glyph-name="" unicode="&#x795e;" d="M23 254 q84 55 160 141 q80 90 127 187 l-251 0 l0 68 l136 0 l0 186 l72 0 l0 -186 l80 0 l14 3 l41 -27 q-40 -106 -116 -211 q68 -52 130 -115 l-44 -61 q-35 45 -105 115 l0 -428 l-72 0 l0 379 q-68 -72 -134 -118 q-13 35 -38 67 ZM714 272 l152 0 l0 132 l-152 0 l0 -132 ZM498 272 l145 0 l0 132 l-145 0 l0 -132 ZM498 469 l145 0 l0 128 l-145 0 l0 -128 ZM714 469 l152 0 l0 128 l-152 0 l0 -128 ZM429 162 l0 503 l214 0 l0 172 l71 0 l0 -172 l222 0 l0 -498 l-70 0 l0 38 l-152 0 l0 -281 l-71 0 l0 281 l-145 0 l0 -43 l-69 0 Z" /><glyph glyph-name="" unicode="&#x79c1;" d="M33 151 q53 53 109 145 q55 89 91 179 l-179 0 l0 71 l193 0 l0 162 q-81 -17 -172 -30 q-7 29 -23 58 q258 40 375 94 l55 -55 q-61 -26 -162 -51 l0 -178 l175 0 l0 -71 l-175 0 l0 -60 q26 -21 90 -81 q60 -55 81 -77 l-46 -57 q-30 42 -125 139 l0 -412 l-73 0 l0 439 q-82 -183 -175 -285 q-8 21 -39 70 ZM388 44 q44 5 94 9 q44 158 88 371 q44 217 68 392 l83 -14 q-29 -178 -74 -381 q-45 -206 -88 -360 q85 9 277 29 q-43 123 -105 239 l70 22 q54 -98 98 -209 q46 -114 62 -193 l-77 -25 q-7 38 -25 100 q-237 -32 -453 -57 l-18 77 Z" /><glyph glyph-name="" unicode="&#x79cd;" d="M26 173 q47 53 95 141 q48 87 78 173 l-150 0 l0 70 l160 0 l0 151 q-76 -15 -138 -23 q-5 26 -21 58 q215 34 318 80 l45 -59 q-61 -24 -132 -40 l0 -167 l128 0 l0 -70 l-128 0 l0 -21 q21 -22 71 -84 q48 -59 64 -82 l-45 -58 q-31 58 -90 144 l0 -460 l-72 0 l0 442 q-70 -173 -145 -262 q-12 30 -38 67 ZM726 318 l137 0 l0 237 l-137 0 l0 -237 ZM512 318 l141 0 l0 237 l-141 0 l0 -237 ZM441 186 l0 441 l212 0 l0 207 l73 0 l0 -207 l210 0 l0 -436 l-73 0 l0 56 l-137 0 l0 -321 l-73 0 l0 321 l-141 0 l0 -61 l-71 0 Z" /><glyph glyph-name="" unicode="&#x79d8;" d="M520 785 l45 47 q57 -31 111 -70 q59 -42 89 -76 l-49 -52 q-30 35 -86 78 q-56 43 -110 73 ZM362 190 q59 93 77 301 l60 -12 q-21 -226 -79 -317 l-58 28 ZM34 171 q43 52 87 142 q42 87 69 174 l-142 0 l0 69 l159 0 l0 154 q-59 -13 -139 -25 q-7 28 -23 57 q210 35 303 77 l52 -54 q-50 -21 -122 -39 l0 -170 l123 0 l0 -69 l-123 0 l0 -41 q21 -20 66 -70 q43 -48 57 -66 l-45 -54 q-21 39 -78 117 l0 -448 l-71 0 l0 452 q-62 -176 -134 -274 q-11 28 -39 68 ZM329 4 q121 77 216 178 l0 453 l72 0 l0 -368 q162 213 230 518 l69 -16 q-35 -148 -90 -278 l45 13 q36 -69 65 -152 q28 -82 36 -142 l-67 -20 q-7 57 -31.5 134.5 q-24.5 77.5 -56.5 145.5 q-81 -180 -200 -315 l0 -109 q0 -30 8 -39 q8 -9 35 -9 l120 0 q26 0 34 30 q7 27 10 124 q23 -18 66 -31 q-6 -112 -26 -149 q-21 -41 -78 -41 l-136 0 q-62 0 -83.5 23.5 q-21.5 23.5 -21.5 91.5 l0 35 q-76 -72 -163 -128 q-19 30 -53 51 Z" /><glyph glyph-name="" unicode="&#x79f0;" d="M393 123 q83 109 125 319 l70 -14 q-45 -219 -131 -345 q-31 24 -64 40 ZM33 174 q46 52 95 140 q46 86 77 173 l-153 0 l0 70 l163 0 l0 152 q-54 -11 -146 -25 q-6 26 -23 58 q215 35 317 80 l51 -56 q-56 -23 -127 -40 l0 -169 l125 0 l0 -38 q80 123 121 315 l72 -14 q-18 -78 -47 -159 l393 0 l0 -69 l-220 0 l0 -576 q0 -31 -8 -48.5 q-8 -17.5 -27 -27.5 q-31 -14 -131 -14 q-11 46 -27 74 q39 -2 73 -2 q22 0 31 1 q10 0 13.5 3.5 q3.5 3.5 3.5 13.5 l0 576 l-128 0 q-42 -97 -93 -165 q-37 27 -63 41 l1 2 q10 11 14 17 l-103 0 l0 -61 q21 -18 72 -70 q46 -47 64 -67 l-45 -59 q-26 46 -91 124 l0 -428 l-72 0 l0 442 q-70 -172 -145 -262 q-8 25 -37 68 ZM800 430 l64 19 q34 -82 61 -174 q29 -94 40 -162 l-69 -21 q-9 66 -37 164 q-27 92 -59 174 Z" /><glyph glyph-name="" unicode="&#x7a0b;" d="M531 547 l300 0 l0 183 l-300 0 l0 -183 ZM463 483 l0 312 l441 0 l0 -312 l-441 0 ZM33 174 q46 52 95 140 q46 86 77 173 l-153 0 l0 70 l163 0 l0 152 q-54 -11 -146 -25 q-6 26 -23 58 q216 35 316 80 l52 -56 q-56 -23 -127 -40 l0 -169 l125 0 l0 -70 l-125 0 l0 -61 q21 -18 72 -70 q46 -47 64 -67 l-45 -59 q-26 46 -91 124 l0 -428 l-72 0 l0 442 q-70 -172 -145 -262 q-8 25 -37 68 ZM381 -50 l0 67 l262 0 l0 129 l-194 0 l0 65 l194 0 l0 119 l-217 0 l0 66 l512 0 l0 -66 l-221 0 l0 -119 l199 0 l0 -65 l-199 0 l0 -129 l243 0 l0 -67 l-579 0 Z" /><glyph glyph-name="" unicode="&#x7a3f;" d="M34 178 q42 52 85 142 q42 87 68 173 l-138 0 l0 69 l146 0 l0 150 q-67 -13 -125 -20 q-7 28 -23 57 q204 32 289 71 l55 -54 q-53 -22 -124 -39 l0 -165 l125 0 l0 -69 l-125 0 l0 -36 q21 -23 64 -73 q44 -53 56 -70 l-45 -56 q-21 44 -75 120 l0 -454 l-72 0 l0 431 q-59 -161 -123 -245 q-12 34 -38 68 ZM597 86 l144 0 l0 102 l-144 0 l0 -102 ZM541 -12 l0 250 l255 0 l0 -202 l-199 0 l0 -48 l-56 0 ZM402 -75 l0 433 l535 0 l0 -362 q0 -47 -30 -61 q-23 -10 -116 -10 q-5 26 -20 59 q30 -1 53 -1 q23 0 31 1 q8 0 10.5 2.5 q2.5 2.5 2.5 10.5 l0 301 l-398 0 l0 -373 l-68 0 ZM539 469 l263 0 l0 96 l-263 0 l0 -96 ZM475 415 l0 205 l393 0 l0 -205 l-393 0 ZM394 674 l0 61 l237 0 l0 101 l73 0 l0 -101 l235 0 l0 -61 l-545 0 Z" /><glyph glyph-name="" unicode="&#x2f74;&#x7acb;&#xf9f7;" d="M89 569 l0 72 l371 0 l0 195 l76 0 l0 -195 l381 0 l0 -72 l-828 0 ZM223 498 l69 18 q39 -95 66 -211 q26 -110 32 -197 l-75 -18 q-4 83 -29.5 197 q-25.5 114 -62.5 211 ZM56 -33 l0 73 l505 0 q36 93 75 234 q37 133 60 248 l84 -16 q-68 -271 -142 -466 l308 0 l0 -73 l-890 0 Z" /><glyph glyph-name="" unicode="&#x7ad9;" d="M61 570 l0 69 l158 0 l0 185 l69 0 l0 -185 l155 0 l0 -69 l-382 0 ZM99 518 l61 11 q40 -180 44 -348 l-65 -11 q0 70 -11 168 q-12 96 -29 180 ZM42 110 q53 10 192 40 q27 6 40 9 q17 76 33 185 q16 111 23 196 l73 -14 q-28 -198 -61 -352 l109 25 l8 -69 q-41 -10 -126 -29 q-198 -47 -275 -65 l-16 74 ZM539 41 l300 0 l0 251 l-300 0 l0 -251 ZM468 -75 l0 437 l166 0 l0 475 l76 0 l0 -207 l247 0 l0 -70 l-247 0 l0 -198 l205 0 l0 -433 l-76 0 l0 43 l-300 0 l0 -47 l-71 0 Z" /><glyph glyph-name="" unicode="&#x7b26;" d="M426 584 q102 97 148 256 l71 -17 q-16 -48 -30 -81 l316 0 l0 -64 l-200 0 q36 -49 60 -94 l-65 -27 q-19 38 -73 121 l-69 0 q-42 -79 -97 -136 q-18 17 -61 42 ZM39 576 q95 100 146 264 l71 -18 q-7 -21 -23 -62 q-5 -12 -7 -18 l249 0 l0 -64 l-156 0 q32 -62 55 -112 l-66 -23 q-28 66 -61 135 l-52 0 q-42 -82 -93 -143 q-20 17 -63 41 ZM45 261 q63 54 121 130 q58 77 96 157 l71 -23 q-26 -53 -69 -122 l0 -480 l-71 0 l0 382 q-43 -54 -97 -103 q-34 44 -51 59 ZM396 277 l60 32 q95 -134 127 -193 l-62 -38 q-32 63 -125 199 ZM338 363 l0 69 l394 0 l0 108 l73 0 l0 -108 l135 0 l0 -69 l-135 0 l0 -344 q0 -36 -10 -54 q-10 -18 -36 -27 q-37 -13 -183 -13 q-5 36 -25 72 q41 -1 84 -1 q50 0 73 1 q14 0 19 4.5 q5 4.5 5 17.5 l0 344 l-394 0 Z" /><glyph glyph-name="" unicode="&#x7b49;" d="M37 609 q96 88 152 232 l70 -18 q-14 -38 -31 -70 l260 0 l0 -63 l-181 0 q27 -52 35 -89 l-65 -24 q-10 44 -43 113 l-42 0 q-44 -74 -94 -124 q-21 20 -61 43 ZM226 128 l54 42 q50 -31 97 -72 q50 -43 74 -76 l-57 -47 q-23 34 -72 78 q-47 42 -96 75 ZM51 324 l0 65 l410 0 l0 89 l-312 0 l0 63 l312 0 l0 67 q-6 4 -18 12 q-7 3 -9 5 q46 39 84 96.5 q38 57.5 59 119.5 l71 -16 q-15 -43 -30 -72 l324 0 l0 -63 l-213 0 q37 -50 55 -91 l-64 -28 q-17 53 -70 119 l-68 0 q-32 -48 -62 -80 l16 0 l0 -69 l322 0 l0 -63 l-322 0 l0 -89 l416 0 l0 -65 l-213 0 l0 -88 l187 0 l0 -65 l-187 0 l0 -160 q0 -33 -9.5 -49.5 q-9.5 -16.5 -34.5 -25.5 q-36 -12 -171 -12 q-6 31 -27 70 q51 -2 91 -2 q41 0 54 2 q13 0 17.5 3.5 q4.5 3.5 4.5 14.5 l0 159 l-581 0 l0 65 l581 0 l0 88 l-613 0 Z" /><glyph glyph-name="" unicode="&#x7b52;" d="M40 584 q95 98 146 257 l73 -17 q-14 -40 -28 -74 l263 0 l0 -64 l-183 0 q36 -54 47 -86 l-63 -28 q-15 45 -61 114 l-34 0 q-47 -88 -97 -145 q-22 19 -63 43 ZM387 111 l234 0 l0 128 l-234 0 l0 -128 ZM319 -6 l0 303 l370 0 l0 -243 l-302 0 l0 -60 l-68 0 ZM279 375 l0 58 l454 0 l0 -58 l-454 0 ZM130 -78 l0 648 l355 0 q-27 24 -52 35 q47 42 85 104.5 q38 62.5 59 131.5 l71 -17 q-11 -34 -30 -74 l319 0 l0 -64 l-202 0 q37 -43 60 -87 l-66 -28 q-22 48 -78 115 l-65 0 q-39 -68 -85 -116 l380 0 l0 -557 q0 -32 -9.5 -49 q-9.5 -17 -31.5 -26 q-32 -13 -158 -13 q-7 26 -29 69 q44 -2 97 -2 q10 0 26 0 q8 0 10 0 q13 1 17.5 5.5 q4.5 4.5 4.5 16.5 l0 492 l-605 0 l0 -584 l-73 0 Z" /><glyph glyph-name="" unicode="&#x7b54;" d="M34 591 q48 48 89.5 117 q41.5 69 66.5 144 l71 -19 q-10 -28 -34 -82 l251 0 l0 -64 l-173 0 q38 -66 53 -112 l-67 -22 q-19 60 -60 134 l-38 0 q-47 -82 -98 -137 q-15 14 -61 41 ZM285 21 l433 0 l0 152 l-433 0 l0 -152 ZM214 -76 l0 313 l577 0 l0 -310 l-73 0 l0 29 l-433 0 l0 -32 l-71 0 ZM326 387 l357 0 q-119 80 -185 155 q-64 -78 -172 -155 ZM35 306 q129 51 246 134 q114 82 177 166 q-19 13 -34 21 q49 41 89.5 100.5 q40.5 59.5 62.5 124.5 l72 -18 q-16 -44 -36 -83 l332 0 l0 -64 l-212 0 q45 -64 64 -108 l-69 -24 q-22 59 -78 132 l-76 0 q-33 -47 -64 -80 l21 0 q80 -91 202 -169 q117 -75 237 -115 q-20 -20 -45 -63 q-110 44 -215 110 l0 -46 l-411 0 l0 44 q-106 -72 -221 -121 q-15 30 -42 59 Z" /><glyph glyph-name="" unicode="&#x7bb1;" d="M37 87 q50 47 101 126 q51 79 84 159 l-159 0 l0 69 l174 0 l0 113 l49 0 q-17 59 -50 122 l-41 0 q-45 -84 -93 -141 q-31 25 -62 40 q46 49 85 120 q38 70 62 146 l72 -18 q-16 -45 -33 -83 l262 0 l0 -64 l-177 0 q32 -63 44 -108 l-47 -19 l0 -108 l158 0 l0 -69 l-158 0 l0 -37 q90 -79 160 -149 l-48 -58 q-32 42 -112 130 l0 -335 l-71 0 l0 333 q-70 -136 -153 -226 q-17 30 -47 57 ZM569 352 l266 0 l0 99 l-266 0 l0 -99 ZM569 192 l266 0 l0 102 l-266 0 l0 -102 ZM569 30 l266 0 l0 104 l-266 0 l0 -104 ZM497 -76 l0 594 l412 0 l0 -588 l-74 0 l0 37 l-266 0 l0 -43 l-72 0 ZM431 585 q98 93 147 256 l71 -18 q-18 -56 -30 -83 l324 0 l0 -64 l-217 0 q44 -61 65 -107 l-64 -27 q-19 53 -80 134 l-58 0 q-44 -81 -95 -134 q-27 23 -63 43 Z" /><glyph glyph-name="" unicode="&#x7c7b;" d="M56 395 q98 23 189 71 q93 48 153 110 l-321 0 l0 69 l212 0 q-33 65 -104 134 l63 30 q81 -77 111 -139 l-52 -25 l154 0 l0 191 l73 0 l0 -191 l147 0 l-48 19 q64 69 111 152 l78 -25 q-58 -81 -123 -146 l232 0 l0 -69 l-332 0 q60 -60 152 -105 q91 -45 194 -66 q-25 -22 -47 -62 q-108 27 -203 81 q-97 55 -161 128 l0 -173 l-73 0 l0 170 q-63 -72 -160 -131 q-93 -55 -196 -86 q-19 35 -49 63 ZM50 -9 q162 24 251 71 q83 44 120 118 l-348 0 l0 70 l374 0 q12 50 18 107 l77 0 q-7 -65 -17 -107 l239 0 q-52 36 -165 84 l44 37 q110 -43 174 -83 l-43 -38 l162 0 l0 -70 l-365 0 q96 -159 389 -185 q-30 -28 -46 -70 q-159 20 -258 77 q-103 59 -157 164 q-41 -95 -132 -151 q-99 -60 -279 -91 q-13 40 -38 67 Z" /><glyph glyph-name="" unicode="&#x7cbe;" d="M55 759 l51 12 q46 -112 58 -217 l-55 -14 q-8 98 -54 219 ZM34 122 q38 53 77 141 q38 86 62 170 l-129 0 l0 70 l141 0 l0 330 l68 0 l0 -331 l111 0 l0 -69 l-111 0 l0 -22 q19 -24 68 -94 q46 -67 61 -92 l-50 -57 q-17 44 -79 151 l0 -394 l-68 0 l0 373 q-49 -155 -112 -251 q-11 31 -39 75 ZM266 554 q38 101 64 222 l61 -15 q-47 -152 -79 -222 l-46 15 ZM531 139 l289 0 l0 74 l-289 0 l0 -74 ZM531 267 l289 0 l0 74 l-289 0 l0 -74 ZM461 -76 l0 474 l429 0 l0 -398 q0 -28 -7.5 -42.5 q-7.5 -14.5 -26.5 -22.5 q-27 -11 -129 -11 q-5 29 -21 62 q45 -1 98 -1 q16 0 16 15 l0 86 l-289 0 l0 -162 l-70 0 ZM398 458 l0 57 l237 0 l0 68 l-184 0 l0 54 l184 0 l0 61 l-209 0 l0 57 l209 0 l0 80 l71 0 l0 -80 l224 0 l0 -57 l-224 0 l0 -61 l203 0 l0 -54 l-203 0 l0 -68 l250 0 l0 -57 l-558 0 Z" /><glyph glyph-name="" unicode="&#x7cc5;" d="M277 558 q43 111 61 217 l66 -17 q-3 -8 -9 -26 q-47 -142 -68 -189 l-50 15 ZM55 755 l53 12 q18 -50 32 -110 q13 -60 15 -103 l-58 -14 q-2 99 -42 215 ZM36 131 q39 49 78 132 q39 80 63 162 l-128 0 l0 70 l141 0 l0 341 l68 0 l0 -341 l130 0 l0 -70 l-130 0 l0 -45 q26 -28 73.5 -85.5 q47.5 -57.5 60.5 -76.5 l-44 -58 q-26 48 -90 136 l0 -371 l-68 0 l0 369 q-56 -154 -116 -233 q-12 34 -38 70 ZM356 10 q67 30 130.5 83.5 q63.5 53.5 105.5 116.5 l-189 0 l0 63 l230 0 l0 81 l-37 0 q-3 24 -20 57 q37 -1 80 -1 q13 0 13 12 l0 126 q-44 -54 -109.5 -106 q-65.5 -52 -128.5 -84 q-18 32 -43 51 q56 23 115.5 65 q59.5 42 101.5 88 l-196 0 l0 57 l261 0 q-74 43 -129 64 l43 36 q34 -13 89 -39 q47 25 102 70 l-316 0 l0 56 l378 0 l15 4 l42 -31 q-65 -71 -169 -127 q18 -9 39 -23 l-11 -10 l135 0 l13 2 l48 -15 q-62 -123 -93 -166 l-59 19 q32 48 58 103 l-121 0 l0 -141 q0 -25 -6 -37.5 q-6 -12.5 -22 -19.5 q-19 -7 -48 -9 l46 0 l0 -82 l239 0 l0 -63 l-199 0 q43 -58 103 -110.5 q60 -52.5 117 -81.5 q-30 -26 -48 -54 q-54 34 -111.5 89 q-57.5 55 -100.5 116 l0 -245 l-71 0 l0 239 q-45 -66 -105.5 -121 q-60.5 -55 -123.5 -88 q-21 34 -48 56 Z" /><glyph glyph-name="" unicode="&#x7cfb;" d="M42 -5 q65 38 125 90 q64 54 104 108 l75 -28 q-47 -60 -113 -121 q-63 -58 -125 -100 q-33 33 -66 51 ZM59 313 q82 1 218 3 q33 23 86 66 q-96 91 -230 168 l50 46 q22 -12 68 -40 q68 65 132 149 q-153 -8 -275 -11 q-1 23 -18 66 q208 6 398 21 q214 17 335 41 l54 -62 q-156 -31 -408 -49 l11 -6 q-84 -104 -174 -186 q71 -48 114 -88 q151 131 247 242 l70 -38 q-159 -167 -351 -318 q54 1 167 3 q139 3 208 4 q-50 50 -110 100 l60 38 q70 -56 136 -120 q73 -69 109 -118 l-66 -44 q-22 32 -66 79 q-47 -1 -143 -4 q-96 -3 -144 -5 l0 -326 l-77 0 l0 324 q-72 -2 -206 -5 q-132 -3 -187 -5 l-8 75 ZM641 156 l60 41 q162 -115 248 -205 l-65 -46 q-37 41 -108 102 q-68 59 -135 108 Z" /><glyph glyph-name="" unicode="&#x7d20;" d="M48 -10 q154 61 245 142 l68 -26 q-100 -93 -256 -166 q-34 36 -57 50 ZM65 463 l0 59 l397 0 l0 64 l-289 0 l0 57 l289 0 l0 64 l-344 0 l0 57 l344 0 l0 74 l73 0 l0 -74 l358 0 l0 -57 l-358 0 l0 -64 l300 0 l0 -57 l-300 0 l0 -64 l403 0 l0 -59 l-460 0 q-91 -82 -156 -126 q46 -27 83 -54 q134 93 211 164 l66 -37 q-121 -99 -270 -191 q90 2 282 5 q43 1 64 1 q-45 32 -106 68 l51 39 q68 -37 134 -83 q72 -50 109 -89 l-55 -44 q-27 28 -59 54 q-194 -6 -298 -8 l0 -237 l-72 0 l0 235 q-113 -3 -309 -7 q-54 -1 -79 -1 l-6 63 q59 0 207 2 q17 0 26 0 q5 3 16 10 q18 11 27 17 q-77 57 -187 112 l48 42 q42 -21 65 -32 q52 39 110 97 l-315 0 ZM633 93 l55 39 q64 -28 134 -68 q72 -41 112 -75 l-58 -44 q-38 33 -109 76 q-68 41 -134 72 Z" /><glyph glyph-name="" unicode="&#x7ea2;" d="M42 54 q84 14 334 66 q12 3 18 4 l7 -70 q-193 -41 -345 -76 l-14 76 ZM37 496 q23 6 61 61 q25 33 67 107 q52 93 83 172 l74 -31 q-78 -166 -176 -297 l136 13 q26 37 67 107 l66 -41 q-114 -179 -236 -304 l221 30 q-3 -26 2 -66 q-196 -30 -260 -42 q-54 -10 -72 -19 q-13 47 -26 71 q26 6 81 65 q34 32 107 129 q-150 -16 -169 -27 q-16 50 -26 72 ZM410 -12 l0 74 l230 0 l0 607 l-218 0 l0 73 l510 0 l0 -73 l-213 0 l0 -607 l234 0 l0 -74 l-543 0 Z" /><glyph glyph-name="" unicode="&#x7eb3;" d="M46 56 q79 15 312 69 q15 3 23 5 l6 -62 q-71 -18 -211 -53 q-82 -20 -117 -29 l-13 70 ZM42 488 q18 3 55 63 q24 34 62 110 q47 95 73 175 l64 -30 q-69 -172 -160 -306 l132 15 q28 43 64 111 l57 -35 q-104 -180 -219 -313 l205 37 q-2 -41 -1 -61 q-179 -35 -238 -49 q-49 -11 -66 -21 q-7 33 -22 63 q24 4 76 66 q37 41 104 139 q-142 -19 -164 -30 q-6 26 -22 66 ZM482 183 q122 142 146 365 l-146 0 l0 -365 ZM413 -76 l0 692 l220 0 q2 30 2 87 l0 132 l71 0 l0 -132 q0 -57 -2 -87 l213 0 l0 -597 q0 -33 -8 -50 q-8 -17 -29 -27 q-34 -13 -157 -13 q-5 33 -24 71 q49 -2 92 -2 q26 0 36 1 q21 1 21 20 l0 529 l-148 0 q-4 -43 -14 -98 q120 -179 161 -269 l-62 -37 q-31 73 -120 219 q-43 -134 -131 -235 q-21 23 -52 39 l0 -243 l-69 0 Z" /></font>
</defs>
</svg>
